0
SECTION
2
HEADER
9
$INSUNITS
70
1
0
ENDSEC
0
SECTION
2
TABLES
0
TABLE
2
LAYER
0
ENDTAB
0
ENDSEC
0
SECTION
2
ENTITIES
0
LINE
8
front_outsideCutPath
10
0
20
153
11
0
21
123
0
LINE
8
front_outsideCutPath
10
0
20
123
11
3
21
123
0
LINE
8
front_outsideCutPath
10
3
20
123
11
3
21
105
0
LINE
8
front_outsideCutPath
10
3
20
105
11
0
21
105
0
LINE
8
front_outsideCutPath
10
0
20
105
11
0
21
87
0
LINE
8
front_outsideCutPath
10
0
20
87
11
3
21
87
0
LINE
8
front_outsideCutPath
10
3
20
87
11
3
21
69
0
LINE
8
front_outsideCutPath
10
3
20
69
11
0
21
69
0
LINE
8
front_outsideCutPath
10
0
20
69
11
0
21
51
0
LINE
8
front_outsideCutPath
10
0
20
51
11
3
21
51
0
LINE
8
front_outsideCutPath
10
3
20
51
11
3
21
33
0
LINE
8
front_outsideCutPath
10
3
20
33
11
0
21
33
0
LINE
8
front_outsideCutPath
10
0
20
33
11
0
21
15
0
LINE
8
front_outsideCutPath
10
0
20
15
11
0
21
3
0
LINE
8
front_outsideCutPath
10
0
20
3
11
23
21
3
0
LINE
8
front_outsideCutPath
10
23
20
3
11
23
21
6
0
LINE
8
front_outsideCutPath
10
23
20
6
11
41
21
6
0
LINE
8
front_outsideCutPath
10
41
20
6
11
41
21
3
0
LINE
8
front_outsideCutPath
10
41
20
3
11
59
21
3
0
LINE
8
front_outsideCutPath
10
59
20
3
11
59
21
6
0
LINE
8
front_outsideCutPath
10
59
20
6
11
77
21
6
0
LINE
8
front_outsideCutPath
10
77
20
6
11
77
21
3
0
LINE
8
front_outsideCutPath
10
77
20
3
11
95
21
3
0
LINE
8
front_outsideCutPath
10
95
20
3
11
100
21
3
0
LINE
8
front_outsideCutPath
10
100
20
3
11
100
21
33
0
LINE
8
front_outsideCutPath
10
100
20
33
11
97
21
33
0
LINE
8
front_outsideCutPath
10
97
20
33
11
97
21
51
0
LINE
8
front_outsideCutPath
10
97
20
51
11
100
21
51
0
LINE
8
front_outsideCutPath
10
100
20
51
11
100
21
69
0
LINE
8
front_outsideCutPath
10
100
20
69
11
97
21
69
0
LINE
8
front_outsideCutPath
10
97
20
69
11
97
21
87
0
LINE
8
front_outsideCutPath
10
97
20
87
11
100
21
87
0
LINE
8
front_outsideCutPath
10
100
20
87
11
100
21
105
0
LINE
8
front_outsideCutPath
10
100
20
105
11
97
21
105
0
LINE
8
front_outsideCutPath
10
97
20
105
11
97
21
123
0
LINE
8
front_outsideCutPath
10
97
20
123
11
100
21
123
0
LINE
8
front_outsideCutPath
10
100
20
123
11
100
21
141
0
LINE
8
front_outsideCutPath
10
100
20
141
11
100
21
153
0
LINE
8
front_outsideCutPath
10
100
20
153
11
77
21
153
0
LINE
8
front_outsideCutPath
10
77
20
153
11
77
21
150
0
LINE
8
front_outsideCutPath
10
77
20
150
11
59
21
150
0
LINE
8
front_outsideCutPath
10
59
20
150
11
59
21
153
0
LINE
8
front_outsideCutPath
10
59
20
153
11
41
21
153
0
LINE
8
front_outsideCutPath
10
41
20
153
11
41
21
150
0
LINE
8
front_outsideCutPath
10
41
20
150
11
23
21
150
0
LINE
8
front_outsideCutPath
10
23
20
150
11
23
21
153
0
LINE
8
front_outsideCutPath
10
23
20
153
11
5
21
153
0
LINE
8
front_outsideCutPath
10
5
20
153
11
0
21
153
0
LINE
8
front_labelLayer
10
33.4326172
20
81.1496257
11
33.4326172
21
79.8898601
0
LINE
8
front_labelLayer
10
33.4326172
20
79.8898601
11
30.7080078
21
79.8898601
0
LINE
8
front_labelLayer
10
30.7080078
20
79.8898601
11
30.7080078
21
70.4465007
0
LINE
8
front_labelLayer
10
30.7080078
20
70.4465007
11
29.0869141
21
70.4465007
0
LINE
8
front_labelLayer
10
29.0869141
20
70.4465007
11
29.0869141
21
79.8898601
0
LINE
8
front_labelLayer
10
29.0869141
20
79.8898601
11
27.1728516
21
79.8898601
0
LINE
8
front_labelLayer
10
27.1728516
20
79.8898601
11
27.1728516
21
80.622282
0
LINE
8
front_labelLayer
10
27.1728516
20
80.622282
11
29.0869141
21
81.2082195
0
LINE
8
front_labelLayer
10
29.0869141
20
81.2082195
11
29.0869141
21
81.8039226
0
LINE
8
front_labelLayer
10
34.5263672
20
85.4074382
11
34.1064453
21
84.1086101
0
LINE
8
front_labelLayer
10
30.7080078
20
81.8429851
11
30.7080078
21
81.1496257
0
LINE
8
front_labelLayer
10
30.7080078
20
81.1496257
11
33.4326172
21
81.1496257
0
ARC
8
front_labelLayer
10
35.656643
20
81.8794516
40
6.5701631
50
167.5776019
51
180.6586728
0
ARC
8
front_labelLayer
10
32.5671365
20
82.5997452
40
3.3982616
50
141.7433952
51
168.2322111
0
ARC
8
front_labelLayer
10
32.0641015
20
82.8622911
40
2.8426424
50
98.25515
51
139.620332
0
ARC
8
front_labelLayer
10
32.5057745
20
80.821935
40
4.9273822
50
89.6697013
51
99.9314429
0
ARC
8
front_labelLayer
10
32.507007
20
80.5290279
40
5.2202779
50
81.5640782
51
89.7017613
0
ARC
8
front_labelLayer
10
32.1400146
20
77.9686645
40
7.8067887
50
75.9739836
51
81.6564925
0
ARC
8
front_labelLayer
10
31.5101857
20
75.3562892
40
10.4939481
50
73.2963798
51
76.0945964
0
ARC
8
front_labelLayer
10
31.6688282
20
76.6235867
40
7.8719472
50
71.9613356
51
76.5918517
0
ARC
8
front_labelLayer
10
32.2795384
20
79.2142902
40
5.2102479
50
76.5183435
51
83.0217048
0
ARC
8
front_labelLayer
10
32.4922705
20
80.9250858
40
3.4862815
50
83.076037
51
89.7927205
0
ARC
8
front_labelLayer
10
32.485268
20
82.2252028
40
2.1862297
50
89.4859359
51
103.4197073
0
ARC
8
front_labelLayer
10
32.2881641
20
82.9824617
40
1.4039934
50
102.7677419
51
144.3380185
0
ARC
8
front_labelLayer
10
32.6852455
20
82.7269769
40
1.875711
50
145.0688682
51
162.1801871
0
ARC
8
front_labelLayer
10
34.0467165
20
82.2689105
40
3.3121003
50
161.8437828
51
171.7846792
0
ARC
8
front_labelLayer
10
36.2672892
20
81.9353905
40
5.5575582
50
171.6528007
51
178.4383441
0
ARC
8
front_labelLayer
10
38.3619741
20
81.8460803
40
7.6539668
50
178.1973669
51
180.0231697
0
LINE
8
front_labelLayer
10
41.5478516
20
81.2277507
11
41.3232422
21
79.7238445
0
LINE
8
front_labelLayer
10
37.0068359
20
76.1886882
11
37.0068359
21
70.4465007
0
LINE
8
front_labelLayer
10
37.0068359
20
70.4465007
11
35.3857422
21
70.4465007
0
LINE
8
front_labelLayer
10
35.3857422
20
70.4465007
11
35.3857422
21
81.1496257
0
LINE
8
front_labelLayer
10
35.3857422
20
81.1496257
11
36.7236328
21
81.1496257
0
LINE
8
front_labelLayer
10
36.7236328
20
81.1496257
11
36.9091797
21
79.1672038
0
LINE
8
front_labelLayer
10
36.9091797
20
79.1672038
11
36.9873047
21
79.1672038
0
ARC
8
front_labelLayer
10
40.2851918
20
73.9027457
40
7.4422111
50
84.992291
51
90.1280853
0
ARC
8
front_labelLayer
10
40.4639204
20
75.9052003
40
5.4317999
50
78.4891881
51
85.0266001
0
ARC
8
front_labelLayer
10
39.7702105
20
72.7500366
40
7.1446416
50
77.4453847
51
81.6360114
0
ARC
8
front_labelLayer
10
40.081499
20
74.8956981
40
4.9765227
50
81.5884291
51
87.1916446
0
ARC
8
front_labelLayer
10
40.1491097
20
76.067975
40
3.8023544
50
87.3437351
51
89.9659832
0
ARC
8
front_labelLayer
10
40.1334016
20
77.0615111
40
2.8088752
50
89.6335332
51
137.0880824
0
ARC
8
front_labelLayer
10
40.8226335
20
76.2864292
40
3.8426618
50
135.6208614
51
138.8378137
0
ARC
8
front_labelLayer
10
40.7217405
20
76.3849151
40
3.7018901
50
138.9575794
51
174.5422254
0
ARC
8
front_labelLayer
10
41.9274083
20
76.1962675
40
4.9205781
50
173.6907914
51
180.0882543
0
ARC
8
front_labelLayer
10
41.7569048
20
76.4800333
40
5.4744836
50
139.4139283
51
150.6032915
0
ARC
8
front_labelLayer
10
40.7753331
20
77.3211361
40
4.1818363
50
124.2321574
51
139.4160923
0
ARC
8
front_labelLayer
10
40.2504874
20
78.1133863
40
3.2316024
50
89.6796684
51
124.4405593
0
ARC
8
front_labelLayer
10
44.4146558
20
75.7513789
40
8.3736204
50
349.1761945
51
0.3862568
0
ARC
8
front_labelLayer
10
47.233861
20
75.1893655
40
5.4990771
50
330.2507047
51
349.4116462
0
ARC
8
front_labelLayer
10
48.1014695
20
74.7384163
40
4.5222197
50
318.143971
51
329.7566252
0
ARC
8
front_labelLayer
10
48.2580578
20
74.6129266
40
4.3218687
50
278.8959183
51
317.9979086
0
ARC
8
front_labelLayer
10
47.8545846
20
76.5460018
40
6.2948732
50
269.7502763
51
279.8033236
0
ARC
8
front_labelLayer
10
47.7891484
20
75.4568395
40
5.2057899
50
253.5436962
51
270.418238
0
ARC
8
front_labelLayer
10
47.6158547
20
74.7865
40
4.5138811
50
238.8115441
51
253.242846
0
ARC
8
front_labelLayer
10
47.5599298
20
74.6740366
40
4.3887236
50
207.7946962
51
238.6757996
0
ARC
8
front_labelLayer
10
48.3624169
20
75.165521
40
5.328149
50
205.6559791
51
208.4461025
0
ARC
8
front_labelLayer
10
48.9805701
20
75.4230902
40
5.9969824
50
188.9102503
51
205.3171481
0
ARC
8
front_labelLayer
10
51.0637213
20
75.7759072
40
8.1096824
50
179.7744696
51
189.0932788
0
ARC
8
front_labelLayer
10
51.3710103
20
75.8648393
40
8.4171018
50
169.244298
51
180.388077
0
ARC
8
front_labelLayer
10
48.512632
20
76.4298361
40
5.5035418
50
150.7111564
51
169.4695354
0
ARC
8
front_labelLayer
10
47.6001567
20
76.8984219
40
4.4786339
50
138.175962
51
150.2287147
0
ARC
8
front_labelLayer
10
47.4483586
20
77.0149094
40
4.2878596
50
99.175935
51
137.9832793
0
ARC
8
front_labelLayer
10
47.8661284
20
75.0488414
40
6.2961655
50
89.7326434
51
100.0759878
0
ARC
8
front_labelLayer
10
47.9496243
20
75.8979214
40
5.4472856
50
73.5222665
51
90.5692191
0
ARC
8
front_labelLayer
10
48.2690752
20
77.0585698
40
4.2437569
50
41.1445735
51
73.2133783
0
ARC
8
front_labelLayer
10
47.6592716
20
76.5344521
40
5.047824
50
13.5014302
51
41.0703483
0
ARC
8
front_labelLayer
10
45.3032818
20
75.9179214
40
7.4828084
50
1.1277281
51
13.8799962
0
ARC
8
front_labelLayer
10
43.2740157
20
75.8091812
40
9.5140701
50
359.991856
51
1.5419431
0
ARC
8
front_labelLayer
10
52.8428699
20
75.7657001
40
8.2091889
50
179.7059623
51
187.9160759
0
ARC
8
front_labelLayer
10
49.8319964
20
75.3331922
40
5.1674586
50
187.7639332
51
200.097688
0
ARC
8
front_labelLayer
10
48.1733168
20
74.7254495
40
3.4009457
50
200.0845876
51
216.9131503
0
ARC
8
front_labelLayer
10
47.5676242
20
74.2929573
40
2.6569704
50
217.300954
51
261.7099073
0
ARC
8
front_labelLayer
10
47.8488056
20
75.6347234
40
4.0261509
50
260.5033133
51
270.2476938
0
ARC
8
front_labelLayer
10
47.9024761
20
75.3738215
40
3.765386
50
269.4481646
51
284.7255643
0
ARC
8
front_labelLayer
10
48.2005593
20
74.2683253
40
2.620441
50
284.566235
51
322.6333878
0
ARC
8
front_labelLayer
10
47.5036256
20
74.771829
40
3.4799996
50
323.0089266
51
342.6390508
0
ARC
8
front_labelLayer
10
45.5102406
20
75.4233247
40
5.5770392
50
342.3615704
51
353.7537499
0
ARC
8
front_labelLayer
10
42.5693152
20
75.7778121
40
8.539136
50
353.5363189
51
0.2014064
0
ARC
8
front_labelLayer
10
43.0199545
20
75.8491138
40
8.0885493
50
359.7075543
51
7.8972827
0
ARC
8
front_labelLayer
10
45.9821889
20
76.2737785
40
5.0960791
50
7.7440005
51
20.0690174
0
ARC
8
front_labelLayer
10
47.6328814
20
76.8795201
40
3.3377565
50
20.0257107
51
37.4350558
0
ARC
8
front_labelLayer
10
48.1805665
20
77.2681496
40
2.6667491
50
37.9577645
51
80.400615
0
ARC
8
front_labelLayer
10
47.8693358
20
75.8794661
40
4.0885816
50
79.345353
51
90.3174962
0
ARC
8
front_labelLayer
10
47.8117054
20
76.110135
40
3.8580087
50
89.4805853
51
103.8805168
0
ARC
8
front_labelLayer
10
47.4875331
20
77.3445778
40
2.5819124
50
103.4685218
51
142.3118841
0
ARC
8
front_labelLayer
10
48.1177462
20
76.9013664
40
3.3517727
50
142.9025565
51
162.3749748
0
ARC
8
front_labelLayer
10
50.103562
20
76.239596
40
5.4448258
50
162.0652994
51
173.1674849
0
ARC
8
front_labelLayer
10
53.1999835
20
75.844664
40
8.5662738
50
173.0086063
51
180.2463739
0
LINE
8
front_labelLayer
10
64.5751953
20
70.4465007
11
62.9541016
21
70.4465007
0
LINE
8
front_labelLayer
10
62.9541016
20
70.4465007
11
62.9541016
21
77.3703288
0
LINE
8
front_labelLayer
10
57.2509766
20
76.0617351
11
57.2509766
21
70.4465007
0
LINE
8
front_labelLayer
10
57.2509766
20
70.4465007
11
55.6298828
21
70.4465007
0
LINE
8
front_labelLayer
10
55.6298828
20
70.4465007
11
55.6298828
21
81.1496257
0
LINE
8
front_labelLayer
10
55.6298828
20
81.1496257
11
56.9482422
21
81.1496257
0
LINE
8
front_labelLayer
10
56.9482422
20
81.1496257
11
57.2119141
21
79.684782
0
LINE
8
front_labelLayer
10
57.2119141
20
79.684782
11
57.2900391
21
79.684782
0
LINE
8
front_labelLayer
10
64.5751953
20
77.4289226
11
64.5751953
21
70.4465007
0
ARC
8
front_labelLayer
10
58.3717418
20
77.3966075
40
4.5824351
50
359.6714273
51
8.6877183
0
ARC
8
front_labelLayer
10
60.0701359
20
77.6659621
40
2.8628588
50
8.4931172
51
22.6580015
0
ARC
8
front_labelLayer
10
60.9330198
20
78.02455
40
1.9284334
50
22.7024538
51
42.3419526
0
ARC
8
front_labelLayer
10
61.0300148
20
78.0681813
40
1.8276521
50
43.3791036
51
71.5386098
0
ARC
8
front_labelLayer
10
60.6673083
20
77.0546881
40
2.9039368
50
71.0827882
51
84.3690971
0
ARC
8
front_labelLayer
10
60.5044967
20
75.6704319
40
4.2975682
50
84.0197499
51
90.1510883
0
ARC
8
front_labelLayer
10
60.458338
20
75.0618099
40
4.9062988
50
89.5932978
51
100.3717905
0
ARC
8
front_labelLayer
10
60.1116138
20
76.8809551
40
3.0544855
50
100.1176335
51
118.1602552
0
ARC
8
front_labelLayer
10
59.7622031
20
77.5661214
40
2.2855721
50
118.5439463
51
139.1926966
0
ARC
8
front_labelLayer
10
60.0668693
20
77.3616865
40
2.6501508
50
140.1519123
51
160.3146543
0
ARC
8
front_labelLayer
10
61.9066472
20
76.6725826
40
4.6146256
50
159.9534297
51
171.3801135
0
ARC
8
front_labelLayer
10
64.9119838
20
76.1894866
40
7.6584691
50
171.1765914
51
178.3217568
0
ARC
8
front_labelLayer
10
67.6360595
20
76.066023
40
10.3850839
50
178.081036
51
180.023657
0
ARC
8
front_labelLayer
10
60.0631665
20
77.9284684
40
3.2825102
50
116.9442851
51
147.6525642
0
ARC
8
front_labelLayer
10
60.404898
20
77.3568868
40
3.9471559
50
115.8072486
51
117.6067736
0
ARC
8
front_labelLayer
10
60.5795056
20
76.9497359
40
4.3897594
50
94.3226737
51
115.5454453
0
ARC
8
front_labelLayer
10
60.6845747
20
76.0369154
40
5.3080244
50
89.957883
51
94.7109208
0
ARC
8
front_labelLayer
10
60.7280003
20
74.9446895
40
6.4003708
50
80.5585506
51
90.3538166
0
ARC
8
front_labelLayer
10
61.1279828
20
77.2615523
40
4.0493058
50
65.1094299
51
80.7638171
0
ARC
8
front_labelLayer
10
61.5955424
20
78.2971868
40
2.9131021
50
46.5584519
51
64.8782266
0
ARC
8
front_labelLayer
10
61.6329642
20
78.405067
40
2.8094344
50
19.3848834
51
45.5997059
0
ARC
8
front_labelLayer
10
60.0076147
20
77.7952087
40
4.5452039
50
6.9633634
51
19.8363272
0
ARC
8
front_labelLayer
10
57.5008422
20
77.4581685
40
7.0744135
50
359.763136
51
7.21157
0
LINE
8
front_labelLayer
10
72.8271484
20
71.7843913
11
72.8271484
21
70.544157
0
LINE
8
front_labelLayer
10
68.0224609
20
73.5226726
11
68.0224609
21
79.8898601
0
LINE
8
front_labelLayer
10
68.0224609
20
79.8898601
11
66.4892578
21
79.8898601
0
LINE
8
front_labelLayer
10
66.4892578
20
79.8898601
11
66.4892578
21
80.6711101
0
LINE
8
front_labelLayer
10
66.4892578
20
80.6711101
11
68.0224609
21
81.3449382
0
LINE
8
front_labelLayer
10
68.0224609
20
81.3449382
11
68.7060547
21
83.6300945
0
LINE
8
front_labelLayer
10
68.7060547
20
83.6300945
11
69.6435547
21
83.6300945
0
LINE
8
front_labelLayer
10
69.6435547
20
83.6300945
11
69.6435547
21
81.1496257
0
LINE
8
front_labelLayer
10
69.6435547
20
81.1496257
11
72.7490234
21
81.1496257
0
LINE
8
front_labelLayer
10
72.7490234
20
81.1496257
11
72.7490234
21
79.8898601
0
LINE
8
front_labelLayer
10
72.7490234
20
79.8898601
11
69.6435547
21
79.8898601
0
LINE
8
front_labelLayer
10
69.6435547
20
79.8898601
11
69.6435547
21
73.591032
0
ARC
8
front_labelLayer
10
71.3734233
20
76.9129617
40
5.3238944
50
269.8803417
51
278.3028182
0
ARC
8
front_labelLayer
10
71.4230699
20
76.5056089
40
4.9136514
50
278.4158959
51
279.0076561
0
ARC
8
front_labelLayer
10
70.8267197
20
80.3151576
40
8.7695902
50
278.9589695
51
280.5103918
0
ARC
8
front_labelLayer
10
71.3960558
20
77.2602916
40
5.6621249
50
280.4847522
51
282.6268451
0
ARC
8
front_labelLayer
10
71.8953454
20
75.0421168
40
3.3884538
50
282.5876165
51
285.5795336
0
ARC
8
front_labelLayer
10
72.1470048
20
74.1168484
40
2.429599
50
285.7231888
51
286.2566654
0
ARC
8
front_labelLayer
10
72.145595
20
71.9856817
40
1.5945246
50
287.9888406
51
295.3048016
0
ARC
8
front_labelLayer
10
71.7610004
20
73.1492631
40
2.8200086
50
283.3069861
51
288.1197567
0
ARC
8
front_labelLayer
10
71.3547466
20
74.8438763
40
4.5626327
50
280.0069961
51
283.3735389
0
ARC
8
front_labelLayer
10
71.0829387
20
76.3189605
40
6.0625179
50
279.1862135
51
280.1142603
0
ARC
8
front_labelLayer
10
70.9160585
20
77.2681084
40
7.0261467
50
275.5260122
51
279.2939725
0
ARC
8
front_labelLayer
10
71.1040783
20
75.304196
40
5.0532558
50
270.8932457
51
275.5483966
0
ARC
8
front_labelLayer
10
71.1276861
20
74.4070606
40
4.1558726
50
270.0033586
51
270.7606301
0
ARC
8
front_labelLayer
10
71.0625135
20
74.4847407
40
4.2340578
50
253.784789
51
270.8852547
0
ARC
8
front_labelLayer
10
70.5608903
20
72.7740159
40
2.4513133
50
190.3817699
51
253.8772374
0
ARC
8
front_labelLayer
10
73.1176617
20
73.465321
40
5.0955236
50
179.3551054
51
192.8477577
0
ARC
8
front_labelLayer
10
72.9078539
20
73.5706171
40
3.2643631
50
179.6416773
51
189.7505556
0
ARC
8
front_labelLayer
10
71.7554639
20
73.3650768
40
2.093823
50
189.5479676
51
205.7873396
0
ARC
8
front_labelLayer
10
71.2818781
20
73.1466914
40
1.5724225
50
206.1294051
51
221.408398
0
ARC
8
front_labelLayer
10
71.2287796
20
73.1064012
40
1.505957
50
221.5949091
51
262.3505289
0
ARC
8
front_labelLayer
10
71.355071
20
73.7558396
40
2.1667729
50
261.3266216
51
270.1912791
0
LINE
8
left_outsideCutPath
10
106
20
153
11
106
21
123
0
LINE
8
left_outsideCutPath
10
106
20
123
11
103
21
123
0
LINE
8
left_outsideCutPath
10
103
20
123
11
103
21
105
0
LINE
8
left_outsideCutPath
10
103
20
105
11
106
21
105
0
LINE
8
left_outsideCutPath
10
106
20
105
11
106
21
87
0
LINE
8
left_outsideCutPath
10
106
20
87
11
103
21
87
0
LINE
8
left_outsideCutPath
10
103
20
87
11
103
21
69
0
LINE
8
left_outsideCutPath
10
103
20
69
11
106
21
69
0
LINE
8
left_outsideCutPath
10
106
20
69
11
106
21
51
0
LINE
8
left_outsideCutPath
10
106
20
51
11
103
21
51
0
LINE
8
left_outsideCutPath
10
103
20
51
11
103
21
33
0
LINE
8
left_outsideCutPath
10
103
20
33
11
106
21
33
0
LINE
8
left_outsideCutPath
10
106
20
33
11
106
21
15
0
LINE
8
left_outsideCutPath
10
106
20
15
11
106
21
3
0
LINE
8
left_outsideCutPath
10
106
20
3
11
126
21
3
0
LINE
8
left_outsideCutPath
10
126
20
3
11
126
21
6
0
LINE
8
left_outsideCutPath
10
126
20
6
11
144
21
6
0
LINE
8
left_outsideCutPath
10
144
20
6
11
144
21
3
0
LINE
8
left_outsideCutPath
10
144
20
3
11
162
21
3
0
LINE
8
left_outsideCutPath
10
162
20
3
11
162
21
6
0
LINE
8
left_outsideCutPath
10
162
20
6
11
180
21
6
0
LINE
8
left_outsideCutPath
10
180
20
6
11
180
21
3
0
LINE
8
left_outsideCutPath
10
180
20
3
11
198
21
3
0
LINE
8
left_outsideCutPath
10
198
20
3
11
200
21
3
0
LINE
8
left_outsideCutPath
10
200
20
3
11
200
21
33
0
LINE
8
left_outsideCutPath
10
200
20
33
11
203
21
33
0
LINE
8
left_outsideCutPath
10
203
20
33
11
203
21
51
0
LINE
8
left_outsideCutPath
10
203
20
51
11
200
21
51
0
LINE
8
left_outsideCutPath
10
200
20
51
11
200
21
69
0
LINE
8
left_outsideCutPath
10
200
20
69
11
203
21
69
0
LINE
8
left_outsideCutPath
10
203
20
69
11
203
21
87
0
LINE
8
left_outsideCutPath
10
203
20
87
11
200
21
87
0
LINE
8
left_outsideCutPath
10
200
20
87
11
200
21
105
0
LINE
8
left_outsideCutPath
10
200
20
105
11
203
21
105
0
LINE
8
left_outsideCutPath
10
203
20
105
11
203
21
123
0
LINE
8
left_outsideCutPath
10
203
20
123
11
200
21
123
0
LINE
8
left_outsideCutPath
10
200
20
123
11
200
21
141
0
LINE
8
left_outsideCutPath
10
200
20
141
11
200
21
153
0
LINE
8
left_outsideCutPath
10
200
20
153
11
180
21
153
0
LINE
8
left_outsideCutPath
10
180
20
153
11
180
21
150
0
LINE
8
left_outsideCutPath
10
180
20
150
11
162
21
150
0
LINE
8
left_outsideCutPath
10
162
20
150
11
162
21
153
0
LINE
8
left_outsideCutPath
10
162
20
153
11
144
21
153
0
LINE
8
left_outsideCutPath
10
144
20
153
11
144
21
150
0
LINE
8
left_outsideCutPath
10
144
20
150
11
126
21
150
0
LINE
8
left_outsideCutPath
10
126
20
150
11
126
21
153
0
LINE
8
left_outsideCutPath
10
126
20
153
11
108
21
153
0
LINE
8
left_outsideCutPath
10
108
20
153
11
106
21
153
0
LINE
8
left_labelLayer
10
140.6318359
20
85.6418132
11
140.6318359
21
70.4465007
0
LINE
8
left_labelLayer
10
140.6318359
20
70.4465007
11
139.0107422
21
70.4465007
0
LINE
8
left_labelLayer
10
139.0107422
20
70.4465007
11
139.0107422
21
85.6418132
0
LINE
8
left_labelLayer
10
139.0107422
20
85.6418132
11
140.6318359
21
85.6418132
0
LINE
8
left_labelLayer
10
152.5263672
20
76.5304851
11
152.5263672
21
75.5050945
0
LINE
8
left_labelLayer
10
152.5263672
20
75.5050945
11
145.1533203
21
75.5050945
0
LINE
8
left_labelLayer
10
152.0673828
20
72.3898601
11
152.0673828
21
70.9445476
0
LINE
8
left_labelLayer
10
145.1923828
20
76.8234538
11
150.7880859
21
76.8234538
0
ARC
8
left_labelLayer
10
148.5375163
20
76.5504518
40
6.2994891
50
256.0087864
51
270.4848217
0
ARC
8
left_labelLayer
10
148.0787904
20
74.7695846
40
4.4605713
50
223.5465745
51
256.1956946
0
ARC
8
left_labelLayer
10
148.331848
20
74.9535108
40
4.7708826
50
194.0877272
51
223.0538182
0
ARC
8
left_labelLayer
10
150.6505483
20
75.5875915
40
7.1743644
50
181.3574552
51
194.4920046
0
ARC
8
left_labelLayer
10
152.7337444
20
75.7083549
40
9.2601118
50
179.988753
51
181.7991074
0
ARC
8
left_labelLayer
10
151.9857631
20
75.7672736
40
8.5123218
50
168.9539202
51
180.3843452
0
ARC
8
left_labelLayer
10
149.2056782
20
76.3333483
40
5.6753298
50
149.4070939
51
169.185387
0
ARC
8
left_labelLayer
10
148.4311046
20
76.7425996
40
4.8004737
50
140.1056143
51
148.906731
0
ARC
8
left_labelLayer
10
147.9552283
20
77.1813347
40
4.1540931
50
92.4762693
51
140.5386367
0
ARC
8
left_labelLayer
10
148.1672793
20
75.6142695
40
5.7306699
50
89.9638154
51
93.9176162
0
ARC
8
left_labelLayer
10
148.2178771
20
76.4063084
40
4.9388532
50
74.2125965
51
90.5450096
0
ARC
8
left_labelLayer
10
148.5272118
20
77.5460349
40
3.7579798
50
41.2064721
51
74.0232652
0
ARC
8
left_labelLayer
10
147.9413907
20
77.0390501
40
4.5327076
50
11.5994275
51
41.1496059
0
ARC
8
left_labelLayer
10
145.9285231
20
76.5748451
40
6.5979931
50
359.6147824
51
12.033632
0
ARC
8
left_labelLayer
10
151.6585018
20
75.6350784
40
6.50648
50
181.1447089
51
190.800699
0
ARC
8
left_labelLayer
10
149.3630811
20
75.182357
40
4.1669111
50
190.6005651
51
206.0275216
0
ARC
8
left_labelLayer
10
148.3475131
20
74.7022419
40
3.0436958
50
206.2950304
51
222.5557993
0
ARC
8
left_labelLayer
10
148.2575252
20
74.6551265
40
2.9456606
50
223.0645132
51
258.1401291
0
ARC
8
left_labelLayer
10
148.6157671
20
76.1302218
40
4.4631448
50
257.5311717
51
270.4319476
0
ARC
8
left_labelLayer
10
148.6197666
20
80.2290413
40
8.5618888
50
270.1983999
51
292.2090433
0
ARC
8
left_labelLayer
10
148.2083414
20
81.410503
40
9.8114322
50
291.8255178
51
293.1612948
0
ARC
8
left_labelLayer
10
148.1889046
20
79.8703356
40
9.7320237
50
287.9023108
51
293.4861519
0
ARC
8
left_labelLayer
10
148.8948818
20
77.6921442
40
7.4422823
50
281.9936008
51
287.8851423
0
ARC
8
left_labelLayer
10
149.0659954
20
77.0771114
40
6.8052323
50
275.9054125
51
281.6604196
0
ARC
8
left_labelLayer
10
148.7234705
20
80.2742317
40
10.0206339
50
271.9119633
51
275.9726911
0
ARC
8
left_labelLayer
10
148.5984511
20
83.4584667
40
13.2072806
50
269.9668962
51
271.9931374
0
ARC
8
left_labelLayer
10
148.1202599
20
76.7921135
40
3.1955542
50
89.4422423
51
106.2089652
0
ARC
8
left_labelLayer
10
147.928013
20
77.4930778
40
2.4688141
50
106.4657148
51
137.9176368
0
ARC
8
left_labelLayer
10
148.4791952
20
77.0090489
40
3.2023031
50
138.0994865
51
160.5866232
0
ARC
8
left_labelLayer
10
149.8960088
20
76.487829
40
4.7118531
50
160.335354
51
172.5315141
0
ARC
8
left_labelLayer
10
151.291158
20
76.2642972
40
6.1243541
50
172.1545568
51
174.7615716
0
ARC
8
left_labelLayer
10
145.2640618
20
76.8548335
40
5.5241133
50
359.6745303
51
8.922462
0
ARC
8
left_labelLayer
10
147.2379464
20
77.1764473
40
3.5242521
50
8.7342472
51
23.2771776
0
ARC
8
left_labelLayer
10
148.1750418
20
77.5698155
40
2.5079976
50
23.4821335
51
39.7072171
0
ARC
8
left_labelLayer
10
148.4052195
20
77.7420632
40
2.220922
50
40.0822985
51
80.624323
0
ARC
8
left_labelLayer
10
148.1682893
20
76.655985
40
3.3315743
50
79.646833
51
90.291024
0
LINE
8
left_labelLayer
10
160.1142578
20
81.1496257
11
160.1142578
21
79.8898601
0
LINE
8
left_labelLayer
10
160.1142578
20
79.8898601
11
157.3896484
21
79.8898601
0
LINE
8
left_labelLayer
10
157.3896484
20
79.8898601
11
157.3896484
21
70.4465007
0
LINE
8
left_labelLayer
10
157.3896484
20
70.4465007
11
155.7685547
21
70.4465007
0
LINE
8
left_labelLayer
10
155.7685547
20
70.4465007
11
155.7685547
21
79.8898601
0
LINE
8
left_labelLayer
10
155.7685547
20
79.8898601
11
153.8544922
21
79.8898601
0
LINE
8
left_labelLayer
10
153.8544922
20
79.8898601
11
153.8544922
21
80.622282
0
LINE
8
left_labelLayer
10
153.8544922
20
80.622282
11
155.7685547
21
81.2082195
0
LINE
8
left_labelLayer
10
155.7685547
20
81.2082195
11
155.7685547
21
81.8039226
0
LINE
8
left_labelLayer
10
161.2080078
20
85.4074382
11
160.7880859
21
84.1086101
0
LINE
8
left_labelLayer
10
157.3896484
20
81.8429851
11
157.3896484
21
81.1496257
0
LINE
8
left_labelLayer
10
157.3896484
20
81.1496257
11
160.1142578
21
81.1496257
0
ARC
8
left_labelLayer
10
162.3382836
20
81.8794516
40
6.5701631
50
167.5776019
51
180.6586728
0
ARC
8
left_labelLayer
10
159.2487771
20
82.5997452
40
3.3982616
50
141.7433952
51
168.2322111
0
ARC
8
left_labelLayer
10
158.7457421
20
82.8622911
40
2.8426424
50
98.25515
51
139.620332
0
ARC
8
left_labelLayer
10
159.1874151
20
80.821935
40
4.9273822
50
89.6697013
51
99.9314429
0
ARC
8
left_labelLayer
10
159.1886476
20
80.5290279
40
5.2202779
50
81.5640782
51
89.7017613
0
ARC
8
left_labelLayer
10
158.8216552
20
77.9686645
40
7.8067887
50
75.9739836
51
81.6564925
0
ARC
8
left_labelLayer
10
158.1918263
20
75.3562892
40
10.4939481
50
73.2963798
51
76.0945964
0
ARC
8
left_labelLayer
10
158.3504689
20
76.6235867
40
7.8719472
50
71.9613356
51
76.5918517
0
ARC
8
left_labelLayer
10
158.961179
20
79.2142902
40
5.2102479
50
76.5183435
51
83.0217048
0
ARC
8
left_labelLayer
10
159.1739111
20
80.9250858
40
3.4862815
50
83.076037
51
89.7927205
0
ARC
8
left_labelLayer
10
159.1669086
20
82.2252028
40
2.1862297
50
89.4859359
51
103.4197073
0
ARC
8
left_labelLayer
10
158.9698048
20
82.9824617
40
1.4039934
50
102.7677419
51
144.3380185
0
ARC
8
left_labelLayer
10
159.3668861
20
82.7269769
40
1.875711
50
145.0688682
51
162.1801871
0
ARC
8
left_labelLayer
10
160.7283572
20
82.2689105
40
3.3121003
50
161.8437828
51
171.7846792
0
ARC
8
left_labelLayer
10
162.9489299
20
81.9353905
40
5.5575582
50
171.6528007
51
178.4383441
0
ARC
8
left_labelLayer
10
165.0436147
20
81.8460803
40
7.6539668
50
178.1973669
51
180.0231697
0
LINE
8
left_labelLayer
10
166.9892578
20
71.7843913
11
166.9892578
21
70.544157
0
LINE
8
left_labelLayer
10
162.1845703
20
73.5226726
11
162.1845703
21
79.8898601
0
LINE
8
left_labelLayer
10
162.1845703
20
79.8898601
11
160.6513672
21
79.8898601
0
LINE
8
left_labelLayer
10
160.6513672
20
79.8898601
11
160.6513672
21
80.6711101
0
LINE
8
left_labelLayer
10
160.6513672
20
80.6711101
11
162.1845703
21
81.3449382
0
LINE
8
left_labelLayer
10
162.1845703
20
81.3449382
11
162.8681641
21
83.6300945
0
LINE
8
left_labelLayer
10
162.8681641
20
83.6300945
11
163.8056641
21
83.6300945
0
LINE
8
left_labelLayer
10
163.8056641
20
83.6300945
11
163.8056641
21
81.1496257
0
LINE
8
left_labelLayer
10
163.8056641
20
81.1496257
11
166.9111328
21
81.1496257
0
LINE
8
left_labelLayer
10
166.9111328
20
81.1496257
11
166.9111328
21
79.8898601
0
LINE
8
left_labelLayer
10
166.9111328
20
79.8898601
11
163.8056641
21
79.8898601
0
LINE
8
left_labelLayer
10
163.8056641
20
79.8898601
11
163.8056641
21
73.591032
0
ARC
8
left_labelLayer
10
165.5355326
20
76.9129617
40
5.3238944
50
269.8803417
51
278.3028182
0
ARC
8
left_labelLayer
10
165.5851793
20
76.5056089
40
4.9136514
50
278.4158959
51
279.0076561
0
ARC
8
left_labelLayer
10
164.9888291
20
80.3151576
40
8.7695902
50
278.9589695
51
280.5103918
0
ARC
8
left_labelLayer
10
165.5581652
20
77.2602916
40
5.6621249
50
280.4847522
51
282.6268451
0
ARC
8
left_labelLayer
10
166.0574548
20
75.0421168
40
3.3884538
50
282.5876165
51
285.5795336
0
ARC
8
left_labelLayer
10
166.3091142
20
74.1168484
40
2.429599
50
285.7231888
51
286.2566654
0
ARC
8
left_labelLayer
10
166.3077044
20
71.9856817
40
1.5945246
50
287.9888406
51
295.3048016
0
ARC
8
left_labelLayer
10
165.9231098
20
73.1492631
40
2.8200086
50
283.3069861
51
288.1197567
0
ARC
8
left_labelLayer
10
165.516856
20
74.8438763
40
4.5626327
50
280.0069961
51
283.3735389
0
ARC
8
left_labelLayer
10
165.2450481
20
76.3189605
40
6.0625179
50
279.1862135
51
280.1142603
0
ARC
8
left_labelLayer
10
165.0781679
20
77.2681084
40
7.0261467
50
275.5260122
51
279.2939725
0
ARC
8
left_labelLayer
10
165.2661877
20
75.304196
40
5.0532558
50
270.8932457
51
275.5483966
0
ARC
8
left_labelLayer
10
165.2897955
20
74.4070606
40
4.1558726
50
270.0033586
51
270.7606301
0
ARC
8
left_labelLayer
10
165.2246229
20
74.4847407
40
4.2340578
50
253.784789
51
270.8852547
0
ARC
8
left_labelLayer
10
164.7229997
20
72.7740159
40
2.4513133
50
190.3817699
51
253.8772374
0
ARC
8
left_labelLayer
10
167.2797711
20
73.465321
40
5.0955236
50
179.3551054
51
192.8477577
0
ARC
8
left_labelLayer
10
167.0699633
20
73.5706171
40
3.2643631
50
179.6416773
51
189.7505556
0
ARC
8
left_labelLayer
10
165.9175733
20
73.3650768
40
2.093823
50
189.5479676
51
205.7873396
0
ARC
8
left_labelLayer
10
165.4439874
20
73.1466914
40
1.5724225
50
206.1294051
51
221.408398
0
ARC
8
left_labelLayer
10
165.390889
20
73.1064012
40
1.505957
50
221.5949091
51
262.3505289
0
ARC
8
left_labelLayer
10
165.5171804
20
73.7558396
40
2.1667729
50
261.3266216
51
270.1912791
0
LINE
8
top_outsideCutPath
10
209
20
100
11
209
21
80
0
LINE
8
top_outsideCutPath
10
209
20
80
11
206
21
80
0
LINE
8
top_outsideCutPath
10
206
20
80
11
206
21
62
0
LINE
8
top_outsideCutPath
10
206
20
62
11
209
21
62
0
LINE
8
top_outsideCutPath
10
209
20
62
11
209
21
44
0
LINE
8
top_outsideCutPath
10
209
20
44
11
206
21
44
0
LINE
8
top_outsideCutPath
10
206
20
44
11
206
21
26
0
LINE
8
top_outsideCutPath
10
206
20
26
11
209
21
26
0
LINE
8
top_outsideCutPath
10
209
20
26
11
209
21
8
0
LINE
8
top_outsideCutPath
10
209
20
8
11
209
21
6
0
LINE
8
top_outsideCutPath
10
209
20
6
11
229
21
6
0
LINE
8
top_outsideCutPath
10
229
20
6
11
229
21
3
0
LINE
8
top_outsideCutPath
10
229
20
3
11
247
21
3
0
LINE
8
top_outsideCutPath
10
247
20
3
11
247
21
6
0
LINE
8
top_outsideCutPath
10
247
20
6
11
265
21
6
0
LINE
8
top_outsideCutPath
10
265
20
6
11
265
21
3
0
LINE
8
top_outsideCutPath
10
265
20
3
11
283
21
3
0
LINE
8
top_outsideCutPath
10
283
20
3
11
283
21
6
0
LINE
8
top_outsideCutPath
10
283
20
6
11
301
21
6
0
LINE
8
top_outsideCutPath
10
301
20
6
11
303
21
6
0
LINE
8
top_outsideCutPath
10
303
20
6
11
303
21
26
0
LINE
8
top_outsideCutPath
10
303
20
26
11
306
21
26
0
LINE
8
top_outsideCutPath
10
306
20
26
11
306
21
44
0
LINE
8
top_outsideCutPath
10
306
20
44
11
303
21
44
0
LINE
8
top_outsideCutPath
10
303
20
44
11
303
21
62
0
LINE
8
top_outsideCutPath
10
303
20
62
11
306
21
62
0
LINE
8
top_outsideCutPath
10
306
20
62
11
306
21
80
0
LINE
8
top_outsideCutPath
10
306
20
80
11
303
21
80
0
LINE
8
top_outsideCutPath
10
303
20
80
11
303
21
98
0
LINE
8
top_outsideCutPath
10
303
20
98
11
303
21
100
0
LINE
8
top_outsideCutPath
10
303
20
100
11
283
21
100
0
LINE
8
top_outsideCutPath
10
283
20
100
11
283
21
103
0
LINE
8
top_outsideCutPath
10
283
20
103
11
265
21
103
0
LINE
8
top_outsideCutPath
10
265
20
103
11
265
21
100
0
LINE
8
top_outsideCutPath
10
265
20
100
11
247
21
100
0
LINE
8
top_outsideCutPath
10
247
20
100
11
247
21
103
0
LINE
8
top_outsideCutPath
10
247
20
103
11
229
21
103
0
LINE
8
top_outsideCutPath
10
229
20
103
11
229
21
100
0
LINE
8
top_outsideCutPath
10
229
20
100
11
211
21
100
0
LINE
8
top_outsideCutPath
10
211
20
100
11
209
21
100
0
LINE
8
top_labelLayer
10
247.3475735
20
50.1484375
11
247.3475735
21
48.9082031
0
LINE
8
top_labelLayer
10
242.542886
20
51.8867188
11
242.542886
21
58.2539063
0
LINE
8
top_labelLayer
10
242.542886
20
58.2539063
11
241.0096829
21
58.2539063
0
LINE
8
top_labelLayer
10
241.0096829
20
58.2539063
11
241.0096829
21
59.0351563
0
LINE
8
top_labelLayer
10
241.0096829
20
59.0351563
11
242.542886
21
59.7089844
0
LINE
8
top_labelLayer
10
242.542886
20
59.7089844
11
243.2264798
21
61.9941406
0
LINE
8
top_labelLayer
10
243.2264798
20
61.9941406
11
244.1639798
21
61.9941406
0
LINE
8
top_labelLayer
10
244.1639798
20
61.9941406
11
244.1639798
21
59.5136719
0
LINE
8
top_labelLayer
10
244.1639798
20
59.5136719
11
247.2694485
21
59.5136719
0
LINE
8
top_labelLayer
10
247.2694485
20
59.5136719
11
247.2694485
21
58.2539063
0
LINE
8
top_labelLayer
10
247.2694485
20
58.2539063
11
244.1639798
21
58.2539063
0
LINE
8
top_labelLayer
10
244.1639798
20
58.2539063
11
244.1639798
21
51.9550781
0
ARC
8
top_labelLayer
10
245.8938484
20
55.2770078
40
5.3238944
50
269.8803417
51
278.3028182
0
ARC
8
top_labelLayer
10
245.943495
20
54.869655
40
4.9136514
50
278.4158959
51
279.0076561
0
ARC
8
top_labelLayer
10
245.3471449
20
58.6792037
40
8.7695902
50
278.9589695
51
280.5103918
0
ARC
8
top_labelLayer
10
245.9164809
20
55.6243378
40
5.6621249
50
280.4847522
51
282.6268451
0
ARC
8
top_labelLayer
10
246.4157705
20
53.406163
40
3.3884538
50
282.5876165
51
285.5795336
0
ARC
8
top_labelLayer
10
246.6674299
20
52.4808945
40
2.429599
50
285.7231888
51
286.2566654
0
ARC
8
top_labelLayer
10
246.6660201
20
50.3497279
40
1.5945246
50
287.9888406
51
295.3048016
0
ARC
8
top_labelLayer
10
246.2814255
20
51.5133093
40
2.8200086
50
283.3069861
51
288.1197567
0
ARC
8
top_labelLayer
10
245.8751717
20
53.2079225
40
4.5626327
50
280.0069961
51
283.3735389
0
ARC
8
top_labelLayer
10
245.6033638
20
54.6830066
40
6.0625179
50
279.1862135
51
280.1142603
0
ARC
8
top_labelLayer
10
245.4364836
20
55.6321546
40
7.0261467
50
275.5260122
51
279.2939725
0
ARC
8
top_labelLayer
10
245.6245034
20
53.6682421
40
5.0532558
50
270.8932457
51
275.5483966
0
ARC
8
top_labelLayer
10
245.6481112
20
52.7711068
40
4.1558726
50
270.0033586
51
270.7606301
0
ARC
8
top_labelLayer
10
245.5829386
20
52.8487868
40
4.2340578
50
253.784789
51
270.8852547
0
ARC
8
top_labelLayer
10
245.0813155
20
51.138062
40
2.4513133
50
190.3817699
51
253.8772374
0
ARC
8
top_labelLayer
10
247.6380868
20
51.8293671
40
5.0955236
50
179.3551054
51
192.8477577
0
ARC
8
top_labelLayer
10
247.4282791
20
51.9346632
40
3.2643631
50
179.6416773
51
189.7505556
0
ARC
8
top_labelLayer
10
246.275889
20
51.729123
40
2.093823
50
189.5479676
51
205.7873396
0
ARC
8
top_labelLayer
10
245.8023032
20
51.5107376
40
1.5724225
50
206.1294051
51
221.408398
0
ARC
8
top_labelLayer
10
245.7492047
20
51.4704474
40
1.505957
50
221.5949091
51
262.3505289
0
ARC
8
top_labelLayer
10
245.8754961
20
52.1198857
40
2.1667729
50
261.3266216
51
270.1912791
0
ARC
8
top_labelLayer
10
250.3510966
20
54.1154251
40
8.3736204
50
349.1761945
51
0.3862568
0
ARC
8
top_labelLayer
10
253.1703018
20
53.5534117
40
5.4990771
50
330.2507047
51
349.4116462
0
ARC
8
top_labelLayer
10
254.0379102
20
53.1024625
40
4.5222197
50
318.143971
51
329.7566252
0
ARC
8
top_labelLayer
10
254.1944985
20
52.9769728
40
4.3218687
50
278.8959183
51
317.9979086
0
ARC
8
top_labelLayer
10
253.7910253
20
54.9100479
40
6.2948732
50
269.7502763
51
279.8033236
0
ARC
8
top_labelLayer
10
253.7255892
20
53.8208856
40
5.2057899
50
253.5436962
51
270.418238
0
ARC
8
top_labelLayer
10
253.5522954
20
53.1505461
40
4.5138811
50
238.8115441
51
253.242846
0
ARC
8
top_labelLayer
10
253.4963705
20
53.0380827
40
4.3887236
50
207.7946962
51
238.6757996
0
ARC
8
top_labelLayer
10
254.2988576
20
53.5295671
40
5.328149
50
205.6559791
51
208.4461025
0
ARC
8
top_labelLayer
10
254.9170109
20
53.7871364
40
5.9969824
50
188.9102503
51
205.3171481
0
ARC
8
top_labelLayer
10
257.000162
20
54.1399534
40
8.1096824
50
179.7744696
51
189.0932788
0
ARC
8
top_labelLayer
10
257.3074511
20
54.2288855
40
8.4171018
50
169.244298
51
180.388077
0
ARC
8
top_labelLayer
10
254.4490727
20
54.7938822
40
5.5035418
50
150.7111564
51
169.4695354
0
ARC
8
top_labelLayer
10
253.5365975
20
55.262468
40
4.4786339
50
138.175962
51
150.2287147
0
ARC
8
top_labelLayer
10
253.3847993
20
55.3789555
40
4.2878596
50
99.175935
51
137.9832793
0
ARC
8
top_labelLayer
10
253.8025691
20
53.4128875
40
6.2961655
50
89.7326434
51
100.0759878
0
ARC
8
top_labelLayer
10
253.8860651
20
54.2619676
40
5.4472856
50
73.5222665
51
90.5692191
0
ARC
8
top_labelLayer
10
254.2055159
20
55.422616
40
4.2437569
50
41.1445735
51
73.2133783
0
ARC
8
top_labelLayer
10
253.5957123
20
54.8984982
40
5.047824
50
13.5014302
51
41.0703483
0
ARC
8
top_labelLayer
10
251.2397225
20
54.2819675
40
7.4828084
50
1.1277281
51
13.8799962
0
ARC
8
top_labelLayer
10
249.2104564
20
54.1732273
40
9.5140701
50
359.991856
51
1.5419431
0
ARC
8
top_labelLayer
10
258.7793106
20
54.1297462
40
8.2091889
50
179.7059623
51
187.9160759
0
ARC
8
top_labelLayer
10
255.7684371
20
53.6972383
40
5.1674586
50
187.7639332
51
200.097688
0
ARC
8
top_labelLayer
10
254.1097575
20
53.0894957
40
3.4009457
50
200.0845876
51
216.9131503
0
ARC
8
top_labelLayer
10
253.504065
20
52.6570034
40
2.6569704
50
217.300954
51
261.7099073
0
ARC
8
top_labelLayer
10
253.7852464
20
53.9987696
40
4.0261509
50
260.5033133
51
270.2476938
0
ARC
8
top_labelLayer
10
253.8389168
20
53.7378676
40
3.765386
50
269.4481646
51
284.7255643
0
ARC
8
top_labelLayer
10
254.137
20
52.6323715
40
2.620441
50
284.566235
51
322.6333878
0
ARC
8
top_labelLayer
10
253.4400664
20
53.1358752
40
3.4799996
50
323.0089266
51
342.6390508
0
ARC
8
top_labelLayer
10
251.4466813
20
53.7873708
40
5.5770392
50
342.3615704
51
353.7537499
0
ARC
8
top_labelLayer
10
248.5057559
20
54.1418582
40
8.539136
50
353.5363189
51
0.2014064
0
ARC
8
top_labelLayer
10
248.9563952
20
54.2131599
40
8.0885493
50
359.7075543
51
7.8972827
0
ARC
8
top_labelLayer
10
251.9186297
20
54.6378247
40
5.0960791
50
7.7440005
51
20.0690174
0
ARC
8
top_labelLayer
10
253.5693221
20
55.2435663
40
3.3377565
50
20.0257107
51
37.4350558
0
ARC
8
top_labelLayer
10
254.1170072
20
55.6321958
40
2.6667491
50
37.9577645
51
80.400615
0
ARC
8
top_labelLayer
10
253.8057766
20
54.2435122
40
4.0885816
50
79.345353
51
90.3174962
0
ARC
8
top_labelLayer
10
253.7481461
20
54.4741811
40
3.8580087
50
89.4805853
51
103.8805168
0
ARC
8
top_labelLayer
10
253.4239739
20
55.708624
40
2.5819124
50
103.4685218
51
142.3118841
0
ARC
8
top_labelLayer
10
254.0541869
20
55.2654126
40
3.3517727
50
142.9025565
51
162.3749748
0
ARC
8
top_labelLayer
10
256.0400028
20
54.6036421
40
5.4448258
50
162.0652994
51
173.1674849
0
ARC
8
top_labelLayer
10
259.1364242
20
54.2087102
40
8.5662738
50
173.0086063
51
180.2463739
0
LINE
8
top_labelLayer
10
263.1874173
20
50.1875
11
263.0702298
21
50.1875
0
LINE
8
top_labelLayer
10
263.1874173
20
48.4101563
11
263.1874173
21
44.0058594
0
LINE
8
top_labelLayer
10
263.1874173
20
44.0058594
11
261.5663235
21
44.0058594
0
LINE
8
top_labelLayer
10
261.5663235
20
44.0058594
11
261.5663235
21
59.5136719
0
LINE
8
top_labelLayer
10
261.5663235
20
59.5136719
11
262.8846829
21
59.5136719
0
LINE
8
top_labelLayer
10
262.8846829
20
59.5136719
11
263.1092923
21
58.0488281
0
LINE
8
top_labelLayer
10
263.1092923
20
58.0488281
11
263.1874173
21
58.0488281
0
LINE
8
top_labelLayer
10
263.1874173
20
54.5332031
11
263.1874173
21
54.171875
0
ARC
8
top_labelLayer
10
266.5194555
20
53.5322906
40
4.9171322
50
255.7755416
51
270.3185374
0
ARC
8
top_labelLayer
10
266.3791398
20
52.908873
40
4.2783843
50
245.9801859
51
255.5455587
0
ARC
8
top_labelLayer
10
266.1073457
20
52.2768094
40
3.5904312
50
215.5850261
51
245.8361642
0
ARC
8
top_labelLayer
10
247.8496184
20
48.2641304
40
15.3416545
50
2.9503421
51
7.202072
0
ARC
8
top_labelLayer
10
250.332012
20
48.40302
40
12.8554072
50
0.031806
51
2.9016028
0
ARC
8
top_labelLayer
10
266.7583614
20
55.5409501
40
4.3636102
50
132.3565004
51
144.9195899
0
ARC
8
top_labelLayer
10
266.0898956
20
56.2702259
40
3.3743272
50
115.4006137
51
132.3118294
0
ARC
8
top_labelLayer
10
266.3506412
20
55.6354714
40
4.0597322
50
97.7066187
51
114.8821564
0
ARC
8
top_labelLayer
10
266.5327473
20
54.4544376
40
5.2545656
50
89.8468529
51
97.9474213
0
ARC
8
top_labelLayer
10
266.5969639
20
54.7401623
40
4.9690754
50
74.1923688
51
90.5785123
0
ARC
8
top_labelLayer
10
266.9407955
20
55.9900687
40
3.6727883
50
38.0523474
51
74.0417263
0
ARC
8
top_labelLayer
10
265.9924523
20
55.2632035
40
4.8676005
50
16.3355866
51
37.9090671
0
ARC
8
top_labelLayer
10
263.5011028
20
54.4958519
40
7.4742887
50
4.5766667
51
16.6088732
0
ARC
8
top_labelLayer
10
260.4339674
20
54.1902386
40
10.5562
50
359.9003283
51
4.9018032
0
ARC
8
top_labelLayer
10
261.4854532
20
54.1157999
40
9.5048639
50
350.6562881
51
0.3380252
0
ARC
8
top_labelLayer
10
264.7990067
20
53.5522029
40
6.1437972
50
335.8306022
51
350.8254751
0
ARC
8
top_labelLayer
10
266.2565903
20
52.9230886
40
4.5564622
50
321.3161305
51
335.5436301
0
ARC
8
top_labelLayer
10
266.8138206
20
52.4690289
40
3.8376919
50
274.0640061
51
321.4081015
0
ARC
8
top_labelLayer
10
266.5542201
20
54.1134411
40
5.4982118
50
269.9225965
51
275.5481661
0
ARC
8
top_labelLayer
10
266.2790286
20
53.661148
40
4.6710026
50
89.5904412
51
100.3501858
0
ARC
8
top_labelLayer
10
265.9459497
20
55.410941
40
2.8898705
50
100.0868045
51
118.1918041
0
ARC
8
top_labelLayer
10
265.604742
20
56.0764072
40
2.1421965
50
118.5569486
51
141.0243277
0
ARC
8
top_labelLayer
10
266.1246775
20
55.7096532
40
2.7774022
50
141.8890381
51
160.5973074
0
ARC
8
top_labelLayer
10
267.9519315
20
55.0391792
40
4.7236842
50
160.289556
51
171.245311
0
ARC
8
top_labelLayer
10
270.9562922
20
54.5547776
40
7.7667989
50
171.0868428
51
178.3247594
0
ARC
8
top_labelLayer
10
273.5032069
20
54.4337124
40
10.3162694
50
178.0661888
51
179.4474273
0
ARC
8
top_labelLayer
10
273.9058937
20
54.1300209
40
10.7185581
50
179.7762696
51
185.7075172
0
ARC
8
top_labelLayer
10
269.6799083
20
53.694594
40
6.4702325
50
185.5924625
51
194.2050865
0
ARC
8
top_labelLayer
10
266.9728414
20
52.9920131
40
3.6735677
50
193.9430285
51
208.0218386
0
ARC
8
top_labelLayer
10
265.8775461
20
52.4348052
40
2.4449999
50
208.5536273
51
217.560509
0
ARC
8
top_labelLayer
10
265.788309
20
52.3976906
40
2.3517682
50
218.1690497
51
253.8047105
0
ARC
8
top_labelLayer
10
266.2245143
20
53.7425551
40
3.7651815
50
253.1382373
51
266.8483309
0
ARC
8
top_labelLayer
10
266.3468354
20
55.1850928
40
5.2124386
50
266.3775722
51
270.0510514
0
ARC
8
top_labelLayer
10
266.3883921
20
52.7038905
40
2.7314836
50
269.2257021
51
292.0430264
0
ARC
8
top_labelLayer
10
266.4252482
20
52.4842507
40
2.5145302
50
293.1429539
51
324.135392
0
ARC
8
top_labelLayer
10
265.8777746
20
52.9477804
40
3.2302402
50
323.1616244
51
325.0154265
0
ARC
8
top_labelLayer
10
265.2913299
20
53.311426
40
3.9194038
50
325.5753872
51
344.1504659
0
ARC
8
top_labelLayer
10
263.263118
20
53.9109845
40
6.0342975
50
343.9336407
51
355.1137379
0
ARC
8
top_labelLayer
10
260.6740804
20
54.1736979
40
8.6364019
50
354.8402115
51
0.1174814
0
ARC
8
top_labelLayer
10
261.1300398
20
54.2326931
40
8.1805286
50
359.7108288
51
7.8610328
0
ARC
8
top_labelLayer
10
264.1044857
20
54.6566914
40
5.1760604
50
7.7149579
51
19.885974
0
ARC
8
top_labelLayer
10
265.7403486
20
55.2475738
40
3.4367535
50
19.8991246
51
35.8980299
0
ARC
8
top_labelLayer
10
266.4700119
20
55.8001656
40
2.5217497
50
35.4481683
51
85.2266505
0
ARC
8
top_labelLayer
10
266.3175785
20
54.8442295
40
3.4878056
50
84.0379224
51
90.084786
0
LINE
8
back_outsideCutPath
10
0
20
306
11
0
21
276
0
LINE
8
back_outsideCutPath
10
0
20
276
11
3
21
276
0
LINE
8
back_outsideCutPath
10
3
20
276
11
3
21
258
0
LINE
8
back_outsideCutPath
10
3
20
258
11
0
21
258
0
LINE
8
back_outsideCutPath
10
0
20
258
11
0
21
240
0
LINE
8
back_outsideCutPath
10
0
20
240
11
3
21
240
0
LINE
8
back_outsideCutPath
10
3
20
240
11
3
21
222
0
LINE
8
back_outsideCutPath
10
3
20
222
11
0
21
222
0
LINE
8
back_outsideCutPath
10
0
20
222
11
0
21
204
0
LINE
8
back_outsideCutPath
10
0
20
204
11
3
21
204
0
LINE
8
back_outsideCutPath
10
3
20
204
11
3
21
186
0
LINE
8
back_outsideCutPath
10
3
20
186
11
0
21
186
0
LINE
8
back_outsideCutPath
10
0
20
186
11
0
21
168
0
LINE
8
back_outsideCutPath
10
0
20
168
11
0
21
156
0
LINE
8
back_outsideCutPath
10
0
20
156
11
23
21
156
0
LINE
8
back_outsideCutPath
10
23
20
156
11
23
21
159
0
LINE
8
back_outsideCutPath
10
23
20
159
11
41
21
159
0
LINE
8
back_outsideCutPath
10
41
20
159
11
41
21
156
0
LINE
8
back_outsideCutPath
10
41
20
156
11
59
21
156
0
LINE
8
back_outsideCutPath
10
59
20
156
11
59
21
159
0
LINE
8
back_outsideCutPath
10
59
20
159
11
77
21
159
0
LINE
8
back_outsideCutPath
10
77
20
159
11
77
21
156
0
LINE
8
back_outsideCutPath
10
77
20
156
11
95
21
156
0
LINE
8
back_outsideCutPath
10
95
20
156
11
100
21
156
0
LINE
8
back_outsideCutPath
10
100
20
156
11
100
21
186
0
LINE
8
back_outsideCutPath
10
100
20
186
11
97
21
186
0
LINE
8
back_outsideCutPath
10
97
20
186
11
97
21
204
0
LINE
8
back_outsideCutPath
10
97
20
204
11
100
21
204
0
LINE
8
back_outsideCutPath
10
100
20
204
11
100
21
222
0
LINE
8
back_outsideCutPath
10
100
20
222
11
97
21
222
0
LINE
8
back_outsideCutPath
10
97
20
222
11
97
21
240
0
LINE
8
back_outsideCutPath
10
97
20
240
11
100
21
240
0
LINE
8
back_outsideCutPath
10
100
20
240
11
100
21
258
0
LINE
8
back_outsideCutPath
10
100
20
258
11
97
21
258
0
LINE
8
back_outsideCutPath
10
97
20
258
11
97
21
276
0
LINE
8
back_outsideCutPath
10
97
20
276
11
100
21
276
0
LINE
8
back_outsideCutPath
10
100
20
276
11
100
21
294
0
LINE
8
back_outsideCutPath
10
100
20
294
11
100
21
306
0
LINE
8
back_outsideCutPath
10
100
20
306
11
77
21
306
0
LINE
8
back_outsideCutPath
10
77
20
306
11
77
21
303
0
LINE
8
back_outsideCutPath
10
77
20
303
11
59
21
303
0
LINE
8
back_outsideCutPath
10
59
20
303
11
59
21
306
0
LINE
8
back_outsideCutPath
10
59
20
306
11
41
21
306
0
LINE
8
back_outsideCutPath
10
41
20
306
11
41
21
303
0
LINE
8
back_outsideCutPath
10
41
20
303
11
23
21
303
0
LINE
8
back_outsideCutPath
10
23
20
303
11
23
21
306
0
LINE
8
back_outsideCutPath
10
23
20
306
11
5
21
306
0
LINE
8
back_outsideCutPath
10
5
20
306
11
0
21
306
0
LINE
8
back_labelLayer
10
30.8886719
20
224.8770634
11
30.7714844
21
224.8770634
0
LINE
8
back_labelLayer
10
30.7714844
20
224.8770634
11
30.4296875
21
223.5001103
0
LINE
8
back_labelLayer
10
30.4296875
20
223.5001103
11
29.2675781
21
223.5001103
0
LINE
8
back_labelLayer
10
29.2675781
20
223.5001103
11
29.2675781
21
238.6954228
0
LINE
8
back_labelLayer
10
29.2675781
20
238.6954228
11
30.8886719
21
238.6954228
0
LINE
8
back_labelLayer
10
30.8886719
20
238.6954228
11
30.8886719
21
235.0040166
0
LINE
8
back_labelLayer
10
30.8105469
20
232.7774541
11
30.8886719
21
232.7774541
0
ARC
8
back_labelLayer
10
34.2966775
20
229.4246287
40
4.9546266
50
74.2393364
51
90.5623784
0
ARC
8
back_labelLayer
10
34.6242936
20
230.6265047
40
3.7089652
50
38.563135
51
74.0670337
0
ARC
8
back_labelLayer
10
33.7811887
20
229.9709425
40
4.776887
50
16.4709282
51
38.4075249
0
ARC
8
back_labelLayer
10
31.3523335
20
229.2093236
40
7.3221308
50
5.1338483
51
16.7973468
0
ARC
8
back_labelLayer
10
28.2860763
20
228.8836053
40
10.4053536
50
359.8779407
51
5.4093585
0
ARC
8
back_labelLayer
10
29.1867078
20
228.8053634
40
9.5048639
50
350.6562881
51
0.3380252
0
ARC
8
back_labelLayer
10
32.5002613
20
228.2417664
40
6.1437972
50
335.8306022
51
350.8254751
0
ARC
8
back_labelLayer
10
33.9578448
20
227.6126521
40
4.5564622
50
321.3161305
51
335.5436301
0
ARC
8
back_labelLayer
10
34.5150752
20
227.1585923
40
3.8376919
50
274.0640061
51
321.4081015
0
ARC
8
back_labelLayer
10
34.2554747
20
228.8030045
40
5.4982118
50
269.9225965
51
275.5481661
0
ARC
8
back_labelLayer
10
34.2207101
20
228.2218541
40
4.9171322
50
255.7755416
51
270.3185374
0
ARC
8
back_labelLayer
10
34.0803944
20
227.5984365
40
4.2783843
50
245.9801859
51
255.5455587
0
ARC
8
back_labelLayer
10
33.8086003
20
226.9663728
40
3.5904312
50
215.5850261
51
245.8361642
0
ARC
8
back_labelLayer
10
-2.9099042
20
234.9754433
40
33.7985882
50
358.1123236
51
0.0484378
0
ARC
8
back_labelLayer
10
6.4970011
20
234.6596271
40
24.3863854
50
355.7238501
51
358.1259023
0
ARC
8
back_labelLayer
10
10.6558653
20
234.3737435
40
20.2177974
50
355.4715177
51
355.6529673
0
ARC
8
back_labelLayer
10
33.9119411
20
230.6692469
40
3.6857421
50
95.1835136
51
145.1108959
0
ARC
8
back_labelLayer
10
34.2359053
20
228.8423621
40
5.5366677
50
89.8743539
51
96.8145168
0
ARC
8
back_labelLayer
10
33.9797325
20
228.4663119
40
4.5554093
50
89.5731223
51
100.7324143
0
ARC
8
back_labelLayer
10
33.6425047
20
230.1701038
40
2.8186562
50
100.4469271
51
119.6700806
0
ARC
8
back_labelLayer
10
33.3297942
20
230.7547523
40
2.1559401
50
120.1402874
51
142.4248999
0
ARC
8
back_labelLayer
10
33.847151
20
230.4125044
40
2.7750293
50
143.3382417
51
161.2559929
0
ARC
8
back_labelLayer
10
36.0106157
20
229.6444
40
5.070677
50
160.8926193
51
171.2334482
0
ARC
8
back_labelLayer
10
39.6223319
20
229.061745
40
8.7290381
50
171.0667895
51
177.8456849
0
ARC
8
back_labelLayer
10
43.3782991
20
228.870715
40
12.4896305
50
177.6176676
51
180.042556
0
ARC
8
back_labelLayer
10
41.6071483
20
228.8195844
40
10.7185581
50
179.7762696
51
185.7075172
0
ARC
8
back_labelLayer
10
37.3811629
20
228.3841575
40
6.4702325
50
185.5924625
51
194.2050865
0
ARC
8
back_labelLayer
10
34.6740959
20
227.6815766
40
3.6735677
50
193.9430285
51
208.0218386
0
ARC
8
back_labelLayer
10
33.5788007
20
227.1243686
40
2.4449999
50
208.5536273
51
217.560509
0
ARC
8
back_labelLayer
10
33.4895636
20
227.087254
40
2.3517682
50
218.1690497
51
253.8047105
0
ARC
8
back_labelLayer
10
33.9257689
20
228.4321185
40
3.7651815
50
253.1382373
51
266.8483309
0
ARC
8
back_labelLayer
10
34.04809
20
229.8746562
40
5.2124386
50
266.3775722
51
270.0510514
0
ARC
8
back_labelLayer
10
34.0873142
20
227.8936739
40
3.2316392
50
269.3869014
51
285.8630523
0
ARC
8
back_labelLayer
10
34.3274047
20
227.0259509
40
2.3313432
50
286.0162899
51
326.849735
0
ARC
8
back_labelLayer
10
33.1686045
20
227.7936133
40
3.7213332
50
326.7105084
51
343.6661789
0
ARC
8
back_labelLayer
10
30.9993961
20
228.4564532
40
5.9894605
50
343.4171354
51
353.6369032
0
ARC
8
back_labelLayer
10
27.7230414
20
228.8452135
40
9.288746
50
353.4934852
51
0.2205553
0
ARC
8
back_labelLayer
10
27.434222
20
228.9197357
40
9.5775752
50
359.7680902
51
6.3095251
0
ARC
8
back_labelLayer
10
31.0419156
20
229.3337409
40
5.9462546
50
6.1648601
51
16.0396518
0
ARC
8
back_labelLayer
10
33.3659209
20
230.0186273
40
3.5235221
50
15.7779193
51
32.0151484
0
ARC
8
back_labelLayer
10
34.0904845
20
230.4335481
40
2.6893853
50
32.70347
51
35.5241319
0
ARC
8
back_labelLayer
10
34.3556744
20
230.6220279
40
2.3640397
50
35.5408356
51
79.8011276
0
ARC
8
back_labelLayer
10
34.0382087
20
229.2724222
40
3.7492528
50
78.6781247
51
90.3749718
0
LINE
8
back_labelLayer
10
49.3066406
20
223.5001103
11
48.1054688
21
223.5001103
0
LINE
8
back_labelLayer
10
48.1054688
20
223.5001103
11
47.7832031
21
225.0235478
0
LINE
8
back_labelLayer
10
47.7832031
20
225.0235478
11
47.7050781
21
225.0235478
0
LINE
8
back_labelLayer
10
45.9082031
20
229.8575322
11
47.7246094
21
229.9161259
0
LINE
8
back_labelLayer
10
47.7246094
20
229.9161259
11
47.7246094
21
230.5801884
0
LINE
8
back_labelLayer
10
42.421875
20
232.2208134
11
41.9238281
21
233.4610478
0
LINE
8
back_labelLayer
10
49.3066406
20
230.8047978
11
49.3066406
21
223.5001103
0
LINE
8
back_labelLayer
10
47.6855469
20
227.7969853
11
47.6855469
21
228.7637822
0
LINE
8
back_labelLayer
10
47.6855469
20
228.7637822
11
46.0644531
21
228.6954228
0
ARC
8
back_labelLayer
10
42.4306644
20
229.1879571
40
6.7202489
50
314.7445074
51
321.7071704
0
ARC
8
back_labelLayer
10
44.0817415
20
227.5103331
40
4.3664493
50
304.8485428
51
314.8530978
0
ARC
8
back_labelLayer
10
44.8748672
20
226.3813971
40
2.986777
50
294.3932694
51
304.7371559
0
ARC
8
back_labelLayer
10
44.6038997
20
227.0834926
40
3.7383563
50
281.2979431
51
293.7313825
0
ARC
8
back_labelLayer
10
44.2456914
20
228.8195485
40
5.5109586
50
272.9335174
51
281.4139131
0
ARC
8
back_labelLayer
10
44.1269653
20
230.6000298
40
7.2952343
50
269.9538855
51
273.1491107
0
ARC
8
back_labelLayer
10
44.0859498
20
228.279584
40
4.9749103
50
258.6719639
51
270.4047542
0
ARC
8
back_labelLayer
10
43.7403872
20
226.6265524
40
3.2862349
50
238.3273137
51
258.9183621
0
ARC
8
back_labelLayer
10
43.5022473
20
226.1920954
40
2.7915621
50
227.7689348
51
237.8050187
0
ARC
8
back_labelLayer
10
43.4277627
20
226.0881164
40
2.6645499
50
192.0827618
51
227.4520837
0
ARC
8
back_labelLayer
10
44.8014924
20
226.4267548
40
4.0789644
50
179.5457285
51
192.694943
0
ARC
8
back_labelLayer
10
43.5253096
20
226.5744445
40
2.8050261
50
115.4904649
51
182.3568121
0
ARC
8
back_labelLayer
10
44.9300973
20
223.9977752
40
5.7376476
50
101.3568205
51
117.0798671
0
ARC
8
back_labelLayer
10
46.0582719
20
218.7257077
40
11.1288529
50
92.4696269
51
101.7064866
0
ARC
8
back_labelLayer
10
46.3824904
20
214.03036
40
15.8342771
50
91.7164487
51
92.9096216
0
ARC
8
back_labelLayer
10
43.0684989
20
230.60511
40
4.6561772
50
359.693331
51
8.0035628
0
ARC
8
back_labelLayer
10
44.8298384
20
230.8616989
40
2.8762816
50
7.8272679
51
20.6041502
0
ARC
8
back_labelLayer
10
45.8265519
20
231.24299
40
1.8091542
50
20.4094277
51
41.4479322
0
ARC
8
back_labelLayer
10
45.9738197
20
231.3239384
40
1.6455973
50
42.729564
51
71.0380389
0
ARC
8
back_labelLayer
10
45.627111
20
230.3812322
40
2.6498947
50
70.5716248
51
83.9928856
0
ARC
8
back_labelLayer
10
45.4614756
20
229.035819
40
4.0053257
50
83.6506279
51
90.1753328
0
ARC
8
back_labelLayer
10
45.4905285
20
227.7633669
40
5.2779207
50
90.4484524
51
103.7665593
0
ARC
8
back_labelLayer
10
46.1111829
20
225.1460332
40
7.9677873
50
103.6226473
51
112.4320058
0
ARC
8
back_labelLayer
10
47.1750748
20
222.4597886
40
10.8568188
50
112.2122283
51
115.9640928
0
ARC
8
back_labelLayer
10
45.4713502
20
226.8822077
40
7.4743595
50
106.3568646
51
118.3349734
0
ARC
8
back_labelLayer
10
45.7896822
20
225.8988828
40
8.5075819
50
104.5161895
51
106.5489699
0
ARC
8
back_labelLayer
10
45.5562371
20
226.8715425
40
7.5074799
50
90.0714502
51
104.652096
0
ARC
8
back_labelLayer
10
45.5856983
20
227.5325074
40
6.8466192
50
81.5679788
51
90.3248934
0
ARC
8
back_labelLayer
10
45.9815605
20
230.1114421
40
4.2375352
50
68.2273377
51
81.7494148
0
ARC
8
back_labelLayer
10
46.5329279
20
231.4832925
40
2.7590347
50
47.8683409
51
68.2933994
0
ARC
8
back_labelLayer
10
46.6224197
20
231.6619777
40
2.567044
50
19.2330911
51
46.6741267
0
ARC
8
back_labelLayer
10
45.1316912
20
231.1074223
40
4.157374
50
6.3379111
51
19.6815496
0
ARC
8
back_labelLayer
10
42.9280519
20
230.8267669
40
6.3786266
50
359.8026633
51
6.658371
0
ARC
8
back_labelLayer
10
44.4761385
20
229.1059151
40
4.4633471
50
269.5792127
51
282.0413547
0
ARC
8
back_labelLayer
10
44.8017091
20
227.6618203
40
2.9831557
50
281.7120864
51
306.4593916
0
ARC
8
back_labelLayer
10
44.9460938
20
227.4243809
40
2.7065025
50
306.9880823
51
313.8559907
0
ARC
8
back_labelLayer
10
44.9288957
20
227.419491
40
2.7149381
50
314.1892061
51
347.4269792
0
ARC
8
back_labelLayer
10
43.5689102
20
227.7602966
40
4.1166607
50
346.9177645
51
0.2824482
0
ARC
8
back_labelLayer
10
42.5226294
20
227.7970382
40
5.1629176
50
359.817467
51
359.9994127
0
ARC
8
back_labelLayer
10
46.4500662
20
216.7985913
40
11.9030793
50
91.8564832
51
96.4478262
0
ARC
8
back_labelLayer
10
45.9132738
20
221.4436288
40
7.2271525
50
96.3545423
51
102.9953068
0
ARC
8
back_labelLayer
10
45.184616
20
224.5394904
40
4.0467499
50
102.7995585
51
113.24332
0
ARC
8
back_labelLayer
10
44.5839333
20
225.9760909
40
2.4897418
50
113.5886443
51
121.680458
0
ARC
8
back_labelLayer
10
44.1665917
20
226.6116959
40
1.7297996
50
120.9734105
51
172.4179761
0
ARC
8
back_labelLayer
10
44.9823049
20
226.4487613
40
2.5604465
50
171.2121897
51
180.2058228
0
ARC
8
back_labelLayer
10
44.7385229
20
226.4204208
40
2.316727
50
179.5265724
51
192.7787214
0
ARC
8
back_labelLayer
10
43.9548163
20
226.2304473
40
1.510459
50
192.326445
51
222.0579919
0
ARC
8
back_labelLayer
10
43.8965274
20
226.19559
40
1.4438911
50
222.5804588
51
229.2546163
0
ARC
8
back_labelLayer
10
44.0935082
20
226.4492005
40
1.7646752
50
229.7836963
51
254.2724368
0
ARC
8
back_labelLayer
10
44.3558684
20
227.3234906
40
2.6773946
50
253.9396744
51
266.4533722
0
ARC
8
back_labelLayer
10
44.4396009
20
228.2885805
40
3.6458941
50
266.0782346
51
270.0590643
0
LINE
8
back_labelLayer
10
59.7851563
20
233.8419072
11
59.2871094
21
232.4649541
0
LINE
8
back_labelLayer
10
59.6289063
20
225.2969853
11
59.6289063
21
223.8614384
0
ARC
8
back_labelLayer
10
56.8721212
20
229.3632527
40
6.0586755
50
256.4243755
51
270.4889884
0
ARC
8
back_labelLayer
10
56.3879769
20
227.4736772
40
4.1083396
50
221.7976345
51
256.8020472
0
ARC
8
back_labelLayer
10
56.8568144
20
227.8200827
40
4.6890531
50
196.0166575
51
221.1349271
0
ARC
8
back_labelLayer
10
59.2131655
20
228.5403047
40
7.1527796
50
183.591376
51
196.3539497
0
ARC
8
back_labelLayer
10
61.8527904
20
228.7728497
40
9.8020146
50
179.9388361
51
183.9815029
0
ARC
8
back_labelLayer
10
60.9951545
20
228.8409023
40
8.9445587
50
169.897846
51
180.3688969
0
ARC
8
back_labelLayer
10
57.8813448
20
229.4169111
40
5.7780272
50
153.0875059
51
170.1051419
0
ARC
8
back_labelLayer
10
56.6999074
20
229.9814342
40
4.4691314
50
138.6550063
51
152.6853485
0
ARC
8
back_labelLayer
10
56.479401
20
230.1421245
40
4.1975112
50
101.491292
51
138.3133869
0
ARC
8
back_labelLayer
10
56.9856242
20
228.0352793
40
6.3634321
50
89.5891859
51
102.1787782
0
ARC
8
back_labelLayer
10
57.0245506
20
227.0830162
40
7.3155347
50
77.7702363
51
89.9475301
0
ARC
8
back_labelLayer
10
56.886083
20
226.31911
40
8.0914803
50
74.6797009
51
77.9578473
0
ARC
8
back_labelLayer
10
57.6340573
20
229.0288783
40
5.2803836
50
70.094526
51
74.7386567
0
ARC
8
back_labelLayer
10
58.3454669
20
230.9784898
40
3.2050414
50
63.5034027
51
70.1861249
0
ARC
8
back_labelLayer
10
58.6860924
20
231.6915361
40
2.4149612
50
62.9282302
51
63.1884379
0
ARC
8
back_labelLayer
10
56.6240678
20
225.763004
40
7.211652
50
68.3294412
51
74.8831264
0
ARC
8
back_labelLayer
10
56.2436553
20
224.4141402
40
8.6130607
50
74.7801496
51
77.4497675
0
ARC
8
back_labelLayer
10
56.643055
20
226.2888765
40
6.6963547
50
77.2999021
51
81.7345291
0
ARC
8
back_labelLayer
10
56.934401
20
228.3189822
40
4.6454542
50
81.6910151
51
87.507921
0
ARC
8
back_labelLayer
10
56.9906145
20
229.3695998
40
3.5934013
50
87.674992
51
89.9749185
0
ARC
8
back_labelLayer
10
56.9118247
20
229.368077
40
3.595822
50
88.7193937
51
112.5667715
0
ARC
8
back_labelLayer
10
56.6563178
20
230.2128493
40
2.7191105
50
114.4265782
51
161.6632806
0
ARC
8
back_labelLayer
10
59.1945379
20
229.2193636
40
5.4429205
50
160.1418489
51
175.1368044
0
ARC
8
back_labelLayer
10
62.6880099
20
228.8270714
40
8.9575739
50
174.5309675
51
180.1549624
0
ARC
8
back_labelLayer
10
61.5812657
20
228.762305
40
7.8509016
50
179.7041402
51
188.0743723
0
ARC
8
back_labelLayer
10
58.7534707
20
228.348568
40
4.9930426
50
187.9315309
51
200.3885334
0
ARC
8
back_labelLayer
10
57.2244558
20
227.7821479
40
3.3624863
50
200.4183568
51
216.6392549
0
ARC
8
back_labelLayer
10
56.5834497
20
227.3239089
40
2.5747147
50
216.9695228
51
261.3103146
0
ARC
8
back_labelLayer
10
56.8663379
20
228.6427794
40
3.9220093
50
260.1359453
51
270.2692071
0
ARC
8
back_labelLayer
10
56.8532793
20
231.5068346
40
6.7860942
50
270.2658436
51
286.2891424
0
ARC
8
back_labelLayer
10
56.4407403
20
233.0453351
40
8.3786232
50
286.0460598
51
292.3653954
0
ARC
8
back_labelLayer
10
57.5393972
20
227.972001
40
4.6111574
50
282.0344333
51
296.9454504
0
ARC
8
back_labelLayer
10
57.0651709
20
230.1091529
40
6.8002402
50
272.5980445
51
282.1878533
0
ARC
8
back_labelLayer
10
56.9291798
20
232.1947576
40
8.8899615
50
269.9655087
51
272.8643089
0
LINE
8
back_labelLayer
10
63.6914063
20
228.9786259
11
63.7695313
21
228.9786259
0
LINE
8
back_labelLayer
10
65.0488281
20
230.5411259
11
68.5058594
21
234.2032353
0
LINE
8
back_labelLayer
10
68.5058594
20
234.2032353
11
70.4296875
21
234.2032353
0
LINE
8
back_labelLayer
10
70.4296875
20
234.2032353
11
66.09375
21
229.6426884
0
LINE
8
back_labelLayer
10
66.09375
20
229.6426884
11
70.7324219
21
223.5001103
0
LINE
8
back_labelLayer
10
70.7324219
20
223.5001103
11
68.7695313
21
223.5001103
0
LINE
8
back_labelLayer
10
68.7695313
20
223.5001103
11
64.9902344
21
228.5587041
0
LINE
8
back_labelLayer
10
64.9902344
20
228.5587041
11
63.7695313
21
227.5040166
0
LINE
8
back_labelLayer
10
63.7695313
20
227.5040166
11
63.7695313
21
223.5001103
0
LINE
8
back_labelLayer
10
63.7695313
20
223.5001103
11
62.1679688
21
223.5001103
0
LINE
8
back_labelLayer
10
62.1679688
20
223.5001103
11
62.1679688
21
238.6954228
0
LINE
8
back_labelLayer
10
62.1679688
20
238.6954228
11
63.7695313
21
238.6954228
0
LINE
8
back_labelLayer
10
63.7695313
20
238.6954228
11
63.7695313
21
230.6387822
0
ARC
8
back_labelLayer
10
71.6025346
20
223.434094
40
9.5967586
50
142.3233918
51
144.7075212
0
ARC
8
back_labelLayer
10
76.7127593
20
219.492464
40
16.0505045
50
140.4331061
51
142.3365832
0
ARC
8
back_labelLayer
10
83.3726946
20
214.0101636
40
24.6766385
50
139.2798925
51
140.470333
0
ARC
8
back_labelLayer
10
91.073863
20
207.387678
40
34.8336703
50
138.3417705
51
139.2877062
0
ARC
8
back_labelLayer
10
52.9667222
20
230.6590068
40
10.802828
50
358.2738882
51
359.8927332
0
ARC
8
back_labelLayer
10
44.5606473
20
230.8932771
40
19.2121548
50
357.5041933
51
358.3306763
0
ARC
8
back_labelLayer
10
31.9839581
20
231.4487927
40
31.8011053
50
356.6324975
51
357.4910035
0
ARC
8
back_labelLayer
10
11.0766685
20
232.6681531
40
52.7439211
50
356.0329142
51
356.6442762
0
ARC
8
back_labelLayer
10
-3.5248414
20
233.6546298
40
67.378698
50
356.0205403
51
356.0550821
0
LINE
8
right_outsideCutPath
10
106
20
306
11
106
21
276
0
LINE
8
right_outsideCutPath
10
106
20
276
11
103
21
276
0
LINE
8
right_outsideCutPath
10
103
20
276
11
103
21
258
0
LINE
8
right_outsideCutPath
10
103
20
258
11
106
21
258
0
LINE
8
right_outsideCutPath
10
106
20
258
11
106
21
240
0
LINE
8
right_outsideCutPath
10
106
20
240
11
103
21
240
0
LINE
8
right_outsideCutPath
10
103
20
240
11
103
21
222
0
LINE
8
right_outsideCutPath
10
103
20
222
11
106
21
222
0
LINE
8
right_outsideCutPath
10
106
20
222
11
106
21
204
0
LINE
8
right_outsideCutPath
10
106
20
204
11
103
21
204
0
LINE
8
right_outsideCutPath
10
103
20
204
11
103
21
186
0
LINE
8
right_outsideCutPath
10
103
20
186
11
106
21
186
0
LINE
8
right_outsideCutPath
10
106
20
186
11
106
21
168
0
LINE
8
right_outsideCutPath
10
106
20
168
11
106
21
156
0
LINE
8
right_outsideCutPath
10
106
20
156
11
126
21
156
0
LINE
8
right_outsideCutPath
10
126
20
156
11
126
21
159
0
LINE
8
right_outsideCutPath
10
126
20
159
11
144
21
159
0
LINE
8
right_outsideCutPath
10
144
20
159
11
144
21
156
0
LINE
8
right_outsideCutPath
10
144
20
156
11
162
21
156
0
LINE
8
right_outsideCutPath
10
162
20
156
11
162
21
159
0
LINE
8
right_outsideCutPath
10
162
20
159
11
180
21
159
0
LINE
8
right_outsideCutPath
10
180
20
159
11
180
21
156
0
LINE
8
right_outsideCutPath
10
180
20
156
11
198
21
156
0
LINE
8
right_outsideCutPath
10
198
20
156
11
200
21
156
0
LINE
8
right_outsideCutPath
10
200
20
156
11
200
21
186
0
LINE
8
right_outsideCutPath
10
200
20
186
11
203
21
186
0
LINE
8
right_outsideCutPath
10
203
20
186
11
203
21
204
0
LINE
8
right_outsideCutPath
10
203
20
204
11
200
21
204
0
LINE
8
right_outsideCutPath
10
200
20
204
11
200
21
222
0
LINE
8
right_outsideCutPath
10
200
20
222
11
203
21
222
0
LINE
8
right_outsideCutPath
10
203
20
222
11
203
21
240
0
LINE
8
right_outsideCutPath
10
203
20
240
11
200
21
240
0
LINE
8
right_outsideCutPath
10
200
20
240
11
200
21
258
0
LINE
8
right_outsideCutPath
10
200
20
258
11
203
21
258
0
LINE
8
right_outsideCutPath
10
203
20
258
11
203
21
276
0
LINE
8
right_outsideCutPath
10
203
20
276
11
200
21
276
0
LINE
8
right_outsideCutPath
10
200
20
276
11
200
21
294
0
LINE
8
right_outsideCutPath
10
200
20
294
11
200
21
306
0
LINE
8
right_outsideCutPath
10
200
20
306
11
180
21
306
0
LINE
8
right_outsideCutPath
10
180
20
306
11
180
21
303
0
LINE
8
right_outsideCutPath
10
180
20
303
11
162
21
303
0
LINE
8
right_outsideCutPath
10
162
20
303
11
162
21
306
0
LINE
8
right_outsideCutPath
10
162
20
306
11
144
21
306
0
LINE
8
right_outsideCutPath
10
144
20
306
11
144
21
303
0
LINE
8
right_outsideCutPath
10
144
20
303
11
126
21
303
0
LINE
8
right_outsideCutPath
10
126
20
303
11
126
21
306
0
LINE
8
right_outsideCutPath
10
126
20
306
11
108
21
306
0
LINE
8
right_outsideCutPath
10
108
20
306
11
106
21
306
0
LINE
8
right_labelLayer
10
138.4736328
20
236.5859965
11
138.2490234
21
235.0820902
0
LINE
8
right_labelLayer
10
133.9326172
20
231.546934
11
133.9326172
21
225.8047465
0
LINE
8
right_labelLayer
10
133.9326172
20
225.8047465
11
132.3115234
21
225.8047465
0
LINE
8
right_labelLayer
10
132.3115234
20
225.8047465
11
132.3115234
21
236.5078715
0
LINE
8
right_labelLayer
10
132.3115234
20
236.5078715
11
133.6494141
21
236.5078715
0
LINE
8
right_labelLayer
10
133.6494141
20
236.5078715
11
133.8349609
21
234.5254496
0
LINE
8
right_labelLayer
10
133.8349609
20
234.5254496
11
133.9130859
21
234.5254496
0
ARC
8
right_labelLayer
10
137.2109731
20
229.2609915
40
7.4422111
50
84.992291
51
90.1280853
0
ARC
8
right_labelLayer
10
137.3897017
20
231.263446
40
5.4317999
50
78.4891881
51
85.0266001
0
ARC
8
right_labelLayer
10
136.6959917
20
228.1082823
40
7.1446416
50
77.4453847
51
81.6360114
0
ARC
8
right_labelLayer
10
137.0072803
20
230.2539438
40
4.9765227
50
81.5884291
51
87.1916446
0
ARC
8
right_labelLayer
10
137.074891
20
231.4262208
40
3.8023544
50
87.3437351
51
89.9659832
0
ARC
8
right_labelLayer
10
137.0591828
20
232.4197569
40
2.8088752
50
89.6335332
51
137.0880824
0
ARC
8
right_labelLayer
10
137.7484147
20
231.6446749
40
3.8426618
50
135.6208614
51
138.8378137
0
ARC
8
right_labelLayer
10
137.6475217
20
231.7431608
40
3.7018901
50
138.9575794
51
174.5422254
0
ARC
8
right_labelLayer
10
138.8531895
20
231.5545133
40
4.9205781
50
173.6907914
51
180.0882543
0
ARC
8
right_labelLayer
10
138.6826861
20
231.838279
40
5.4744836
50
139.4139283
51
150.6032915
0
ARC
8
right_labelLayer
10
137.7011144
20
232.6793819
40
4.1818363
50
124.2321574
51
139.4160923
0
ARC
8
right_labelLayer
10
137.1762687
20
233.471632
40
3.2316024
50
89.6796684
51
124.4405593
0
LINE
8
right_labelLayer
10
142.0966797
20
236.5078715
11
142.0966797
21
225.8047465
0
LINE
8
right_labelLayer
10
142.0966797
20
225.8047465
11
140.4755859
21
225.8047465
0
LINE
8
right_labelLayer
10
140.4755859
20
225.8047465
11
140.4755859
21
236.5078715
0
LINE
8
right_labelLayer
10
140.4755859
20
236.5078715
11
142.0966797
21
236.5078715
0
ARC
8
right_labelLayer
10
142.1352002
20
239.4193747
40
1.7963674
50
170.84516
51
180.354443
0
ARC
8
right_labelLayer
10
141.4627107
20
239.5318181
40
1.1145614
50
155.96784
51
171.0516068
0
ARC
8
right_labelLayer
10
141.1369972
20
239.676319
40
0.7582342
50
133.7880515
51
155.9170999
0
ARC
8
right_labelLayer
10
141.2572495
20
239.5433735
40
0.9374362
50
92.6445969
51
133.4710463
0
ARC
8
right_labelLayer
10
141.2952373
20
239.2449592
40
1.2375218
50
89.969388
51
93.7640939
0
ARC
8
right_labelLayer
10
141.3106995
20
239.5274675
40
0.955128
50
46.3708278
51
90.8879141
0
ARC
8
right_labelLayer
10
141.4057574
20
239.625602
40
0.8185082
50
17.7252267
51
46.4473562
0
ARC
8
right_labelLayer
10
140.9624771
20
239.4729548
40
1.2872609
50
4.9427611
51
18.1900435
0
ARC
8
right_labelLayer
10
140.3986025
20
239.4119934
40
1.854331
50
359.8847085
51
5.3182096
0
ARC
8
right_labelLayer
10
140.5756929
20
239.3968732
40
1.6772754
50
349.8345182
51
0.3890488
0
ARC
8
right_labelLayer
10
141.1863228
20
239.2829624
40
1.0561358
50
332.6322522
51
350.070587
0
ARC
8
right_labelLayer
10
141.4239914
20
239.1656033
40
0.7911343
50
313.6153551
51
332.2677738
0
ARC
8
right_labelLayer
10
141.3094523
20
239.2698955
40
0.9457148
50
269.1788142
51
314.2807511
0
ARC
8
right_labelLayer
10
141.2851545
20
239.3539714
40
1.0297497
50
250.5000439
51
270.5978105
0
ARC
8
right_labelLayer
10
141.2539904
20
239.2374378
40
0.9095473
50
225.1300523
51
249.9001405
0
ARC
8
right_labelLayer
10
141.2051983
20
239.1835405
40
0.8369342
50
197.7933491
51
224.8942061
0
ARC
8
right_labelLayer
10
141.6618577
20
239.3400336
40
1.3196052
50
184.9925272
51
198.2040554
0
ARC
8
right_labelLayer
10
142.2528838
20
239.4042737
40
1.9140208
50
179.8806098
51
185.368566
0
LINE
8
right_labelLayer
10
150.5927734
20
236.5078715
11
154.2939453
21
236.5078715
0
LINE
8
right_labelLayer
10
154.2939453
20
236.5078715
11
154.2939453
21
235.4824808
0
LINE
8
right_labelLayer
10
154.2939453
20
235.4824808
11
152.3115234
21
235.2481058
0
LINE
8
right_labelLayer
10
148.6591797
20
227.5039652
11
150.5537109
21
227.5039652
0
LINE
8
right_labelLayer
10
150.0361328
20
226.0488871
11
148.0927734
21
226.0488871
0
ARC
8
right_labelLayer
10
150.2457144
20
233.6132451
40
2.6344519
50
29.4583912
51
38.3577421
0
ARC
8
right_labelLayer
10
149.1691082
20
232.9986554
40
3.874121
50
23.1845822
51
29.5421815
0
ARC
8
right_labelLayer
10
148.1419093
20
232.5431305
40
4.997723
50
21.2506855
51
23.3489206
0
ARC
8
right_labelLayer
10
149.8879468
20
233.2375399
40
3.1187547
50
6.8504735
51
20.9872
0
ARC
8
right_labelLayer
10
149.0095809
20
233.1184446
40
4.0050778
50
359.8710952
51
7.0432407
0
ARC
8
right_labelLayer
10
149.2985676
20
233.070793
40
3.7162817
50
342.5649726
51
0.5957577
0
ARC
8
right_labelLayer
10
149.983963
20
232.8815291
40
3.0057696
50
310.6097754
51
342.0923762
0
ARC
8
right_labelLayer
10
149.5996172
20
233.3285942
40
3.5953358
50
284.9315915
51
310.6222663
0
ARC
8
right_labelLayer
10
149.1186565
20
235.0139454
40
5.3477935
50
272.5334957
51
285.257977
0
ARC
8
right_labelLayer
10
148.9949931
20
236.7031846
40
7.0410173
50
269.9692232
51
272.9311949
0
ARC
8
right_labelLayer
10
148.9796499
20
234.8721008
40
5.2099453
50
263.4836855
51
270.1271415
0
ARC
8
right_labelLayer
10
148.8947813
20
234.0659981
40
4.3994247
50
259.4963395
51
263.3904223
0
ARC
8
right_labelLayer
10
149.4200129
20
227.179081
40
2.8846791
50
117.3935299
51
128.4095265
0
ARC
8
right_labelLayer
10
148.6773789
20
228.1003731
40
1.7014082
50
128.0881899
51
147.1400598
0
ARC
8
right_labelLayer
10
148.2772978
20
228.368858
40
1.2196931
50
147.5369239
51
180.2592022
0
ARC
8
right_labelLayer
10
147.8977479
20
228.3529568
40
0.8401949
50
179.291902
51
198.3580478
0
ARC
8
right_labelLayer
10
147.7404361
20
228.3116135
40
0.6779462
50
199.2291438
51
239.5690898
0
ARC
8
right_labelLayer
10
147.8707957
20
228.4917189
40
0.8995167
50
238.2200043
51
239.8460148
0
ARC
8
right_labelLayer
10
147.9749236
20
228.7058924
40
1.1371495
50
240.7301941
51
254.5027091
0
ARC
8
right_labelLayer
10
148.28529
20
229.7754
40
2.2507401
50
254.1636876
51
262.2122981
0
ARC
8
right_labelLayer
10
148.5311249
20
231.4924505
40
3.9852803
50
262.0555586
51
267.2083598
0
ARC
8
right_labelLayer
10
148.649889
20
233.6707901
40
6.1668318
50
267.0919511
51
270.0863196
0
ARC
8
right_labelLayer
10
150.5891476
20
220.8682378
40
6.635822
50
81.5744259
51
90.3059724
0
ARC
8
right_labelLayer
10
150.9531372
20
223.2421106
40
4.2342546
50
68.367136
51
81.7399222
0
ARC
8
right_labelLayer
10
151.4285434
20
224.4570733
40
2.9296117
50
52.1879624
51
68.2500955
0
ARC
8
right_labelLayer
10
151.7611951
20
224.9052999
40
2.3715914
50
8.6201447
51
51.898241
0
ARC
8
right_labelLayer
10
150.5953033
20
224.6586094
40
3.5619591
50
359.7430778
51
9.7326305
0
ARC
8
right_labelLayer
10
150.6475253
20
224.5985216
40
3.5099785
50
340.5268782
51
0.720146
0
ARC
8
right_labelLayer
10
151.1632266
20
224.4701182
40
2.9814051
50
302.9903718
51
339.5494545
0
ARC
8
right_labelLayer
10
150.6210276
20
225.1593159
40
3.8555242
50
303.1871148
51
304.1720169
0
ARC
8
right_labelLayer
10
150.1173545
20
226.0315523
40
4.8615076
50
286.254211
51
302.5280183
0
ARC
8
right_labelLayer
10
149.1992089
20
229.0600161
40
8.0259813
50
276.4939772
51
286.4953662
0
ARC
8
right_labelLayer
10
148.6263399
20
233.8488822
40
12.8489412
50
269.7545176
51
276.6169549
0
ARC
8
right_labelLayer
10
148.5285043
20
230.0825184
40
9.0825602
50
262.5634818
51
270.2699014
0
ARC
8
right_labelLayer
10
148.0836576
20
226.7853262
40
5.7555434
50
251.2102012
51
262.7064068
0
ARC
8
right_labelLayer
10
147.4424834
20
224.9033831
40
3.767375
50
235.966797
51
251.2229064
0
ARC
8
right_labelLayer
10
146.7628952
20
223.93388
40
2.5836695
50
208.9036115
51
236.4231609
0
ARC
8
right_labelLayer
10
146.8252833
20
223.9077284
40
2.6261819
50
182.2079755
51
207.7461672
0
ARC
8
right_labelLayer
10
147.6194471
20
223.987056
40
3.4231584
50
179.9785049
51
183.0226599
0
ARC
8
right_labelLayer
10
146.6746382
20
224.0318278
40
2.4787307
50
138.391614
51
181.0052658
0
ARC
8
right_labelLayer
10
146.936396
20
223.7965852
40
2.8306574
50
113.8121401
51
138.3496206
0
ARC
8
right_labelLayer
10
147.4329196
20
222.7243837
40
4.0121099
50
102.2870907
51
114.1172764
0
ARC
8
right_labelLayer
10
147.276901
20
228.1755483
40
1.6824853
50
216.5861576
51
245.4968502
0
ARC
8
right_labelLayer
10
147.517679
20
228.3798314
40
1.9976852
50
215.4650457
51
217.1747138
0
ARC
8
right_labelLayer
10
147.1165759
20
228.0901191
40
1.5029096
50
182.1767501
51
215.3415496
0
ARC
8
right_labelLayer
10
147.4738967
20
228.1284392
40
1.8615921
50
179.9838091
51
182.937617
0
ARC
8
right_labelLayer
10
147.4660535
20
228.1446357
40
1.853815
50
161.7226125
51
180.4843331
0
ARC
8
right_labelLayer
10
147.262229
20
228.2002517
40
1.6428689
50
144.4963479
51
161.335045
0
ARC
8
right_labelLayer
10
147.8055658
20
227.7953075
40
2.320404
50
132.7259275
51
144.1479182
0
ARC
8
right_labelLayer
10
148.676352
20
226.8654116
40
3.594345
50
125.2212527
51
132.8655526
0
ARC
8
right_labelLayer
10
149.5518309
20
225.6497015
40
5.0924354
50
121.2352449
51
125.3794758
0
ARC
8
right_labelLayer
10
147.9998391
20
232.6290665
40
2.8419075
50
215.1640727
51
247.4747853
0
ARC
8
right_labelLayer
10
148.5303222
20
233.0571898
40
3.5224263
50
212.4714021
51
215.887566
0
ARC
8
right_labelLayer
10
148.3908273
20
232.9573907
40
3.351173
50
183.0160775
51
212.312319
0
ARC
8
right_labelLayer
10
149.1261667
20
233.0393543
40
4.0900342
50
179.9759015
51
183.6206916
0
ARC
8
right_labelLayer
10
149.7195808
20
233.0806338
40
4.683615
50
166.8195875
51
180.4839435
0
ARC
8
right_labelLayer
10
148.1658397
20
233.472919
40
3.0814803
50
132.3287821
51
167.3340828
0
ARC
8
right_labelLayer
10
148.373709
20
233.1741229
40
3.4426821
50
106.2189004
51
131.5377554
0
ARC
8
right_labelLayer
10
148.8996577
20
231.4711407
40
5.2248723
50
93.632975
51
106.5408676
0
ARC
8
right_labelLayer
10
149.0713547
20
229.5435392
40
7.1596488
50
89.9380052
51
94.0267838
0
ARC
8
right_labelLayer
10
149.0991611
20
230.4894799
40
6.2137364
50
82.585225
51
90.1849663
0
ARC
8
right_labelLayer
10
149.2890225
20
231.9584787
40
4.7325197
50
74.0089194
51
82.5694553
0
ARC
8
right_labelLayer
10
147.3867554
20
223.9857284
40
1.6281169
50
179.2207309
51
200.935564
0
ARC
8
right_labelLayer
10
147.193143
20
223.9408972
40
1.4315278
50
202.028675
51
236.1457476
0
ARC
8
right_labelLayer
10
147.4849161
20
224.3113575
40
1.9020601
50
235.0634158
51
238.5041866
0
ARC
8
right_labelLayer
10
147.824176
20
224.917318
40
2.5961346
50
239.106615
51
254.4863067
0
ARC
8
right_labelLayer
10
148.2764728
20
226.4768186
40
4.219834
50
254.2323945
51
263.4937537
0
ARC
8
right_labelLayer
10
148.5605871
20
228.8832019
40
6.6429195
50
263.4108368
51
270.1457377
0
ARC
8
right_labelLayer
10
148.5906895
20
230.4652806
40
8.2249871
50
269.9080095
51
270.0009111
0
ARC
8
right_labelLayer
10
148.6296693
20
233.1380649
40
10.8978408
50
269.7957494
51
275.3991084
0
ARC
8
right_labelLayer
10
149.0375397
20
228.9508652
40
6.6908512
50
275.2957034
51
283.3515941
0
ARC
8
right_labelLayer
10
149.702051
20
226.213867
40
3.8744047
50
283.1370673
51
295.8573119
0
ARC
8
right_labelLayer
10
150.1944185
20
225.1389585
40
2.6924989
50
296.4048133
51
301.800872
0
ARC
8
right_labelLayer
10
150.387477
20
224.8728482
40
2.3647203
50
301.2230954
51
318.6238129
0
ARC
8
right_labelLayer
10
150.8228919
20
224.4706383
40
1.7721859
50
319.0765535
51
1.1406985
0
ARC
8
right_labelLayer
10
150.4015074
20
224.5232944
40
2.193288
50
359.5460775
51
10.9904899
0
ARC
8
right_labelLayer
10
151.2486928
20
224.6956118
40
1.3288113
50
10.6608775
51
30.9361534
0
ARC
8
right_labelLayer
10
151.5173109
20
224.8446848
40
1.0218218
50
31.5095492
51
58.0777723
0
ARC
8
right_labelLayer
10
151.2655513
20
224.3938992
40
1.5377539
50
58.9972155
51
73.8586059
0
ARC
8
right_labelLayer
10
150.7566869
20
222.7280294
40
3.2795218
50
73.4099876
51
81.5906846
0
ARC
8
right_labelLayer
10
150.3255288
20
219.9378407
40
6.102794
50
81.4172367
51
86.575637
0
ARC
8
right_labelLayer
10
150.0613221
20
215.7339935
40
10.3149243
50
86.5054507
51
90.139918
0
ARC
8
right_labelLayer
10
148.0695872
20
222.3225499
40
3.7264093
50
89.6434955
51
100.0209284
0
ARC
8
right_labelLayer
10
147.8353753
20
223.5966364
40
2.4310217
50
99.810277
51
116.8229778
0
ARC
8
right_labelLayer
10
147.6072334
20
224.0777576
40
1.8987691
50
117.2304679
51
130.5023043
0
ARC
8
right_labelLayer
10
147.4900887
20
224.2283167
40
1.7082263
50
130.7944641
51
169.0413514
0
ARC
8
right_labelLayer
10
148.352704
20
224.025168
40
2.5939725
50
168.2580722
51
180.3820499
0
ARC
8
right_labelLayer
10
149.8019445
20
233.055935
40
3.1643417
50
179.5617754
51
191.6528905
0
ARC
8
right_labelLayer
10
148.7017349
20
232.8182313
40
2.0388239
50
191.3555163
51
213.366036
0
ARC
8
right_labelLayer
10
148.4375221
20
232.6656723
40
1.7343473
50
213.9573883
51
227.7971276
0
ARC
8
right_labelLayer
10
148.6673917
20
232.9444687
40
2.0953571
50
228.2620612
51
254.7341401
0
ARC
8
right_labelLayer
10
148.9610679
20
233.9511909
40
3.1439339
50
254.4016282
51
267.4348698
0
ARC
8
right_labelLayer
10
149.0376859
20
234.9787639
40
4.174018
50
267.0154833
51
270.0323008
0
ARC
8
right_labelLayer
10
149.0877649
20
234.3360605
40
3.5316365
50
269.2256931
51
284.3773202
0
ARC
8
right_labelLayer
10
149.5691216
20
232.659008
40
1.788278
50
282.7796683
51
346.4828524
0
ARC
8
right_labelLayer
10
148.1299962
20
233.066651
40
3.2833685
50
345.4362055
51
0.7465961
0
ARC
8
right_labelLayer
10
147.9276957
20
233.1592801
40
3.4857466
50
359.1806438
51
15.0431674
0
ARC
8
right_labelLayer
10
149.5071517
20
233.6200239
40
1.8411661
50
13.9535587
51
77.6673868
0
ARC
8
right_labelLayer
10
149.0539902
20
231.9960842
40
3.5257245
50
76.1095116
51
90.702832
0
ARC
8
right_labelLayer
10
148.9861611
20
232.1201095
40
3.4015226
50
89.5859491
51
101.3333872
0
ARC
8
right_labelLayer
10
148.7430772
20
233.279522
40
2.2169729
50
101.0620478
51
121.9739155
0
ARC
8
right_labelLayer
10
148.572236
20
233.5868511
40
1.8658881
50
122.5210678
51
134.9967093
0
ARC
8
right_labelLayer
10
148.6425819
20
233.544701
40
1.9455358
50
135.5840084
51
163.001576
0
ARC
8
right_labelLayer
10
149.6699682
20
233.2079612
40
3.0265604
50
162.5912073
51
175.7343257
0
ARC
8
right_labelLayer
10
150.9022134
20
233.08657
40
4.2645229
50
175.3393345
51
180.0864289
0
LINE
8
right_labelLayer
10
165.4365234
20
225.8047465
11
163.8154297
21
225.8047465
0
LINE
8
right_labelLayer
10
163.8154297
20
225.8047465
11
163.8154297
21
232.7285746
0
LINE
8
right_labelLayer
10
158.1123047
20
231.4004496
11
158.1123047
21
225.8047465
0
LINE
8
right_labelLayer
10
158.1123047
20
225.8047465
11
156.4912109
21
225.8047465
0
LINE
8
right_labelLayer
10
156.4912109
20
225.8047465
11
156.4912109
21
241.000059
0
LINE
8
right_labelLayer
10
156.4912109
20
241.000059
11
158.1123047
21
241.000059
0
LINE
8
right_labelLayer
10
158.1123047
20
241.000059
11
158.1123047
21
236.4004496
0
LINE
8
right_labelLayer
10
158.0341797
20
235.0234965
11
158.1318359
21
235.0234965
0
LINE
8
right_labelLayer
10
165.4365234
20
232.7871683
11
165.4365234
21
225.8047465
0
ARC
8
right_labelLayer
10
159.2330699
20
232.7548532
40
4.5824351
50
359.6714273
51
8.6877183
0
ARC
8
right_labelLayer
10
160.931464
20
233.0242078
40
2.8628588
50
8.4931172
51
22.6580015
0
ARC
8
right_labelLayer
10
161.7943479
20
233.3827957
40
1.9284334
50
22.7024538
51
42.3419526
0
ARC
8
right_labelLayer
10
161.8913429
20
233.4264271
40
1.8276521
50
43.3791036
51
71.5386098
0
ARC
8
right_labelLayer
10
161.5286364
20
232.4129338
40
2.9039368
50
71.0827882
51
84.3690971
0
ARC
8
right_labelLayer
10
161.3658248
20
231.0286776
40
4.2975682
50
84.0197499
51
90.1510883
0
ARC
8
right_labelLayer
10
161.3195551
20
230.4206932
40
4.9056621
50
89.5919487
51
100.3595241
0
ARC
8
right_labelLayer
10
160.972191
20
232.2461406
40
3.047537
50
100.1068053
51
118.0847271
0
ARC
8
right_labelLayer
10
160.6188898
20
232.9394039
40
2.2696253
50
118.4551041
51
139.6706062
0
ARC
8
right_labelLayer
10
160.9735781
20
232.6969689
40
2.6972872
50
140.6208152
51
160.5049118
0
ARC
8
right_labelLayer
10
162.8431877
20
232.0048458
40
4.6907784
50
160.1567165
51
171.5312858
0
ARC
8
right_labelLayer
10
165.8682624
20
231.5255609
40
7.7535057
50
171.3202501
51
178.3406756
0
ARC
8
right_labelLayer
10
168.5748205
20
231.4046422
40
10.4625167
50
178.1079588
51
180.0229599
0
ARC
8
right_labelLayer
10
143.5295732
20
236.3830616
40
14.5827418
50
357.8674098
51
0.0683177
0
ARC
8
right_labelLayer
10
148.4833994
20
236.1940583
40
9.6253145
50
354.9828812
51
357.8943747
0
ARC
8
right_labelLayer
10
151.755291
20
235.9091495
40
6.3410428
50
351.9712528
51
354.9619117
0
ARC
8
right_labelLayer
10
160.8776945
20
233.3058665
40
3.2388257
50
119.8315968
51
147.9725896
0
ARC
8
right_labelLayer
10
161.2698747
20
232.7034066
40
3.9567528
50
116.6658028
51
120.4183243
0
ARC
8
right_labelLayer
10
161.3431111
20
232.5110347
40
4.1615837
50
96.6652572
51
116.3782364
0
ARC
8
right_labelLayer
10
161.5008935
20
231.4224061
40
5.2612558
50
89.8927469
51
96.9958896
0
ARC
8
right_labelLayer
10
161.5513445
20
230.1067581
40
6.5770199
50
80.6863111
51
90.3537096
0
ARC
8
right_labelLayer
10
161.9608715
20
232.5155442
40
4.1337356
50
65.6022926
51
80.8843959
0
ARC
8
right_labelLayer
10
162.4526385
20
233.6231159
40
2.9219527
50
46.7401062
51
65.4130663
0
ARC
8
right_labelLayer
10
162.4860634
20
233.728651
40
2.8225978
50
19.2204318
51
45.7660665
0
ARC
8
right_labelLayer
10
160.8585273
20
233.1253107
40
4.5581614
50
6.4733964
51
19.6467979
0
ARC
8
right_labelLayer
10
158.4266044
20
232.8123096
40
7.009964
50
359.7945084
51
6.7743941
0
LINE
8
right_labelLayer
10
173.6884766
20
227.1426371
11
173.6884766
21
225.9024027
0
LINE
8
right_labelLayer
10
168.8837891
20
228.8809183
11
168.8837891
21
235.2481058
0
LINE
8
right_labelLayer
10
168.8837891
20
235.2481058
11
167.3505859
21
235.2481058
0
LINE
8
right_labelLayer
10
167.3505859
20
235.2481058
11
167.3505859
21
236.0293558
0
LINE
8
right_labelLayer
10
167.3505859
20
236.0293558
11
168.8837891
21
236.703184
0
LINE
8
right_labelLayer
10
168.8837891
20
236.703184
11
169.5673828
21
238.9883402
0
LINE
8
right_labelLayer
10
169.5673828
20
238.9883402
11
170.5048828
21
238.9883402
0
LINE
8
right_labelLayer
10
170.5048828
20
238.9883402
11
170.5048828
21
236.5078715
0
LINE
8
right_labelLayer
10
170.5048828
20
236.5078715
11
173.6103516
21
236.5078715
0
LINE
8
right_labelLayer
10
173.6103516
20
236.5078715
11
173.6103516
21
235.2481058
0
LINE
8
right_labelLayer
10
173.6103516
20
235.2481058
11
170.5048828
21
235.2481058
0
LINE
8
right_labelLayer
10
170.5048828
20
235.2481058
11
170.5048828
21
228.9492777
0
ARC
8
right_labelLayer
10
172.2347514
20
232.2712074
40
5.3238944
50
269.8803417
51
278.3028182
0
ARC
8
right_labelLayer
10
172.284398
20
231.8638546
40
4.9136514
50
278.4158959
51
279.0076561
0
ARC
8
right_labelLayer
10
171.6880479
20
235.6734033
40
8.7695902
50
278.9589695
51
280.5103918
0
ARC
8
right_labelLayer
10
172.2573839
20
232.6185373
40
5.6621249
50
280.4847522
51
282.6268451
0
ARC
8
right_labelLayer
10
172.7566736
20
230.4003626
40
3.3884538
50
282.5876165
51
285.5795336
0
ARC
8
right_labelLayer
10
173.0083329
20
229.4750941
40
2.429599
50
285.7231888
51
286.2566654
0
ARC
8
right_labelLayer
10
173.0069231
20
227.3439275
40
1.5945246
50
287.9888406
51
295.3048016
0
ARC
8
right_labelLayer
10
172.6223285
20
228.5075088
40
2.8200086
50
283.3069861
51
288.1197567
0
ARC
8
right_labelLayer
10
172.2160747
20
230.2021221
40
4.5626327
50
280.0069961
51
283.3735389
0
ARC
8
right_labelLayer
10
171.9442668
20
231.6772062
40
6.0625179
50
279.1862135
51
280.1142603
0
ARC
8
right_labelLayer
10
171.7773867
20
232.6263542
40
7.0261467
50
275.5260122
51
279.2939725
0
ARC
8
right_labelLayer
10
171.9654064
20
230.6624417
40
5.0532558
50
270.8932457
51
275.5483966
0
ARC
8
right_labelLayer
10
171.9890142
20
229.7653064
40
4.1558726
50
270.0033586
51
270.7606301
0
ARC
8
right_labelLayer
10
171.9238416
20
229.8429864
40
4.2340578
50
253.784789
51
270.8852547
0
ARC
8
right_labelLayer
10
171.4222185
20
228.1322616
40
2.4513133
50
190.3817699
51
253.8772374
0
ARC
8
right_labelLayer
10
173.9789898
20
228.8235667
40
5.0955236
50
179.3551054
51
192.8477577
0
ARC
8
right_labelLayer
10
173.7691821
20
228.9288628
40
3.2643631
50
179.6416773
51
189.7505556
0
ARC
8
right_labelLayer
10
172.616792
20
228.7233226
40
2.093823
50
189.5479676
51
205.7873396
0
ARC
8
right_labelLayer
10
172.1432062
20
228.5049372
40
1.5724225
50
206.1294051
51
221.408398
0
ARC
8
right_labelLayer
10
172.0901078
20
228.464647
40
1.505957
50
221.5949091
51
262.3505289
0
ARC
8
right_labelLayer
10
172.2163992
20
229.1140853
40
2.1667729
50
261.3266216
51
270.1912791
0
LINE
8
bottom_outsideCutPath
10
209
20
203
11
209
21
183
0
LINE
8
bottom_outsideCutPath
10
209
20
183
11
206
21
183
0
LINE
8
bottom_outsideCutPath
10
206
20
183
11
206
21
165
0
LINE
8
bottom_outsideCutPath
10
206
20
165
11
209
21
165
0
LINE
8
bottom_outsideCutPath
10
209
20
165
11
209
21
147
0
LINE
8
bottom_outsideCutPath
10
209
20
147
11
206
21
147
0
LINE
8
bottom_outsideCutPath
10
206
20
147
11
206
21
129
0
LINE
8
bottom_outsideCutPath
10
206
20
129
11
209
21
129
0
LINE
8
bottom_outsideCutPath
10
209
20
129
11
209
21
111
0
LINE
8
bottom_outsideCutPath
10
209
20
111
11
209
21
109
0
LINE
8
bottom_outsideCutPath
10
209
20
109
11
229
21
109
0
LINE
8
bottom_outsideCutPath
10
229
20
109
11
229
21
106
0
LINE
8
bottom_outsideCutPath
10
229
20
106
11
247
21
106
0
LINE
8
bottom_outsideCutPath
10
247
20
106
11
247
21
109
0
LINE
8
bottom_outsideCutPath
10
247
20
109
11
265
21
109
0
LINE
8
bottom_outsideCutPath
10
265
20
109
11
265
21
106
0
LINE
8
bottom_outsideCutPath
10
265
20
106
11
283
21
106
0
LINE
8
bottom_outsideCutPath
10
283
20
106
11
283
21
109
0
LINE
8
bottom_outsideCutPath
10
283
20
109
11
301
21
109
0
LINE
8
bottom_outsideCutPath
10
301
20
109
11
303
21
109
0
LINE
8
bottom_outsideCutPath
10
303
20
109
11
303
21
129
0
LINE
8
bottom_outsideCutPath
10
303
20
129
11
306
21
129
0
LINE
8
bottom_outsideCutPath
10
306
20
129
11
306
21
147
0
LINE
8
bottom_outsideCutPath
10
306
20
147
11
303
21
147
0
LINE
8
bottom_outsideCutPath
10
303
20
147
11
303
21
165
0
LINE
8
bottom_outsideCutPath
10
303
20
165
11
306
21
165
0
LINE
8
bottom_outsideCutPath
10
306
20
165
11
306
21
183
0
LINE
8
bottom_outsideCutPath
10
306
20
183
11
303
21
183
0
LINE
8
bottom_outsideCutPath
10
303
20
183
11
303
21
201
0
LINE
8
bottom_outsideCutPath
10
303
20
201
11
303
21
203
0
LINE
8
bottom_outsideCutPath
10
303
20
203
11
283
21
203
0
LINE
8
bottom_outsideCutPath
10
283
20
203
11
283
21
206
0
LINE
8
bottom_outsideCutPath
10
283
20
206
11
265
21
206
0
LINE
8
bottom_outsideCutPath
10
265
20
206
11
265
21
203
0
LINE
8
bottom_outsideCutPath
10
265
20
203
11
247
21
203
0
LINE
8
bottom_outsideCutPath
10
247
20
203
11
247
21
206
0
LINE
8
bottom_outsideCutPath
10
247
20
206
11
229
21
206
0
LINE
8
bottom_outsideCutPath
10
229
20
206
11
229
21
203
0
LINE
8
bottom_outsideCutPath
10
229
20
203
11
211
21
203
0
LINE
8
bottom_outsideCutPath
10
211
20
203
11
209
21
203
0
LINE
8
bottom_labelLayer
10
224.7206558
20
149.8772058
11
224.6034683
21
149.8772058
0
LINE
8
bottom_labelLayer
10
224.6034683
20
149.8772058
11
224.2616714
21
148.5002527
0
LINE
8
bottom_labelLayer
10
224.2616714
20
148.5002527
11
223.099562
21
148.5002527
0
LINE
8
bottom_labelLayer
10
223.099562
20
148.5002527
11
223.099562
21
163.6955652
0
LINE
8
bottom_labelLayer
10
223.099562
20
163.6955652
11
224.7206558
21
163.6955652
0
LINE
8
bottom_labelLayer
10
224.7206558
20
163.6955652
11
224.7206558
21
160.0041589
0
LINE
8
bottom_labelLayer
10
224.6425308
20
157.7775964
11
224.7206558
21
157.7775964
0
ARC
8
bottom_labelLayer
10
228.1286614
20
154.424771
40
4.9546266
50
74.2393364
51
90.5623784
0
ARC
8
bottom_labelLayer
10
228.4562775
20
155.6266471
40
3.7089652
50
38.563135
51
74.0670337
0
ARC
8
bottom_labelLayer
10
227.6131726
20
154.9710849
40
4.776887
50
16.4709282
51
38.4075249
0
ARC
8
bottom_labelLayer
10
225.1843174
20
154.2094659
40
7.3221308
50
5.1338483
51
16.7973468
0
ARC
8
bottom_labelLayer
10
222.1180602
20
153.8837477
40
10.4053536
50
359.8779407
51
5.4093585
0
ARC
8
bottom_labelLayer
10
223.0186917
20
153.8055057
40
9.5048639
50
350.6562881
51
0.3380252
0
ARC
8
bottom_labelLayer
10
226.3322452
20
153.2419087
40
6.1437972
50
335.8306022
51
350.8254751
0
ARC
8
bottom_labelLayer
10
227.7898287
20
152.6127944
40
4.5564622
50
321.3161305
51
335.5436301
0
ARC
8
bottom_labelLayer
10
228.347059
20
152.1587347
40
3.8376919
50
274.0640061
51
321.4081015
0
ARC
8
bottom_labelLayer
10
228.0874585
20
153.8031469
40
5.4982118
50
269.9225965
51
275.5481661
0
ARC
8
bottom_labelLayer
10
228.052694
20
153.2219964
40
4.9171322
50
255.7755416
51
270.3185374
0
ARC
8
bottom_labelLayer
10
227.9123782
20
152.5985788
40
4.2783843
50
245.9801859
51
255.5455587
0
ARC
8
bottom_labelLayer
10
227.6405841
20
151.9665152
40
3.5904312
50
215.5850261
51
245.8361642
0
ARC
8
bottom_labelLayer
10
190.9220797
20
159.9755857
40
33.7985882
50
358.1123236
51
0.0484378
0
ARC
8
bottom_labelLayer
10
200.328985
20
159.6597695
40
24.3863854
50
355.7238501
51
358.1259023
0
ARC
8
bottom_labelLayer
10
204.4878492
20
159.3738858
40
20.2177974
50
355.4715177
51
355.6529673
0
ARC
8
bottom_labelLayer
10
227.743925
20
155.6693892
40
3.6857421
50
95.1835136
51
145.1108959
0
ARC
8
bottom_labelLayer
10
228.0678892
20
153.8425045
40
5.5366677
50
89.8743539
51
96.8145168
0
ARC
8
bottom_labelLayer
10
227.8117164
20
153.4664542
40
4.5554093
50
89.5731223
51
100.7324143
0
ARC
8
bottom_labelLayer
10
227.4744886
20
155.1702462
40
2.8186562
50
100.4469271
51
119.6700806
0
ARC
8
bottom_labelLayer
10
227.1617781
20
155.7548947
40
2.1559401
50
120.1402874
51
142.4248999
0
ARC
8
bottom_labelLayer
10
227.6791349
20
155.4126468
40
2.7750293
50
143.3382417
51
161.2559929
0
ARC
8
bottom_labelLayer
10
229.8425996
20
154.6445424
40
5.070677
50
160.8926193
51
171.2334482
0
ARC
8
bottom_labelLayer
10
233.4543158
20
154.0618873
40
8.7290381
50
171.0667895
51
177.8456849
0
ARC
8
bottom_labelLayer
10
237.210283
20
153.8708574
40
12.4896305
50
177.6176676
51
180.042556
0
ARC
8
bottom_labelLayer
10
235.4391322
20
153.8197267
40
10.7185581
50
179.7762696
51
185.7075172
0
ARC
8
bottom_labelLayer
10
231.2131467
20
153.3842998
40
6.4702325
50
185.5924625
51
194.2050865
0
ARC
8
bottom_labelLayer
10
228.5060798
20
152.6817189
40
3.6735677
50
193.9430285
51
208.0218386
0
ARC
8
bottom_labelLayer
10
227.4107846
20
152.124511
40
2.4449999
50
208.5536273
51
217.560509
0
ARC
8
bottom_labelLayer
10
227.3215475
20
152.0873964
40
2.3517682
50
218.1690497
51
253.8047105
0
ARC
8
bottom_labelLayer
10
227.7577528
20
153.4322609
40
3.7651815
50
253.1382373
51
266.8483309
0
ARC
8
bottom_labelLayer
10
227.8800739
20
154.8747986
40
5.2124386
50
266.3775722
51
270.0510514
0
ARC
8
bottom_labelLayer
10
227.919298
20
152.8938162
40
3.2316392
50
269.3869014
51
285.8630523
0
ARC
8
bottom_labelLayer
10
228.1593886
20
152.0260932
40
2.3313432
50
286.0162899
51
326.849735
0
ARC
8
bottom_labelLayer
10
227.0005884
20
152.7937556
40
3.7213332
50
326.7105084
51
343.6661789
0
ARC
8
bottom_labelLayer
10
224.83138
20
153.4565956
40
5.9894605
50
343.4171354
51
353.6369032
0
ARC
8
bottom_labelLayer
10
221.5550253
20
153.8453559
40
9.288746
50
353.4934852
51
0.2205553
0
ARC
8
bottom_labelLayer
10
221.2662059
20
153.9198781
40
9.5775752
50
359.7680902
51
6.3095251
0
ARC
8
bottom_labelLayer
10
224.8738995
20
154.3338833
40
5.9462546
50
6.1648601
51
16.0396518
0
ARC
8
bottom_labelLayer
10
227.1979048
20
155.0187697
40
3.5235221
50
15.7779193
51
32.0151484
0
ARC
8
bottom_labelLayer
10
227.9224684
20
155.4336904
40
2.6893853
50
32.70347
51
35.5241319
0
ARC
8
bottom_labelLayer
10
228.1876582
20
155.6221702
40
2.3640397
50
35.5408356
51
79.8011276
0
ARC
8
bottom_labelLayer
10
227.8701925
20
154.2725645
40
3.7492528
50
78.6781247
51
90.3749718
0
ARC
8
bottom_labelLayer
10
236.2202725
20
153.8051309
40
8.3736204
50
349.1761945
51
0.3862568
0
ARC
8
bottom_labelLayer
10
239.0394777
20
153.2431175
40
5.4990771
50
330.2507047
51
349.4116462
0
ARC
8
bottom_labelLayer
10
239.9070862
20
152.7921683
40
4.5222197
50
318.143971
51
329.7566252
0
ARC
8
bottom_labelLayer
10
240.0636745
20
152.6666786
40
4.3218687
50
278.8959183
51
317.9979086
0
ARC
8
bottom_labelLayer
10
239.6602013
20
154.5997537
40
6.2948732
50
269.7502763
51
279.8033236
0
ARC
8
bottom_labelLayer
10
239.5947651
20
153.5105914
40
5.2057899
50
253.5436962
51
270.418238
0
ARC
8
bottom_labelLayer
10
239.4214714
20
152.8402519
40
4.5138811
50
238.8115441
51
253.242846
0
ARC
8
bottom_labelLayer
10
239.3655465
20
152.7277885
40
4.3887236
50
207.7946962
51
238.6757996
0
ARC
8
bottom_labelLayer
10
240.1680336
20
153.2192729
40
5.328149
50
205.6559791
51
208.4461025
0
ARC
8
bottom_labelLayer
10
240.7861868
20
153.4768422
40
5.9969824
50
188.9102503
51
205.3171481
0
ARC
8
bottom_labelLayer
10
242.869338
20
153.8296592
40
8.1096824
50
179.7744696
51
189.0932788
0
ARC
8
bottom_labelLayer
10
243.176627
20
153.9185913
40
8.4171018
50
169.244298
51
180.388077
0
ARC
8
bottom_labelLayer
10
240.3182487
20
154.4835881
40
5.5035418
50
150.7111564
51
169.4695354
0
ARC
8
bottom_labelLayer
10
239.4057734
20
154.9521738
40
4.4786339
50
138.175962
51
150.2287147
0
ARC
8
bottom_labelLayer
10
239.2539753
20
155.0686613
40
4.2878596
50
99.175935
51
137.9832793
0
ARC
8
bottom_labelLayer
10
239.6717451
20
153.1025934
40
6.2961655
50
89.7326434
51
100.0759878
0
ARC
8
bottom_labelLayer
10
239.755241
20
153.9516734
40
5.4472856
50
73.5222665
51
90.5692191
0
ARC
8
bottom_labelLayer
10
240.0746919
20
155.1123218
40
4.2437569
50
41.1445735
51
73.2133783
0
ARC
8
bottom_labelLayer
10
239.4648883
20
154.588204
40
5.047824
50
13.5014302
51
41.0703483
0
ARC
8
bottom_labelLayer
10
237.1088985
20
153.9716734
40
7.4828084
50
1.1277281
51
13.8799962
0
ARC
8
bottom_labelLayer
10
235.0796324
20
153.8629331
40
9.5140701
50
359.991856
51
1.5419431
0
ARC
8
bottom_labelLayer
10
244.6484866
20
153.819452
40
8.2091889
50
179.7059623
51
187.9160759
0
ARC
8
bottom_labelLayer
10
241.6376131
20
153.3869441
40
5.1674586
50
187.7639332
51
200.097688
0
ARC
8
bottom_labelLayer
10
239.9789335
20
152.7792015
40
3.4009457
50
200.0845876
51
216.9131503
0
ARC
8
bottom_labelLayer
10
239.3732409
20
152.3467092
40
2.6569704
50
217.300954
51
261.7099073
0
ARC
8
bottom_labelLayer
10
239.6544223
20
153.6884754
40
4.0261509
50
260.5033133
51
270.2476938
0
ARC
8
bottom_labelLayer
10
239.7080928
20
153.4275734
40
3.765386
50
269.4481646
51
284.7255643
0
ARC
8
bottom_labelLayer
10
240.006176
20
152.3220773
40
2.620441
50
284.566235
51
322.6333878
0
ARC
8
bottom_labelLayer
10
239.3092423
20
152.825581
40
3.4799996
50
323.0089266
51
342.6390508
0
ARC
8
bottom_labelLayer
10
237.3158573
20
153.4770766
40
5.5770392
50
342.3615704
51
353.7537499
0
ARC
8
bottom_labelLayer
10
234.3749319
20
153.8315641
40
8.539136
50
353.5363189
51
0.2014064
0
ARC
8
bottom_labelLayer
10
234.8255712
20
153.9028657
40
8.0885493
50
359.7075543
51
7.8972827
0
ARC
8
bottom_labelLayer
10
237.7878056
20
154.3275305
40
5.0960791
50
7.7440005
51
20.0690174
0
ARC
8
bottom_labelLayer
10
239.4384981
20
154.9332721
40
3.3377565
50
20.0257107
51
37.4350558
0
ARC
8
bottom_labelLayer
10
239.9861832
20
155.3219016
40
2.6667491
50
37.9577645
51
80.400615
0
ARC
8
bottom_labelLayer
10
239.6749525
20
153.9332181
40
4.0885816
50
79.345353
51
90.3174962
0
ARC
8
bottom_labelLayer
10
239.6173221
20
154.1638869
40
3.8580087
50
89.4805853
51
103.8805168
0
ARC
8
bottom_labelLayer
10
239.2931498
20
155.3983298
40
2.5819124
50
103.4685218
51
142.3118841
0
ARC
8
bottom_labelLayer
10
239.9233629
20
154.9551184
40
3.3517727
50
142.9025565
51
162.3749748
0
ARC
8
bottom_labelLayer
10
241.9091787
20
154.293348
40
5.4448258
50
162.0652994
51
173.1674849
0
ARC
8
bottom_labelLayer
10
245.0056002
20
153.898416
40
8.5662738
50
173.0086063
51
180.2463739
0
LINE
8
bottom_labelLayer
10
252.3573745
20
149.8381433
11
252.3573745
21
148.5979089
0
LINE
8
bottom_labelLayer
10
247.552687
20
151.5764246
11
247.552687
21
157.9436121
0
LINE
8
bottom_labelLayer
10
247.552687
20
157.9436121
11
246.0194839
21
157.9436121
0
LINE
8
bottom_labelLayer
10
246.0194839
20
157.9436121
11
246.0194839
21
158.7248621
0
LINE
8
bottom_labelLayer
10
246.0194839
20
158.7248621
11
247.552687
21
159.3986902
0
LINE
8
bottom_labelLayer
10
247.552687
20
159.3986902
11
248.2362808
21
161.6838464
0
LINE
8
bottom_labelLayer
10
248.2362808
20
161.6838464
11
249.1737808
21
161.6838464
0
LINE
8
bottom_labelLayer
10
249.1737808
20
161.6838464
11
249.1737808
21
159.2033777
0
LINE
8
bottom_labelLayer
10
249.1737808
20
159.2033777
11
252.2792495
21
159.2033777
0
LINE
8
bottom_labelLayer
10
252.2792495
20
159.2033777
11
252.2792495
21
157.9436121
0
LINE
8
bottom_labelLayer
10
252.2792495
20
157.9436121
11
249.1737808
21
157.9436121
0
LINE
8
bottom_labelLayer
10
249.1737808
20
157.9436121
11
249.1737808
21
151.6447839
0
ARC
8
bottom_labelLayer
10
250.9036493
20
154.9667136
40
5.3238944
50
269.8803417
51
278.3028182
0
ARC
8
bottom_labelLayer
10
250.953296
20
154.5593609
40
4.9136514
50
278.4158959
51
279.0076561
0
ARC
8
bottom_labelLayer
10
250.3569458
20
158.3689095
40
8.7695902
50
278.9589695
51
280.5103918
0
ARC
8
bottom_labelLayer
10
250.9262819
20
155.3140436
40
5.6621249
50
280.4847522
51
282.6268451
0
ARC
8
bottom_labelLayer
10
251.4255715
20
153.0958688
40
3.3884538
50
282.5876165
51
285.5795336
0
ARC
8
bottom_labelLayer
10
251.6772309
20
152.1706003
40
2.429599
50
285.7231888
51
286.2566654
0
ARC
8
bottom_labelLayer
10
251.6758211
20
150.0394337
40
1.5945246
50
287.9888406
51
295.3048016
0
ARC
8
bottom_labelLayer
10
251.2912265
20
151.2030151
40
2.8200086
50
283.3069861
51
288.1197567
0
ARC
8
bottom_labelLayer
10
250.8849727
20
152.8976283
40
4.5626327
50
280.0069961
51
283.3735389
0
ARC
8
bottom_labelLayer
10
250.6131648
20
154.3727124
40
6.0625179
50
279.1862135
51
280.1142603
0
ARC
8
bottom_labelLayer
10
250.4462846
20
155.3218604
40
7.0261467
50
275.5260122
51
279.2939725
0
ARC
8
bottom_labelLayer
10
250.6343044
20
153.357948
40
5.0532558
50
270.8932457
51
275.5483966
0
ARC
8
bottom_labelLayer
10
250.6579122
20
152.4608126
40
4.1558726
50
270.0033586
51
270.7606301
0
ARC
8
bottom_labelLayer
10
250.5927396
20
152.5384926
40
4.2340578
50
253.784789
51
270.8852547
0
ARC
8
bottom_labelLayer
10
250.0911164
20
150.8277678
40
2.4513133
50
190.3817699
51
253.8772374
0
ARC
8
bottom_labelLayer
10
252.6478878
20
151.5190729
40
5.0955236
50
179.3551054
51
192.8477577
0
ARC
8
bottom_labelLayer
10
252.43808
20
151.624369
40
3.2643631
50
179.6416773
51
189.7505556
0
ARC
8
bottom_labelLayer
10
251.28569
20
151.4188288
40
2.093823
50
189.5479676
51
205.7873396
0
ARC
8
bottom_labelLayer
10
250.8121041
20
151.2004434
40
1.5724225
50
206.1294051
51
221.408398
0
ARC
8
bottom_labelLayer
10
250.7590057
20
151.1601532
40
1.505957
50
221.5949091
51
262.3505289
0
ARC
8
bottom_labelLayer
10
250.8852971
20
151.8095915
40
2.1667729
50
261.3266216
51
270.1912791
0
LINE
8
bottom_labelLayer
10
259.4179214
20
149.8381433
11
259.4179214
21
148.5979089
0
LINE
8
bottom_labelLayer
10
254.6132339
20
151.5764246
11
254.6132339
21
157.9436121
0
LINE
8
bottom_labelLayer
10
254.6132339
20
157.9436121
11
253.0800308
21
157.9436121
0
LINE
8
bottom_labelLayer
10
253.0800308
20
157.9436121
11
253.0800308
21
158.7248621
0
LINE
8
bottom_labelLayer
10
253.0800308
20
158.7248621
11
254.6132339
21
159.3986902
0
LINE
8
bottom_labelLayer
10
254.6132339
20
159.3986902
11
255.2968276
21
161.6838464
0
LINE
8
bottom_labelLayer
10
255.2968276
20
161.6838464
11
256.2343276
21
161.6838464
0
LINE
8
bottom_labelLayer
10
256.2343276
20
161.6838464
11
256.2343276
21
159.2033777
0
LINE
8
bottom_labelLayer
10
256.2343276
20
159.2033777
11
259.3397964
21
159.2033777
0
LINE
8
bottom_labelLayer
10
259.3397964
20
159.2033777
11
259.3397964
21
157.9436121
0
LINE
8
bottom_labelLayer
10
259.3397964
20
157.9436121
11
256.2343276
21
157.9436121
0
LINE
8
bottom_labelLayer
10
256.2343276
20
157.9436121
11
256.2343276
21
151.6447839
0
ARC
8
bottom_labelLayer
10
257.9641962
20
154.9667136
40
5.3238944
50
269.8803417
51
278.3028182
0
ARC
8
bottom_labelLayer
10
258.0138428
20
154.5593609
40
4.9136514
50
278.4158959
51
279.0076561
0
ARC
8
bottom_labelLayer
10
257.4174927
20
158.3689095
40
8.7695902
50
278.9589695
51
280.5103918
0
ARC
8
bottom_labelLayer
10
257.9868288
20
155.3140436
40
5.6621249
50
280.4847522
51
282.6268451
0
ARC
8
bottom_labelLayer
10
258.4861184
20
153.0958688
40
3.3884538
50
282.5876165
51
285.5795336
0
ARC
8
bottom_labelLayer
10
258.7377778
20
152.1706003
40
2.429599
50
285.7231888
51
286.2566654
0
ARC
8
bottom_labelLayer
10
258.736368
20
150.0394337
40
1.5945246
50
287.9888406
51
295.3048016
0
ARC
8
bottom_labelLayer
10
258.3517733
20
151.2030151
40
2.8200086
50
283.3069861
51
288.1197567
0
ARC
8
bottom_labelLayer
10
257.9455195
20
152.8976283
40
4.5626327
50
280.0069961
51
283.3735389
0
ARC
8
bottom_labelLayer
10
257.6737116
20
154.3727124
40
6.0625179
50
279.1862135
51
280.1142603
0
ARC
8
bottom_labelLayer
10
257.5068315
20
155.3218604
40
7.0261467
50
275.5260122
51
279.2939725
0
ARC
8
bottom_labelLayer
10
257.6948512
20
153.357948
40
5.0532558
50
270.8932457
51
275.5483966
0
ARC
8
bottom_labelLayer
10
257.718459
20
152.4608126
40
4.1558726
50
270.0033586
51
270.7606301
0
ARC
8
bottom_labelLayer
10
257.6532865
20
152.5384926
40
4.2340578
50
253.784789
51
270.8852547
0
ARC
8
bottom_labelLayer
10
257.1516633
20
150.8277678
40
2.4513133
50
190.3817699
51
253.8772374
0
ARC
8
bottom_labelLayer
10
259.7084347
20
151.5190729
40
5.0955236
50
179.3551054
51
192.8477577
0
ARC
8
bottom_labelLayer
10
259.4986269
20
151.624369
40
3.2643631
50
179.6416773
51
189.7505556
0
ARC
8
bottom_labelLayer
10
258.3462369
20
151.4188288
40
2.093823
50
189.5479676
51
205.7873396
0
ARC
8
bottom_labelLayer
10
257.872651
20
151.2004434
40
1.5724225
50
206.1294051
51
221.408398
0
ARC
8
bottom_labelLayer
10
257.8195526
20
151.1601532
40
1.505957
50
221.5949091
51
262.3505289
0
ARC
8
bottom_labelLayer
10
257.945844
20
151.8095915
40
2.1667729
50
261.3266216
51
270.1912791
0
ARC
8
bottom_labelLayer
10
262.4214444
20
153.8051309
40
8.3736204
50
349.1761945
51
0.3862568
0
ARC
8
bottom_labelLayer
10
265.2406496
20
153.2431175
40
5.4990771
50
330.2507047
51
349.4116462
0
ARC
8
bottom_labelLayer
10
266.108258
20
152.7921683
40
4.5222197
50
318.143971
51
329.7566252
0
ARC
8
bottom_labelLayer
10
266.2648464
20
152.6666786
40
4.3218687
50
278.8959183
51
317.9979086
0
ARC
8
bottom_labelLayer
10
265.8613731
20
154.5997537
40
6.2948732
50
269.7502763
51
279.8033236
0
ARC
8
bottom_labelLayer
10
265.795937
20
153.5105914
40
5.2057899
50
253.5436962
51
270.418238
0
ARC
8
bottom_labelLayer
10
265.6226432
20
152.8402519
40
4.5138811
50
238.8115441
51
253.242846
0
ARC
8
bottom_labelLayer
10
265.5667184
20
152.7277885
40
4.3887236
50
207.7946962
51
238.6757996
0
ARC
8
bottom_labelLayer
10
266.3692055
20
153.2192729
40
5.328149
50
205.6559791
51
208.4461025
0
ARC
8
bottom_labelLayer
10
266.9873587
20
153.4768422
40
5.9969824
50
188.9102503
51
205.3171481
0
ARC
8
bottom_labelLayer
10
269.0705098
20
153.8296592
40
8.1096824
50
179.7744696
51
189.0932788
0
ARC
8
bottom_labelLayer
10
269.3777989
20
153.9185913
40
8.4171018
50
169.244298
51
180.388077
0
ARC
8
bottom_labelLayer
10
266.5194206
20
154.4835881
40
5.5035418
50
150.7111564
51
169.4695354
0
ARC
8
bottom_labelLayer
10
265.6069453
20
154.9521738
40
4.4786339
50
138.175962
51
150.2287147
0
ARC
8
bottom_labelLayer
10
265.4551472
20
155.0686613
40
4.2878596
50
99.175935
51
137.9832793
0
ARC
8
bottom_labelLayer
10
265.872917
20
153.1025934
40
6.2961655
50
89.7326434
51
100.0759878
0
ARC
8
bottom_labelLayer
10
265.9564129
20
153.9516734
40
5.4472856
50
73.5222665
51
90.5692191
0
ARC
8
bottom_labelLayer
10
266.2758637
20
155.1123218
40
4.2437569
50
41.1445735
51
73.2133783
0
ARC
8
bottom_labelLayer
10
265.6660602
20
154.588204
40
5.047824
50
13.5014302
51
41.0703483
0
ARC
8
bottom_labelLayer
10
263.3100704
20
153.9716734
40
7.4828084
50
1.1277281
51
13.8799962
0
ARC
8
bottom_labelLayer
10
261.2808043
20
153.8629331
40
9.5140701
50
359.991856
51
1.5419431
0
ARC
8
bottom_labelLayer
10
270.8496584
20
153.819452
40
8.2091889
50
179.7059623
51
187.9160759
0
ARC
8
bottom_labelLayer
10
267.8387849
20
153.3869441
40
5.1674586
50
187.7639332
51
200.097688
0
ARC
8
bottom_labelLayer
10
266.1801054
20
152.7792015
40
3.4009457
50
200.0845876
51
216.9131503
0
ARC
8
bottom_labelLayer
10
265.5744128
20
152.3467092
40
2.6569704
50
217.300954
51
261.7099073
0
ARC
8
bottom_labelLayer
10
265.8555942
20
153.6884754
40
4.0261509
50
260.5033133
51
270.2476938
0
ARC
8
bottom_labelLayer
10
265.9092647
20
153.4275734
40
3.765386
50
269.4481646
51
284.7255643
0
ARC
8
bottom_labelLayer
10
266.2073479
20
152.3220773
40
2.620441
50
284.566235
51
322.6333878
0
ARC
8
bottom_labelLayer
10
265.5104142
20
152.825581
40
3.4799996
50
323.0089266
51
342.6390508
0
ARC
8
bottom_labelLayer
10
263.5170292
20
153.4770766
40
5.5770392
50
342.3615704
51
353.7537499
0
ARC
8
bottom_labelLayer
10
260.5761037
20
153.8315641
40
8.539136
50
353.5363189
51
0.2014064
0
ARC
8
bottom_labelLayer
10
261.0267431
20
153.9028657
40
8.0885493
50
359.7075543
51
7.8972827
0
ARC
8
bottom_labelLayer
10
263.9889775
20
154.3275305
40
5.0960791
50
7.7440005
51
20.0690174
0
ARC
8
bottom_labelLayer
10
265.6396699
20
154.9332721
40
3.3377565
50
20.0257107
51
37.4350558
0
ARC
8
bottom_labelLayer
10
266.187355
20
155.3219016
40
2.6667491
50
37.9577645
51
80.400615
0
ARC
8
bottom_labelLayer
10
265.8761244
20
153.9332181
40
4.0885816
50
79.345353
51
90.3174962
0
ARC
8
bottom_labelLayer
10
265.818494
20
154.1638869
40
3.8580087
50
89.4805853
51
103.8805168
0
ARC
8
bottom_labelLayer
10
265.4943217
20
155.3983298
40
2.5819124
50
103.4685218
51
142.3118841
0
ARC
8
bottom_labelLayer
10
266.1245348
20
154.9551184
40
3.3517727
50
142.9025565
51
162.3749748
0
ARC
8
bottom_labelLayer
10
268.1103506
20
154.293348
40
5.4448258
50
162.0652994
51
173.1674849
0
ARC
8
bottom_labelLayer
10
271.2067721
20
153.898416
40
8.5662738
50
173.0086063
51
180.2463739
0
LINE
8
bottom_labelLayer
10
288.9003433
20
148.5002527
11
287.2792495
21
148.5002527
0
LINE
8
bottom_labelLayer
10
287.2792495
20
148.5002527
11
287.2792495
21
155.4631433
0
LINE
8
bottom_labelLayer
10
282.0741714
20
154.4768152
11
282.0741714
21
148.5002527
0
LINE
8
bottom_labelLayer
10
282.0741714
20
148.5002527
11
280.4530776
21
148.5002527
0
LINE
8
bottom_labelLayer
10
280.4530776
20
148.5002527
11
280.4530776
21
155.4631433
0
LINE
8
bottom_labelLayer
10
275.2577651
20
154.1154871
11
275.2577651
21
148.5002527
0
LINE
8
bottom_labelLayer
10
275.2577651
20
148.5002527
11
273.6366714
21
148.5002527
0
LINE
8
bottom_labelLayer
10
273.6366714
20
148.5002527
11
273.6366714
21
159.2033777
0
LINE
8
bottom_labelLayer
10
273.6366714
20
159.2033777
11
274.9550308
21
159.2033777
0
LINE
8
bottom_labelLayer
10
274.9550308
20
159.2033777
11
275.2187026
21
157.7385339
0
LINE
8
bottom_labelLayer
10
275.2187026
20
157.7385339
11
275.2968276
21
157.7385339
0
LINE
8
bottom_labelLayer
10
281.7421401
20
157.5822839
11
281.8202651
21
157.5822839
0
LINE
8
bottom_labelLayer
10
288.9003433
20
155.4826746
11
288.9003433
21
148.5002527
0
ARC
8
bottom_labelLayer
10
282.4969733
20
155.4886162
40
4.782344
50
359.6948153
51
8.147152
0
ARC
8
bottom_labelLayer
10
284.2584598
20
155.7492964
40
3.0017048
50
7.9864605
51
20.7949836
0
ARC
8
bottom_labelLayer
10
285.2321531
20
156.1222828
40
1.9590239
50
20.7071465
51
40.0217449
0
ARC
8
bottom_labelLayer
10
285.4457648
20
156.2620459
40
1.7058312
50
41.0408115
51
73.1792552
0
ARC
8
bottom_labelLayer
10
285.1366758
20
155.3272025
40
2.6902401
50
72.6395403
51
86.2568077
0
ARC
8
bottom_labelLayer
10
285.0376566
20
154.2587189
40
3.7630208
50
85.81445
51
90.0685292
0
ARC
8
bottom_labelLayer
10
285.0012789
20
153.8505182
40
4.1713407
50
89.5621493
51
101.2961529
0
ARC
8
bottom_labelLayer
10
284.6871061
20
155.3545771
40
2.6349128
50
101.0032238
51
121.7840516
0
ARC
8
bottom_labelLayer
10
284.4482596
20
155.7809867
40
2.1467512
50
122.3597345
51
140.2884087
0
ARC
8
bottom_labelLayer
10
284.8779734
20
155.4659061
40
2.6788228
50
140.9765347
51
161.1699396
0
ARC
8
bottom_labelLayer
10
286.4967928
20
154.8898042
40
4.3970061
50
160.873164
51
172.5272498
0
ARC
8
bottom_labelLayer
10
289.2018435
20
154.5162183
40
7.1276931
50
172.3776652
51
180.1829453
0
ARC
8
bottom_labelLayer
10
290.943022
20
154.4769316
40
8.8688507
50
179.8932236
51
180.0007521
0
ARC
8
bottom_labelLayer
10
275.6708015
20
155.4886162
40
4.782344
50
359.6948153
51
8.147152
0
ARC
8
bottom_labelLayer
10
277.4322879
20
155.7492964
40
3.0017048
50
7.9864605
51
20.7949836
0
ARC
8
bottom_labelLayer
10
278.4059812
20
156.1222828
40
1.9590239
50
20.7071465
51
40.0217449
0
ARC
8
bottom_labelLayer
10
278.6240341
20
156.2651141
40
1.7004671
50
41.0610899
51
72.8993439
0
ARC
8
bottom_labelLayer
10
278.3090909
20
155.3274918
40
2.6893653
50
72.3601097
51
85.9562019
0
ARC
8
bottom_labelLayer
10
278.2024755
20
154.2256723
40
3.7960685
50
85.5237589
51
90.07935
0
ARC
8
bottom_labelLayer
10
278.1661097
20
153.9955317
40
4.0263255
50
89.5573115
51
101.483221
0
ARC
8
bottom_labelLayer
10
277.8570769
20
155.4434193
40
2.5459395
50
101.1546486
51
123.0655533
0
ARC
8
bottom_labelLayer
10
277.6470092
20
155.809348
40
2.1247927
50
123.7020404
51
142.3022159
0
ARC
8
bottom_labelLayer
10
278.1390743
20
155.4755241
40
2.7185185
50
143.0769734
51
161.3913907
0
ARC
8
bottom_labelLayer
10
280.1225775
20
154.7749976
40
4.8219637
50
161.0234665
51
171.4468871
0
ARC
8
bottom_labelLayer
10
283.4062022
20
154.2606322
40
8.1455941
50
171.3042099
51
178.3501498
0
ARC
8
bottom_labelLayer
10
286.5445627
20
154.120469
40
11.2867988
50
178.0976131
51
180.0252899
0
ARC
8
bottom_labelLayer
10
278.0431804
20
156.1235426
40
3.1860086
50
117.1209603
51
149.5423642
0
ARC
8
bottom_labelLayer
10
278.3683394
20
155.5456123
40
3.848711
50
93.8343339
51
117.5072086
0
ARC
8
bottom_labelLayer
10
278.458145
20
154.7501799
40
4.648511
50
89.9661644
51
94.2831456
0
ARC
8
bottom_labelLayer
10
278.5119586
20
154.0914711
40
5.3074648
50
77.557218
51
90.5513091
0
ARC
8
bottom_labelLayer
10
279.0044331
20
156.2096907
40
3.1329837
50
52.7027168
51
78.0053836
0
ARC
8
bottom_labelLayer
10
279.1798934
20
156.5361399
40
2.7675848
50
22.2097854
51
51.4970615
0
ARC
8
bottom_labelLayer
10
284.7569481
20
155.8992638
40
3.3847694
50
119.4041798
51
150.1828736
0
ARC
8
bottom_labelLayer
10
285.1324272
20
155.3282593
40
4.0668329
50
118.2584996
51
120.0630391
0
ARC
8
bottom_labelLayer
10
285.1312646
20
155.2866835
40
4.1029554
50
95.8635087
51
117.9693201
0
ARC
8
bottom_labelLayer
10
285.2701254
20
154.2826255
40
5.1160697
50
89.9196905
51
96.2617621
0
ARC
8
bottom_labelLayer
10
285.3147045
20
153.7637916
40
5.6350228
50
79.9361132
51
90.3803608
0
ARC
8
bottom_labelLayer
10
285.6901727
20
155.7972964
40
3.5672237
50
62.9723397
51
80.1665017
0
ARC
8
bottom_labelLayer
10
286.0826767
20
156.6025653
40
2.6715881
50
44.2290167
51
62.6229071
0
ARC
8
bottom_labelLayer
10
285.965938
20
156.5509958
40
2.7915635
50
19.5612111
51
43.3161264
0
ARC
8
bottom_labelLayer
10
284.2704981
20
155.9141873
40
4.6024761
50
7.5041886
51
19.9645351
0
ARC
8
bottom_labelLayer
10
281.4649888
20
155.5202116
40
7.4354492
50
359.7107475
51
7.6907119
0
ENDSEC
0
EOF