<svg width="306mm" height="303mm" viewBox="0 0 306 303" xmlns="http://www.w3.org/2000/svg" version="1.1" preserveAspectRatio="xMidYMid meet"><g id="svgGroup" stroke-linecap="round" fill-rule="evenodd" font-size="9pt" stroke="#000" stroke-width="0.25mm" fill="none" style="stroke:#000;stroke-width:0.25mm;fill:none"><path d="M 0 153 L 0 183 L 3 183 L 3 201 L 0 201 L 0 219 L 3 219 L 3 237 L 0 237 L 0 255 L 3 255 L 3 273 L 0 273 L 0 291 L 0 303 L 23 303 L 23 300 L 41 300 L 41 303 L 59 303 L 59 300 L 77 300 L 77 303 L 95 303 L 100 303 L 100 273 L 97 273 L 97 255 L 100 255 L 100 237 L 97 237 L 97 219 L 100 219 L 100 201 L 97 201 L 97 183 L 100 183 L 100 165 L 100 153 L 77 153 L 77 156 L 59 156 L 59 153 L 41 153 L 41 156 L 23 156 L 23 153 L 5 153 L 0 153 Z" id="front_outsideCutPath" stroke="#FF0000" stroke-width="0.1" style="stroke:#FF0000;stroke-width:0.1" vector-effect="non-scaling-stroke"/><path d="M 64.575 235.553 L 62.954 235.553 L 62.954 228.63 Q 62.954 227.796 62.712 227.231 A 1.928 1.928 0 0 0 62.358 226.677 A 1.828 1.828 0 0 0 61.609 226.198 Q 61.314 226.094 60.952 226.055 A 4.298 4.298 0 0 0 60.493 226.032 Q 59.387 226.032 58.67 226.426 A 2.286 2.286 0 0 0 58.032 226.94 A 2.65 2.65 0 0 0 57.572 227.746 Q 57.294 228.484 57.257 229.586 A 10.385 10.385 0 0 0 57.251 229.938 L 57.251 235.553 L 55.63 235.553 L 55.63 224.85 L 56.948 224.85 L 57.212 226.315 L 57.29 226.315 A 3.283 3.283 0 0 1 58.576 225.145 A 3.947 3.947 0 0 1 58.687 225.09 A 4.39 4.39 0 0 1 60.249 224.673 A 5.308 5.308 0 0 1 60.688 224.655 Q 61.971 224.655 62.832 225.065 A 2.913 2.913 0 0 1 63.599 225.588 Q 64.575 226.52 64.575 228.571 L 64.575 235.553 Z M 33.433 224.85 L 33.433 226.11 L 30.708 226.11 L 30.708 235.553 L 29.087 235.553 L 29.087 226.11 L 27.173 226.11 L 27.173 225.378 L 29.087 224.792 L 29.087 224.196 Q 29.087 220.79 31.656 220.325 A 4.927 4.927 0 0 1 32.534 220.251 Q 33.195 220.251 34.032 220.457 A 10.494 10.494 0 0 1 34.526 220.593 L 34.106 221.891 A 7.872 7.872 0 0 0 33.494 221.719 Q 32.941 221.589 32.505 221.589 A 2.186 2.186 0 0 0 31.978 221.648 A 1.404 1.404 0 0 0 31.147 222.199 A 1.876 1.876 0 0 0 30.9 222.699 Q 30.735 223.187 30.712 223.913 A 7.654 7.654 0 0 0 30.708 224.157 L 30.708 224.85 L 33.433 224.85 Z M 72.827 234.216 L 72.827 235.456 A 1.595 1.595 0 0 1 72.638 235.531 Q 72.436 235.598 72.148 235.649 A 6.063 6.063 0 0 1 72.051 235.666 Q 71.572 235.743 71.183 235.748 A 4.156 4.156 0 0 1 71.128 235.749 A 4.234 4.234 0 0 1 69.88 235.581 Q 68.509 235.158 68.15 233.668 A 5.096 5.096 0 0 1 68.022 232.477 L 68.022 226.11 L 66.489 226.11 L 66.489 225.329 L 68.022 224.655 L 68.706 222.37 L 69.644 222.37 L 69.644 224.85 L 72.749 224.85 L 72.749 226.11 L 69.644 226.11 L 69.644 232.409 A 3.264 3.264 0 0 0 69.691 232.982 Q 69.747 233.297 69.87 233.546 A 1.572 1.572 0 0 0 70.103 233.893 A 1.506 1.506 0 0 0 71.028 234.386 A 2.167 2.167 0 0 0 71.362 234.411 A 5.324 5.324 0 0 0 72.142 234.355 A 4.914 4.914 0 0 0 72.192 234.347 A 8.77 8.77 0 0 0 72.426 234.307 Q 72.65 234.266 72.805 234.222 A 2.43 2.43 0 0 0 72.827 234.216 Z M 41.548 224.772 L 41.323 226.276 A 7.145 7.145 0 0 0 40.809 226.181 Q 40.553 226.144 40.325 226.134 A 3.802 3.802 0 0 0 40.151 226.13 A 2.809 2.809 0 0 0 38.076 227.026 A 3.843 3.843 0 0 0 37.93 227.184 A 3.702 3.702 0 0 0 37.037 229.263 A 4.921 4.921 0 0 0 37.007 229.811 L 37.007 235.553 L 35.386 235.553 L 35.386 224.85 L 36.724 224.85 L 36.909 226.833 L 36.987 226.833 A 5.474 5.474 0 0 1 37.599 225.958 A 4.182 4.182 0 0 1 38.423 225.221 Q 39.263 224.655 40.269 224.655 A 7.442 7.442 0 0 1 40.935 224.683 A 5.432 5.432 0 0 1 41.548 224.772 Z M 52.639 231.821 A 8.374 8.374 0 0 0 52.788 230.192 A 9.514 9.514 0 0 0 52.785 229.935 Q 52.721 227.567 51.465 226.149 A 4.244 4.244 0 0 0 49.495 224.879 A 5.447 5.447 0 0 0 47.896 224.655 A 6.296 6.296 0 0 0 46.765 224.752 A 4.288 4.288 0 0 0 44.263 226.115 Q 43.394 227.085 43.102 228.564 A 8.417 8.417 0 0 0 42.954 230.192 A 8.11 8.11 0 0 0 43.056 231.506 A 5.997 5.997 0 0 0 43.56 233.141 A 5.328 5.328 0 0 0 43.678 233.372 A 4.389 4.389 0 0 0 45.278 235.075 A 4.514 4.514 0 0 0 46.314 235.536 A 5.206 5.206 0 0 0 47.827 235.749 A 6.295 6.295 0 0 0 48.926 235.657 A 4.322 4.322 0 0 0 51.47 234.279 Q 52.345 233.303 52.639 231.821 Z M 44.634 230.192 Q 44.634 232.243 45.454 233.317 A 2.657 2.657 0 0 0 47.185 234.336 A 4.026 4.026 0 0 0 47.866 234.391 A 3.765 3.765 0 0 0 48.86 234.268 A 2.62 2.62 0 0 0 50.283 233.322 Q 51.108 232.253 51.108 230.192 Q 51.108 228.883 50.769 227.977 A 3.338 3.338 0 0 0 50.283 227.092 A 2.667 2.667 0 0 0 48.625 226.102 A 4.089 4.089 0 0 0 47.847 226.032 A 3.858 3.858 0 0 0 46.886 226.145 A 2.582 2.582 0 0 0 45.444 227.077 Q 44.861 227.829 44.697 229.113 A 8.566 8.566 0 0 0 44.634 230.192 Z" id="front_labelLayer" stroke="#777777" fill="#777777" style="stroke:#777777;fill:#777777" vector-effect="non-scaling-stroke"/><path d="M 106 153 L 106 183 L 103 183 L 103 201 L 106 201 L 106 219 L 103 219 L 103 237 L 106 237 L 106 255 L 103 255 L 103 273 L 106 273 L 106 291 L 106 303 L 126 303 L 126 300 L 144 300 L 144 303 L 162 303 L 162 300 L 180 300 L 180 303 L 198 303 L 200 303 L 200 273 L 203 273 L 203 255 L 200 255 L 200 237 L 203 237 L 203 219 L 200 219 L 200 201 L 203 201 L 203 183 L 200 183 L 200 165 L 200 153 L 180 153 L 180 156 L 162 156 L 162 153 L 144 153 L 144 156 L 126 156 L 126 153 L 108 153 L 106 153 Z" id="left_outsideCutPath" stroke="#FF0000" stroke-width="0.1" style="stroke:#FF0000;stroke-width:0.1" vector-effect="non-scaling-stroke"/><path d="M 160.114 224.85 L 160.114 226.11 L 157.39 226.11 L 157.39 235.553 L 155.769 235.553 L 155.769 226.11 L 153.854 226.11 L 153.854 225.378 L 155.769 224.792 L 155.769 224.196 Q 155.769 220.79 158.338 220.325 A 4.927 4.927 0 0 1 159.216 220.251 Q 159.876 220.251 160.714 220.457 A 10.494 10.494 0 0 1 161.208 220.593 L 160.788 221.891 A 7.872 7.872 0 0 0 160.176 221.719 Q 159.622 221.589 159.187 221.589 A 2.186 2.186 0 0 0 158.66 221.648 A 1.404 1.404 0 0 0 157.829 222.199 A 1.876 1.876 0 0 0 157.581 222.699 Q 157.417 223.187 157.393 223.913 A 7.654 7.654 0 0 0 157.39 224.157 L 157.39 224.85 L 160.114 224.85 Z M 152.526 229.47 L 152.526 230.495 L 145.153 230.495 A 6.506 6.506 0 0 0 145.267 231.584 Q 145.384 232.178 145.619 232.646 A 3.044 3.044 0 0 0 146.105 233.356 A 2.946 2.946 0 0 0 147.652 234.228 A 4.463 4.463 0 0 0 148.649 234.333 A 8.562 8.562 0 0 0 151.856 233.698 A 9.811 9.811 0 0 0 152.067 233.61 L 152.067 235.055 A 9.732 9.732 0 0 1 151.18 235.39 A 7.442 7.442 0 0 1 150.441 235.588 Q 149.845 235.713 149.058 235.741 A 13.207 13.207 0 0 1 148.591 235.749 A 6.299 6.299 0 0 1 147.014 235.562 A 4.461 4.461 0 0 1 144.846 234.303 Q 143.474 232.858 143.474 230.29 A 8.512 8.512 0 0 1 143.631 228.602 Q 143.839 227.576 144.32 226.778 A 4.8 4.8 0 0 1 144.748 226.178 A 4.154 4.154 0 0 1 147.776 224.668 A 5.731 5.731 0 0 1 148.171 224.655 A 4.939 4.939 0 0 1 149.562 224.841 A 3.758 3.758 0 0 1 151.354 225.978 A 4.533 4.533 0 0 1 152.382 228.05 A 6.598 6.598 0 0 1 152.526 229.47 Z M 166.989 234.216 L 166.989 235.456 A 1.595 1.595 0 0 1 166.8 235.531 Q 166.598 235.598 166.31 235.649 A 6.063 6.063 0 0 1 166.213 235.666 Q 165.734 235.743 165.345 235.748 A 4.156 4.156 0 0 1 165.29 235.749 A 4.234 4.234 0 0 1 164.042 235.581 Q 162.671 235.158 162.312 233.668 A 5.096 5.096 0 0 1 162.185 232.477 L 162.185 226.11 L 160.651 226.11 L 160.651 225.329 L 162.185 224.655 L 162.868 222.37 L 163.806 222.37 L 163.806 224.85 L 166.911 224.85 L 166.911 226.11 L 163.806 226.11 L 163.806 232.409 A 3.264 3.264 0 0 0 163.853 232.982 Q 163.909 233.297 164.032 233.546 A 1.572 1.572 0 0 0 164.265 233.893 A 1.506 1.506 0 0 0 165.19 234.386 A 2.167 2.167 0 0 0 165.524 234.411 A 5.324 5.324 0 0 0 166.304 234.355 A 4.914 4.914 0 0 0 166.354 234.347 A 8.77 8.77 0 0 0 166.589 234.307 Q 166.812 234.266 166.968 234.222 A 2.43 2.43 0 0 0 166.989 234.216 Z M 140.632 220.358 L 140.632 235.553 L 139.011 235.553 L 139.011 220.358 L 140.632 220.358 Z M 145.192 229.177 L 150.788 229.177 A 5.524 5.524 0 0 0 150.721 228.288 Q 150.574 227.389 150.104 226.828 A 2.221 2.221 0 0 0 148.767 226.067 A 3.332 3.332 0 0 0 148.151 226.012 A 3.196 3.196 0 0 0 147.228 226.139 A 2.469 2.469 0 0 0 146.096 226.852 Q 145.402 227.612 145.224 228.9 A 6.124 6.124 0 0 0 145.192 229.177 Z" id="left_labelLayer" stroke="#777777" fill="#777777" style="stroke:#777777;fill:#777777" vector-effect="non-scaling-stroke"/><path d="M 209 206 L 209 226 L 206 226 L 206 244 L 209 244 L 209 262 L 206 262 L 206 280 L 209 280 L 209 298 L 209 300 L 229 300 L 229 303 L 247 303 L 247 300 L 265 300 L 265 303 L 283 303 L 283 300 L 301 300 L 303 300 L 303 280 L 306 280 L 306 262 L 303 262 L 303 244 L 306 244 L 306 226 L 303 226 L 303 208 L 303 206 L 283 206 L 283 203 L 265 203 L 265 206 L 247 206 L 247 203 L 229 203 L 229 206 L 211 206 L 209 206 Z" id="top_outsideCutPath" stroke="#FF0000" stroke-width="0.1" style="stroke:#FF0000;stroke-width:0.1" vector-effect="non-scaling-stroke"/><path d="M 263.187 255.813 L 263.07 255.813 A 15.342 15.342 0 0 1 263.171 256.946 A 12.855 12.855 0 0 1 263.187 257.59 L 263.187 261.994 L 261.566 261.994 L 261.566 246.486 L 262.885 246.486 L 263.109 247.951 L 263.187 247.951 A 4.364 4.364 0 0 1 263.818 247.234 A 3.374 3.374 0 0 1 264.642 246.682 Q 265.473 246.291 266.547 246.291 A 4.969 4.969 0 0 1 267.951 246.479 A 3.673 3.673 0 0 1 269.833 247.746 Q 270.779 248.935 270.952 250.908 A 10.556 10.556 0 0 1 270.99 251.828 Q 270.99 254.465 269.813 255.925 A 3.838 3.838 0 0 1 267.086 257.359 A 5.498 5.498 0 0 1 266.547 257.385 A 4.917 4.917 0 0 1 265.311 257.234 A 4.278 4.278 0 0 1 264.638 256.999 Q 263.773 256.613 263.187 255.813 Z M 247.348 255.852 L 247.348 257.092 A 1.595 1.595 0 0 1 247.158 257.167 Q 246.957 257.234 246.668 257.285 A 6.063 6.063 0 0 1 246.571 257.302 Q 246.093 257.379 245.703 257.384 A 4.156 4.156 0 0 1 245.648 257.385 A 4.234 4.234 0 0 1 244.401 257.217 Q 243.029 256.794 242.67 255.304 A 5.096 5.096 0 0 1 242.543 254.113 L 242.543 247.746 L 241.01 247.746 L 241.01 246.965 L 242.543 246.291 L 243.226 244.006 L 244.164 244.006 L 244.164 246.486 L 247.269 246.486 L 247.269 247.746 L 244.164 247.746 L 244.164 254.045 A 3.264 3.264 0 0 0 244.211 254.618 Q 244.267 254.933 244.391 255.182 A 1.572 1.572 0 0 0 244.623 255.529 A 1.506 1.506 0 0 0 245.549 256.022 A 2.167 2.167 0 0 0 245.883 256.047 A 5.324 5.324 0 0 0 246.663 255.991 A 4.914 4.914 0 0 0 246.713 255.983 A 8.77 8.77 0 0 0 246.947 255.943 Q 247.171 255.902 247.326 255.858 A 2.43 2.43 0 0 0 247.348 255.852 Z M 258.576 253.457 A 8.374 8.374 0 0 0 258.725 251.828 A 9.514 9.514 0 0 0 258.721 251.571 Q 258.657 249.203 257.401 247.785 A 4.244 4.244 0 0 0 255.431 246.514 A 5.447 5.447 0 0 0 253.832 246.291 A 6.296 6.296 0 0 0 252.701 246.388 A 4.288 4.288 0 0 0 250.199 247.751 Q 249.33 248.72 249.038 250.2 A 8.417 8.417 0 0 0 248.891 251.828 A 8.11 8.11 0 0 0 248.992 253.142 A 5.997 5.997 0 0 0 249.496 254.777 A 5.328 5.328 0 0 0 249.614 255.008 A 4.389 4.389 0 0 0 251.215 256.711 A 4.514 4.514 0 0 0 252.251 257.172 A 5.206 5.206 0 0 0 253.764 257.385 A 6.295 6.295 0 0 0 254.863 257.293 A 4.322 4.322 0 0 0 257.406 255.915 Q 258.282 254.939 258.576 253.457 Z M 250.57 251.828 Q 250.57 253.879 251.391 254.953 A 2.657 2.657 0 0 0 253.121 255.972 A 4.026 4.026 0 0 0 253.803 256.027 A 3.765 3.765 0 0 0 254.796 255.904 A 2.62 2.62 0 0 0 256.22 254.958 Q 257.045 253.889 257.045 251.828 Q 257.045 250.519 256.705 249.613 A 3.338 3.338 0 0 0 256.22 248.728 A 2.667 2.667 0 0 0 254.562 247.738 A 4.089 4.089 0 0 0 253.783 247.668 A 3.858 3.858 0 0 0 252.823 247.78 A 2.582 2.582 0 0 0 251.381 248.713 Q 250.797 249.465 250.634 250.749 A 8.566 8.566 0 0 0 250.57 251.828 Z M 263.187 251.467 L 263.187 251.828 A 10.719 10.719 0 0 0 263.24 252.936 Q 263.357 254.054 263.73 254.734 A 2.445 2.445 0 0 0 263.939 255.056 A 2.352 2.352 0 0 0 265.132 255.861 Q 265.664 256.027 266.351 256.027 Q 267.685 256.027 268.463 254.989 A 3.23 3.23 0 0 0 268.524 254.904 A 3.919 3.919 0 0 0 269.062 253.759 Q 269.217 253.234 269.275 252.603 A 8.636 8.636 0 0 0 269.31 251.809 A 8.181 8.181 0 0 0 269.234 250.648 Q 269.065 249.472 268.524 248.737 A 2.522 2.522 0 0 0 266.68 247.687 A 3.488 3.488 0 0 0 266.312 247.668 A 4.671 4.671 0 0 0 265.44 247.744 Q 264.46 247.93 263.939 248.576 A 2.777 2.777 0 0 0 263.505 249.368 Q 263.23 250.114 263.193 251.218 A 10.316 10.316 0 0 0 263.187 251.467 Z" id="top_labelLayer" stroke="#777777" fill="#777777" style="stroke:#777777;fill:#777777" vector-effect="non-scaling-stroke"/><path d="M 0 0 L 0 30 L 3 30 L 3 48 L 0 48 L 0 66 L 3 66 L 3 84 L 0 84 L 0 102 L 3 102 L 3 120 L 0 120 L 0 138 L 0 150 L 23 150 L 23 147 L 41 147 L 41 150 L 59 150 L 59 147 L 77 147 L 77 150 L 95 150 L 100 150 L 100 120 L 97 120 L 97 102 L 100 102 L 100 84 L 97 84 L 97 66 L 100 66 L 100 48 L 97 48 L 97 30 L 100 30 L 100 12 L 100 0 L 77 0 L 77 3 L 59 3 L 59 0 L 41 0 L 41 3 L 23 3 L 23 0 L 5 0 L 0 0 Z" id="back_outsideCutPath" stroke="#FF0000" stroke-width="0.1" style="stroke:#FF0000;stroke-width:0.1" vector-effect="non-scaling-stroke"/><path d="M 63.691 77.021 L 63.77 77.021 Q 64.189 76.426 65.049 75.459 L 68.506 71.797 L 70.43 71.797 L 66.094 76.357 L 70.732 82.5 L 68.77 82.5 L 64.99 77.441 L 63.77 78.496 L 63.77 82.5 L 62.168 82.5 L 62.168 67.305 L 63.77 67.305 L 63.77 75.361 A 10.803 10.803 0 0 1 63.765 75.666 Q 63.75 76.179 63.691 77.021 Z M 30.889 81.123 L 30.771 81.123 L 30.43 82.5 L 29.268 82.5 L 29.268 67.305 L 30.889 67.305 L 30.889 70.996 Q 30.889 72.196 30.816 73.159 A 20.218 20.218 0 0 1 30.811 73.223 L 30.889 73.223 A 3.686 3.686 0 0 1 33.579 71.66 A 5.537 5.537 0 0 1 34.248 71.621 A 4.955 4.955 0 0 1 35.642 71.807 A 3.709 3.709 0 0 1 37.524 73.061 A 4.777 4.777 0 0 1 38.362 74.675 Q 38.568 75.339 38.645 76.135 A 10.405 10.405 0 0 1 38.691 77.139 Q 38.691 79.775 37.515 81.235 A 3.838 3.838 0 0 1 34.787 82.669 A 5.498 5.498 0 0 1 34.248 82.695 A 4.917 4.917 0 0 1 33.012 82.545 A 4.278 4.278 0 0 1 32.339 82.309 Q 31.475 81.924 30.889 81.123 Z M 49.307 82.5 L 48.105 82.5 L 47.783 80.976 L 47.705 80.976 A 6.72 6.72 0 0 1 47.161 81.585 Q 46.869 81.873 46.577 82.073 A 2.987 2.987 0 0 1 46.108 82.339 Q 45.313 82.695 44.121 82.695 A 4.975 4.975 0 0 1 43.109 82.598 Q 42.219 82.413 41.626 81.875 A 2.665 2.665 0 0 1 40.822 80.47 A 4.079 4.079 0 0 1 40.723 79.541 Q 40.723 76.403 45.579 76.156 A 15.834 15.834 0 0 1 45.908 76.142 L 47.725 76.084 L 47.725 75.42 A 4.656 4.656 0 0 0 47.679 74.747 Q 47.629 74.402 47.522 74.126 A 1.809 1.809 0 0 0 47.183 73.559 A 1.646 1.646 0 0 0 46.509 73.12 Q 46.239 73.022 45.904 72.983 A 4.005 4.005 0 0 0 45.449 72.959 Q 44.374 72.959 43.071 73.489 A 10.857 10.857 0 0 0 42.422 73.779 L 41.924 72.539 A 7.474 7.474 0 0 1 43.366 71.946 A 8.508 8.508 0 0 1 43.657 71.865 A 7.507 7.507 0 0 1 45.547 71.621 A 6.847 6.847 0 0 1 46.59 71.695 Q 47.733 71.872 48.384 72.471 Q 49.107 73.137 49.264 74.434 A 6.379 6.379 0 0 1 49.307 75.195 L 49.307 82.5 Z M 59.785 72.158 L 59.287 73.535 A 7.212 7.212 0 0 0 58.505 73.275 A 8.613 8.613 0 0 0 58.115 73.179 Q 57.572 73.057 57.136 73.04 A 3.593 3.593 0 0 0 56.992 73.037 Q 53.73 73.037 53.73 77.197 A 7.851 7.851 0 0 0 53.808 78.34 Q 53.979 79.499 54.526 80.224 A 2.575 2.575 0 0 0 56.194 81.221 A 3.922 3.922 0 0 0 56.885 81.279 A 6.786 6.786 0 0 0 58.757 81.007 A 8.379 8.379 0 0 0 59.629 80.703 L 59.629 82.139 A 4.611 4.611 0 0 1 58.501 82.538 Q 57.98 82.653 57.373 82.684 A 8.89 8.89 0 0 1 56.924 82.695 A 6.059 6.059 0 0 1 55.45 82.526 A 4.108 4.108 0 0 1 53.325 81.265 Q 52.224 80.029 52.074 77.908 A 9.802 9.802 0 0 1 52.051 77.217 A 8.945 8.945 0 0 1 52.189 75.59 Q 52.357 74.683 52.729 73.968 A 4.469 4.469 0 0 1 53.345 73.066 A 4.198 4.198 0 0 1 55.643 71.745 A 6.363 6.363 0 0 1 57.031 71.601 A 7.316 7.316 0 0 1 58.574 71.767 Q 59.337 71.932 59.775 72.153 A 2.415 2.415 0 0 1 59.785 72.158 Z M 34.014 72.978 A 4.555 4.555 0 0 0 33.131 73.058 Q 32.142 73.254 31.621 73.931 A 2.775 2.775 0 0 0 31.219 74.696 Q 30.948 75.455 30.899 76.61 A 12.49 12.49 0 0 0 30.889 77.139 A 10.719 10.719 0 0 0 30.942 78.246 Q 31.058 79.364 31.431 80.044 A 2.445 2.445 0 0 0 31.641 80.366 A 2.352 2.352 0 0 0 32.834 81.171 Q 33.365 81.338 34.053 81.338 Q 35.547 81.338 36.279 80.249 A 3.721 3.721 0 0 0 36.74 79.253 Q 36.884 78.78 36.952 78.207 A 9.289 9.289 0 0 0 37.012 77.119 A 9.578 9.578 0 0 0 36.954 76.028 Q 36.816 74.834 36.354 74.113 A 2.689 2.689 0 0 0 36.279 74.004 Q 35.547 72.978 34.014 72.978 Z M 47.686 78.203 L 47.686 77.236 L 46.064 77.305 Q 44.45 77.362 43.588 77.742 A 2.49 2.49 0 0 0 43.276 77.905 A 1.73 1.73 0 0 0 42.452 79.16 A 2.56 2.56 0 0 0 42.422 79.56 A 2.317 2.317 0 0 0 42.479 80.092 Q 42.575 80.5 42.833 80.781 A 1.444 1.444 0 0 0 42.954 80.898 A 1.765 1.765 0 0 0 43.615 81.249 Q 43.979 81.357 44.443 81.357 Q 45.957 81.357 46.821 80.527 Q 47.681 79.702 47.686 78.219 A 5.163 5.163 0 0 0 47.686 78.203 Z" id="back_labelLayer" stroke="#777777" fill="#777777" style="stroke:#777777;fill:#777777" vector-effect="non-scaling-stroke"/><path d="M 106 0 L 106 30 L 103 30 L 103 48 L 106 48 L 106 66 L 103 66 L 103 84 L 106 84 L 106 102 L 103 102 L 103 120 L 106 120 L 106 138 L 106 150 L 126 150 L 126 147 L 144 147 L 144 150 L 162 150 L 162 147 L 180 147 L 180 150 L 198 150 L 200 150 L 200 120 L 203 120 L 203 102 L 200 102 L 200 84 L 203 84 L 203 66 L 200 66 L 200 48 L 203 48 L 203 30 L 200 30 L 200 12 L 200 0 L 180 0 L 180 3 L 162 3 L 162 0 L 144 0 L 144 3 L 126 3 L 126 0 L 108 0 L 106 0 Z" id="right_outsideCutPath" stroke="#FF0000" stroke-width="0.1" style="stroke:#FF0000;stroke-width:0.1" vector-effect="non-scaling-stroke"/><path d="M 165.437 80.195 L 163.815 80.195 L 163.815 73.271 Q 163.815 72.437 163.573 71.873 A 1.928 1.928 0 0 0 163.22 71.318 A 1.828 1.828 0 0 0 162.47 70.84 Q 162.176 70.736 161.814 70.697 A 4.298 4.298 0 0 0 161.354 70.674 A 4.906 4.906 0 0 0 160.437 70.754 Q 159.929 70.851 159.537 71.065 A 2.27 2.27 0 0 0 158.889 71.592 Q 158.112 72.51 158.112 74.6 L 158.112 80.195 L 156.491 80.195 L 156.491 65 L 158.112 65 L 158.112 69.6 A 14.583 14.583 0 0 1 158.102 70.16 Q 158.092 70.422 158.072 70.648 A 6.341 6.341 0 0 1 158.034 70.977 L 158.132 70.977 A 3.239 3.239 0 0 1 159.267 69.884 A 3.957 3.957 0 0 1 159.494 69.761 A 4.162 4.162 0 0 1 160.86 69.356 A 5.261 5.261 0 0 1 161.511 69.316 Q 162.802 69.316 163.668 69.72 A 2.922 2.922 0 0 1 164.455 70.249 A 2.823 2.823 0 0 1 165.151 71.342 Q 165.318 71.797 165.388 72.361 A 7.01 7.01 0 0 1 165.437 73.213 L 165.437 80.195 Z M 150.593 69.492 L 154.294 69.492 L 154.294 70.518 L 152.312 70.752 Q 152.585 71.094 152.8 71.645 A 3.119 3.119 0 0 1 152.984 72.39 A 4.005 4.005 0 0 1 153.015 72.891 A 3.716 3.716 0 0 1 152.844 74.043 A 3.006 3.006 0 0 1 151.94 75.4 Q 150.973 76.245 149.355 76.329 A 7.041 7.041 0 0 1 148.991 76.338 Q 148.513 76.338 148.093 76.26 Q 147.502 76.572 147.248 76.976 A 1.22 1.22 0 0 0 147.058 77.637 A 0.84 0.84 0 0 0 147.1 77.912 Q 147.178 78.137 147.397 78.273 A 0.9 0.9 0 0 0 147.419 78.286 A 1.137 1.137 0 0 0 147.671 78.39 Q 148.034 78.496 148.659 78.496 L 150.554 78.496 A 6.636 6.636 0 0 1 151.561 78.568 Q 152.088 78.649 152.514 78.822 A 2.93 2.93 0 0 1 153.225 79.228 A 2.372 2.372 0 0 1 154.106 80.739 A 3.562 3.562 0 0 1 154.157 81.357 A 3.51 3.51 0 0 1 153.957 82.572 Q 153.633 83.456 152.787 84.031 A 3.856 3.856 0 0 1 152.731 84.067 Q 151.306 85 148.571 85 A 9.083 9.083 0 0 1 147.353 84.924 Q 146.116 84.756 145.334 84.219 A 2.584 2.584 0 0 1 144.501 83.315 Q 144.234 82.82 144.201 82.193 A 3.423 3.423 0 0 1 144.196 82.012 Q 144.196 81.035 144.821 80.322 A 2.831 2.831 0 0 1 145.794 79.614 A 4.012 4.012 0 0 1 146.579 79.355 A 1.682 1.682 0 0 1 145.926 78.827 A 1.998 1.998 0 0 1 145.891 78.779 A 1.503 1.503 0 0 1 145.615 77.967 A 1.862 1.862 0 0 1 145.612 77.871 A 1.854 1.854 0 0 1 145.706 77.274 A 1.643 1.643 0 0 1 145.925 76.846 A 2.32 2.32 0 0 1 146.231 76.5 Q 146.506 76.243 146.911 75.996 A 2.842 2.842 0 0 1 145.677 75.008 A 3.522 3.522 0 0 1 145.559 74.834 Q 145.036 74.014 145.036 72.959 A 4.684 4.684 0 0 1 145.159 71.851 A 3.081 3.081 0 0 1 146.091 70.249 A 3.443 3.443 0 0 1 147.412 69.52 Q 147.937 69.36 148.569 69.314 A 7.16 7.16 0 0 1 149.079 69.297 A 6.214 6.214 0 0 1 149.901 69.349 A 4.733 4.733 0 0 1 150.593 69.492 Z M 173.688 78.857 L 173.688 80.098 A 1.595 1.595 0 0 1 173.499 80.173 Q 173.298 80.24 173.009 80.291 A 6.063 6.063 0 0 1 172.912 80.308 Q 172.433 80.385 172.044 80.39 A 4.156 4.156 0 0 1 171.989 80.391 A 4.234 4.234 0 0 1 170.741 80.223 Q 169.37 79.799 169.011 78.309 A 5.096 5.096 0 0 1 168.884 77.119 L 168.884 70.752 L 167.351 70.752 L 167.351 69.971 L 168.884 69.297 L 169.567 67.012 L 170.505 67.012 L 170.505 69.492 L 173.61 69.492 L 173.61 70.752 L 170.505 70.752 L 170.505 77.051 A 3.264 3.264 0 0 0 170.552 77.624 Q 170.608 77.939 170.731 78.188 A 1.572 1.572 0 0 0 170.964 78.535 A 1.506 1.506 0 0 0 171.89 79.028 A 2.167 2.167 0 0 0 172.224 79.053 A 5.324 5.324 0 0 0 173.004 78.997 A 4.914 4.914 0 0 0 173.054 78.989 A 8.77 8.77 0 0 0 173.288 78.949 Q 173.511 78.907 173.667 78.864 A 2.43 2.43 0 0 0 173.688 78.857 Z M 138.474 69.414 L 138.249 70.918 A 7.145 7.145 0 0 0 137.735 70.823 Q 137.479 70.786 137.251 70.776 A 3.802 3.802 0 0 0 137.077 70.771 A 2.809 2.809 0 0 0 135.002 71.668 A 3.843 3.843 0 0 0 134.855 71.826 A 3.702 3.702 0 0 0 133.962 73.905 A 4.921 4.921 0 0 0 133.933 74.453 L 133.933 80.195 L 132.312 80.195 L 132.312 69.492 L 133.649 69.492 L 133.835 71.475 L 133.913 71.475 A 5.474 5.474 0 0 1 134.525 70.6 A 4.182 4.182 0 0 1 135.349 69.863 Q 136.188 69.297 137.194 69.297 A 7.442 7.442 0 0 1 137.861 69.325 A 5.432 5.432 0 0 1 138.474 69.414 Z M 142.097 69.492 L 142.097 80.195 L 140.476 80.195 L 140.476 69.492 L 142.097 69.492 Z M 150.036 79.951 L 148.093 79.951 Q 146.989 79.951 146.374 80.478 A 1.708 1.708 0 0 0 145.813 81.447 A 2.594 2.594 0 0 0 145.759 81.992 A 1.628 1.628 0 0 0 145.866 82.596 Q 146.02 82.985 146.396 83.248 A 1.902 1.902 0 0 0 146.491 83.31 A 2.596 2.596 0 0 0 147.13 83.584 Q 147.732 83.758 148.577 83.76 A 8.225 8.225 0 0 0 148.591 83.76 Q 150.414 83.76 151.392 83.273 A 2.692 2.692 0 0 0 151.613 83.149 A 2.365 2.365 0 0 0 152.162 82.69 A 1.772 1.772 0 0 0 152.595 81.494 A 2.193 2.193 0 0 0 152.555 81.059 Q 152.448 80.533 152.058 80.288 A 1.538 1.538 0 0 0 151.693 80.129 Q 151.304 80.009 150.69 79.97 A 10.315 10.315 0 0 0 150.036 79.951 Z M 146.999 74.303 A 1.734 1.734 0 0 0 147.272 74.619 A 2.095 2.095 0 0 0 148.116 75.077 Q 148.437 75.169 148.82 75.19 A 4.174 4.174 0 0 0 149.04 75.195 A 3.532 3.532 0 0 0 149.965 75.085 Q 151.023 74.797 151.308 73.759 A 3.283 3.283 0 0 0 151.413 72.891 A 3.486 3.486 0 0 0 151.294 71.936 Q 150.878 70.478 149.011 70.478 Q 148.135 70.478 147.569 70.84 A 1.866 1.866 0 0 0 147.253 71.094 Q 146.638 71.709 146.638 72.92 Q 146.638 73.767 146.999 74.303 Z M 140.362 66.295 A 1.796 1.796 0 0 0 140.339 66.592 Q 140.339 67.139 140.612 67.407 A 0.91 0.91 0 0 0 140.941 67.617 A 1.03 1.03 0 0 0 141.296 67.676 A 0.946 0.946 0 0 0 141.97 67.407 A 0.791 0.791 0 0 0 142.124 67.203 Q 142.253 66.96 142.253 66.592 A 1.854 1.854 0 0 0 142.245 66.416 Q 142.23 66.256 142.185 66.125 A 0.819 0.819 0 0 0 141.97 65.781 A 0.955 0.955 0 0 0 141.296 65.518 A 1.238 1.238 0 0 0 141.214 65.52 A 0.937 0.937 0 0 0 140.612 65.776 Q 140.418 65.96 140.362 66.295 Z" id="right_labelLayer" stroke="#777777" fill="#777777" style="stroke:#777777;fill:#777777" vector-effect="non-scaling-stroke"/><path d="M 209 103 L 209 123 L 206 123 L 206 141 L 209 141 L 209 159 L 206 159 L 206 177 L 209 177 L 209 195 L 209 197 L 229 197 L 229 200 L 247 200 L 247 197 L 265 197 L 265 200 L 283 200 L 283 197 L 301 197 L 303 197 L 303 177 L 306 177 L 306 159 L 303 159 L 303 141 L 306 141 L 306 123 L 303 123 L 303 105 L 303 103 L 283 103 L 283 100 L 265 100 L 265 103 L 247 103 L 247 100 L 229 100 L 229 103 L 211 103 L 209 103 Z" id="bottom_outsideCutPath" stroke="#FF0000" stroke-width="0.1" style="stroke:#FF0000;stroke-width:0.1" vector-effect="non-scaling-stroke"/><path d="M 288.9 157.5 L 287.279 157.5 L 287.279 150.537 A 4.782 4.782 0 0 0 287.231 149.834 Q 287.178 149.475 287.065 149.185 A 1.959 1.959 0 0 0 286.732 148.618 Q 286.185 147.978 285.033 147.978 Q 283.519 147.978 282.797 148.847 A 2.679 2.679 0 0 0 282.343 149.669 Q 282.074 150.422 282.074 151.523 L 282.074 157.5 L 280.453 157.5 L 280.453 150.537 A 4.782 4.782 0 0 0 280.405 149.834 Q 280.351 149.475 280.238 149.185 A 1.959 1.959 0 0 0 279.906 148.618 A 1.7 1.7 0 0 0 279.124 148.11 Q 278.843 148.017 278.499 147.99 A 3.796 3.796 0 0 0 278.197 147.978 A 4.026 4.026 0 0 0 277.365 148.059 Q 276.464 148.249 275.966 148.891 Q 275.324 149.719 275.264 151.505 A 11.287 11.287 0 0 0 275.258 151.885 L 275.258 157.5 L 273.637 157.5 L 273.637 146.797 L 274.955 146.797 L 275.219 148.261 L 275.297 148.261 Q 275.756 147.48 276.591 147.041 A 3.849 3.849 0 0 1 278.111 146.614 A 4.649 4.649 0 0 1 278.461 146.601 Q 280.015 146.601 280.903 147.298 A 2.768 2.768 0 0 1 281.742 148.418 L 281.82 148.418 A 3.385 3.385 0 0 1 283.095 147.152 A 4.067 4.067 0 0 1 283.207 147.09 A 4.103 4.103 0 0 1 284.712 146.632 A 5.116 5.116 0 0 1 285.277 146.601 Q 286.502 146.601 287.311 147.025 A 2.672 2.672 0 0 1 287.997 147.534 A 2.792 2.792 0 0 1 288.596 148.514 Q 288.9 149.328 288.9 150.517 L 288.9 157.5 Z M 224.721 156.123 L 224.603 156.123 L 224.262 157.5 L 223.1 157.5 L 223.1 142.304 L 224.721 142.304 L 224.721 145.996 Q 224.721 147.196 224.647 148.159 A 20.218 20.218 0 0 1 224.643 148.222 L 224.721 148.222 A 3.686 3.686 0 0 1 227.411 146.66 A 5.537 5.537 0 0 1 228.08 146.621 A 4.955 4.955 0 0 1 229.474 146.807 A 3.709 3.709 0 0 1 231.356 148.061 A 4.777 4.777 0 0 1 232.194 149.675 Q 232.4 150.339 232.477 151.135 A 10.405 10.405 0 0 1 232.523 152.138 Q 232.523 154.775 231.347 156.235 A 3.838 3.838 0 0 1 228.619 157.669 A 5.498 5.498 0 0 1 228.08 157.695 A 4.917 4.917 0 0 1 226.844 157.544 A 4.278 4.278 0 0 1 226.171 157.309 Q 225.307 156.924 224.721 156.123 Z M 252.357 156.162 L 252.357 157.402 A 1.595 1.595 0 0 1 252.168 157.477 Q 251.967 157.544 251.678 157.596 A 6.063 6.063 0 0 1 251.581 157.612 Q 251.102 157.69 250.713 157.695 A 4.156 4.156 0 0 1 250.658 157.695 A 4.234 4.234 0 0 1 249.41 157.527 Q 248.039 157.104 247.68 155.614 A 5.096 5.096 0 0 1 247.553 154.424 L 247.553 148.056 L 246.019 148.056 L 246.019 147.275 L 247.553 146.601 L 248.236 144.316 L 249.174 144.316 L 249.174 146.797 L 252.279 146.797 L 252.279 148.056 L 249.174 148.056 L 249.174 154.355 A 3.264 3.264 0 0 0 249.221 154.928 Q 249.277 155.243 249.4 155.492 A 1.572 1.572 0 0 0 249.633 155.84 A 1.506 1.506 0 0 0 250.559 156.332 A 2.167 2.167 0 0 0 250.893 156.357 A 5.324 5.324 0 0 0 251.672 156.301 A 4.914 4.914 0 0 0 251.723 156.294 A 8.77 8.77 0 0 0 251.957 156.254 Q 252.18 156.212 252.336 156.168 A 2.43 2.43 0 0 0 252.357 156.162 Z M 259.418 156.162 L 259.418 157.402 A 1.595 1.595 0 0 1 259.229 157.477 Q 259.027 157.544 258.738 157.596 A 6.063 6.063 0 0 1 258.642 157.612 Q 258.163 157.69 257.774 157.695 A 4.156 4.156 0 0 1 257.719 157.695 A 4.234 4.234 0 0 1 256.471 157.527 Q 255.099 157.104 254.74 155.614 A 5.096 5.096 0 0 1 254.613 154.424 L 254.613 148.056 L 253.08 148.056 L 253.08 147.275 L 254.613 146.601 L 255.297 144.316 L 256.234 144.316 L 256.234 146.797 L 259.34 146.797 L 259.34 148.056 L 256.234 148.056 L 256.234 154.355 A 3.264 3.264 0 0 0 256.281 154.928 Q 256.338 155.243 256.461 155.492 A 1.572 1.572 0 0 0 256.693 155.84 A 1.506 1.506 0 0 0 257.619 156.332 A 2.167 2.167 0 0 0 257.953 156.357 A 5.324 5.324 0 0 0 258.733 156.301 A 4.914 4.914 0 0 0 258.783 156.294 A 8.77 8.77 0 0 0 259.017 156.254 Q 259.241 156.212 259.396 156.168 A 2.43 2.43 0 0 0 259.418 156.162 Z M 244.445 153.767 A 8.374 8.374 0 0 0 244.594 152.138 A 9.514 9.514 0 0 0 244.59 151.881 Q 244.526 149.513 243.27 148.095 A 4.244 4.244 0 0 0 241.3 146.825 A 5.447 5.447 0 0 0 239.701 146.601 A 6.296 6.296 0 0 0 238.57 146.698 A 4.288 4.288 0 0 0 236.068 148.061 Q 235.199 149.031 234.907 150.511 A 8.417 8.417 0 0 0 234.76 152.138 A 8.11 8.11 0 0 0 234.862 153.452 A 5.997 5.997 0 0 0 235.365 155.088 A 5.328 5.328 0 0 0 235.483 155.319 A 4.389 4.389 0 0 0 237.084 157.021 A 4.514 4.514 0 0 0 238.12 157.482 A 5.206 5.206 0 0 0 239.633 157.695 A 6.295 6.295 0 0 0 240.732 157.603 A 4.322 4.322 0 0 0 243.275 156.225 Q 244.151 155.249 244.445 153.767 Z M 270.646 153.767 A 8.374 8.374 0 0 0 270.795 152.138 A 9.514 9.514 0 0 0 270.791 151.881 Q 270.727 149.513 269.472 148.095 A 4.244 4.244 0 0 0 267.501 146.825 A 5.447 5.447 0 0 0 265.902 146.601 A 6.296 6.296 0 0 0 264.771 146.698 A 4.288 4.288 0 0 0 262.269 148.061 Q 261.4 149.031 261.109 150.511 A 8.417 8.417 0 0 0 260.961 152.138 A 8.11 8.11 0 0 0 261.063 153.452 A 5.997 5.997 0 0 0 261.566 155.088 A 5.328 5.328 0 0 0 261.684 155.319 A 4.389 4.389 0 0 0 263.285 157.021 A 4.514 4.514 0 0 0 264.321 157.482 A 5.206 5.206 0 0 0 265.834 157.695 A 6.295 6.295 0 0 0 266.933 157.603 A 4.322 4.322 0 0 0 269.477 156.225 Q 270.352 155.249 270.646 153.767 Z M 236.439 152.138 Q 236.439 154.189 237.26 155.263 A 2.657 2.657 0 0 0 238.99 156.282 A 4.026 4.026 0 0 0 239.672 156.338 A 3.765 3.765 0 0 0 240.665 156.214 A 2.62 2.62 0 0 0 242.089 155.268 Q 242.914 154.199 242.914 152.138 Q 242.914 150.829 242.574 149.924 A 3.338 3.338 0 0 0 242.089 149.038 A 2.667 2.667 0 0 0 240.431 148.049 A 4.089 4.089 0 0 0 239.652 147.978 A 3.858 3.858 0 0 0 238.692 148.091 A 2.582 2.582 0 0 0 237.25 149.023 Q 236.666 149.775 236.503 151.059 A 8.566 8.566 0 0 0 236.439 152.138 Z M 262.641 152.138 Q 262.641 154.189 263.461 155.263 A 2.657 2.657 0 0 0 265.191 156.282 A 4.026 4.026 0 0 0 265.873 156.338 A 3.765 3.765 0 0 0 266.866 156.214 A 2.62 2.62 0 0 0 268.29 155.268 Q 269.115 154.199 269.115 152.138 Q 269.115 150.829 268.776 149.924 A 3.338 3.338 0 0 0 268.29 149.038 A 2.667 2.667 0 0 0 266.632 148.049 A 4.089 4.089 0 0 0 265.853 147.978 A 3.858 3.858 0 0 0 264.893 148.091 A 2.582 2.582 0 0 0 263.451 149.023 Q 262.868 149.775 262.704 151.059 A 8.566 8.566 0 0 0 262.641 152.138 Z M 227.846 147.978 A 4.555 4.555 0 0 0 226.963 148.058 Q 225.974 148.253 225.453 148.93 A 2.775 2.775 0 0 0 225.051 149.696 Q 224.78 150.455 224.731 151.61 A 12.49 12.49 0 0 0 224.721 152.138 A 10.719 10.719 0 0 0 224.774 153.246 Q 224.89 154.364 225.263 155.044 A 2.445 2.445 0 0 0 225.473 155.366 A 2.352 2.352 0 0 0 226.666 156.171 Q 227.197 156.338 227.885 156.338 Q 229.379 156.338 230.111 155.249 A 3.721 3.721 0 0 0 230.572 154.253 Q 230.716 153.78 230.784 153.207 A 9.289 9.289 0 0 0 230.844 152.119 A 9.578 9.578 0 0 0 230.786 151.028 Q 230.648 149.834 230.186 149.113 A 2.689 2.689 0 0 0 230.111 149.004 Q 229.379 147.978 227.846 147.978 Z" id="bottom_labelLayer" stroke="#777777" fill="#777777" style="stroke:#777777;fill:#777777" vector-effect="non-scaling-stroke"/></g></svg>