<svg width="406mm" height="403mm" viewBox="0 0 406 403" xmlns="http://www.w3.org/2000/svg" version="1.1" preserveAspectRatio="xMidYMid meet"><g id="svgGroup" stroke-linecap="round" fill-rule="evenodd" font-size="9pt" stroke="#000" stroke-width="0.25mm" fill="none" style="stroke:#000;stroke-width:0.25mm;fill:none"><path d="M 0 203 L 0 218.625 L 3 218.625 L 3 237.375 L 0 237.375 L 0 256.125 L 3 256.125 L 3 274.875 L 0 274.875 L 0 293.625 L 3 293.625 L 3 312.375 L 0 312.375 L 0 331.125 L 3 331.125 L 3 349.875 L 0 349.875 L 0 368.625 L 3 368.625 L 3 387.375 L 0 387.375 L 0 403 L 28.125 403 L 28.125 400 L 46.875 400 L 46.875 403 L 65.625 403 L 65.625 400 L 84.375 400 L 84.375 403 L 103.125 403 L 103.125 400 L 121.875 400 L 121.875 403 L 140.625 403 L 150 403 L 150 387.375 L 147 387.375 L 147 368.625 L 150 368.625 L 150 349.875 L 147 349.875 L 147 331.125 L 150 331.125 L 150 312.375 L 147 312.375 L 147 293.625 L 150 293.625 L 150 274.875 L 147 274.875 L 147 256.125 L 150 256.125 L 150 237.375 L 147 237.375 L 147 218.625 L 150 218.625 L 150 203 L 121.875 203 L 121.875 206 L 103.125 206 L 103.125 203 L 84.375 203 L 84.375 206 L 65.625 206 L 65.625 203 L 46.875 203 L 46.875 206 L 28.125 206 L 28.125 203 L 9.375 203 L 0 203 Z" id="front_outsideCutPath" stroke="#FF0000" stroke-width="0.1" style="stroke:#FF0000;stroke-width:0.1" vector-effect="non-scaling-stroke"/><path d="M 96.863 314.33 L 94.431 314.33 L 94.431 303.945 A 6.874 6.874 0 0 0 94.352 302.867 Q 94.262 302.299 94.068 301.847 A 2.893 2.893 0 0 0 93.538 301.015 A 2.741 2.741 0 0 0 92.413 300.297 Q 91.707 300.048 90.74 300.048 Q 89.08 300.048 88.005 300.639 A 3.428 3.428 0 0 0 87.048 301.41 A 3.975 3.975 0 0 0 86.357 302.618 Q 85.941 303.727 85.885 305.379 A 15.578 15.578 0 0 0 85.876 305.907 L 85.876 314.33 L 83.445 314.33 L 83.445 298.276 L 85.422 298.276 L 85.818 300.473 L 85.935 300.473 A 4.924 4.924 0 0 1 87.864 298.718 A 5.921 5.921 0 0 1 88.03 298.634 Q 89.377 297.983 91.033 297.983 A 9.601 9.601 0 0 1 92.667 298.112 Q 93.55 298.265 94.248 298.598 A 4.37 4.37 0 0 1 95.398 299.382 Q 96.512 300.446 96.779 302.481 A 10.612 10.612 0 0 1 96.863 303.857 L 96.863 314.33 Z M 50.149 298.276 L 50.149 300.165 L 46.062 300.165 L 46.062 314.33 L 43.63 314.33 L 43.63 300.165 L 40.759 300.165 L 40.759 299.067 L 43.63 298.188 L 43.63 297.294 A 9.855 9.855 0 0 1 43.86 295.061 Q 44.572 292.015 47.484 291.487 A 7.391 7.391 0 0 1 48.801 291.376 A 7.83 7.83 0 0 1 49.909 291.461 Q 50.448 291.538 51.048 291.686 A 15.741 15.741 0 0 1 51.79 291.889 L 51.16 293.837 Q 50.161 293.515 49.369 293.421 A 5.23 5.23 0 0 0 48.757 293.383 A 3.279 3.279 0 0 0 47.967 293.472 A 2.106 2.106 0 0 0 46.721 294.299 A 2.814 2.814 0 0 0 46.349 295.049 Q 46.102 295.781 46.068 296.87 A 11.48 11.48 0 0 0 46.062 297.236 L 46.062 298.276 L 50.149 298.276 Z M 109.241 312.323 L 109.241 314.184 A 2.392 2.392 0 0 1 108.957 314.296 Q 108.605 314.413 108.076 314.499 Q 107.358 314.615 106.774 314.623 A 6.232 6.232 0 0 1 106.692 314.623 A 6.351 6.351 0 0 1 104.82 314.371 Q 102.763 313.736 102.225 311.502 A 7.643 7.643 0 0 1 102.034 309.716 L 102.034 300.165 L 99.734 300.165 L 99.734 298.993 L 102.034 297.983 L 103.059 294.555 L 104.465 294.555 L 104.465 298.276 L 109.124 298.276 L 109.124 300.165 L 104.465 300.165 L 104.465 309.613 Q 104.465 310.632 104.805 311.319 A 2.359 2.359 0 0 0 105.154 311.84 A 2.259 2.259 0 0 0 106.542 312.579 A 3.25 3.25 0 0 0 107.043 312.616 A 7.986 7.986 0 0 0 108.213 312.533 A 7.359 7.359 0 0 0 108.289 312.521 A 13.154 13.154 0 0 0 108.64 312.461 Q 108.999 312.394 109.241 312.323 Z M 62.322 298.158 L 61.985 300.414 A 10.717 10.717 0 0 0 61.214 300.272 Q 60.679 300.195 60.227 300.195 A 4.213 4.213 0 0 0 57.114 301.539 A 5.764 5.764 0 0 0 56.895 301.777 A 5.553 5.553 0 0 0 55.555 304.894 A 7.381 7.381 0 0 0 55.51 305.717 L 55.51 314.33 L 53.079 314.33 L 53.079 298.276 L 55.085 298.276 L 55.364 301.249 L 55.481 301.249 Q 56.375 299.682 57.634 298.832 A 4.847 4.847 0 0 1 60.403 297.983 A 11.163 11.163 0 0 1 61.402 298.025 A 8.148 8.148 0 0 1 62.322 298.158 Z M 78.959 308.732 A 12.56 12.56 0 0 0 79.182 306.288 A 14.272 14.272 0 0 0 79.177 305.902 Q 79.141 304.565 78.851 303.431 A 7.572 7.572 0 0 0 77.197 300.224 A 6.366 6.366 0 0 0 74.242 298.318 A 8.171 8.171 0 0 0 71.843 297.983 A 9.444 9.444 0 0 0 70.147 298.128 A 6.432 6.432 0 0 0 66.394 300.173 Q 64.431 302.362 64.431 306.288 A 12.165 12.165 0 0 0 64.584 308.259 A 8.995 8.995 0 0 0 65.339 310.712 A 7.992 7.992 0 0 0 65.516 311.059 A 6.583 6.583 0 0 0 67.917 313.612 A 6.771 6.771 0 0 0 69.472 314.304 A 7.809 7.809 0 0 0 71.741 314.623 A 9.442 9.442 0 0 0 73.39 314.485 A 6.483 6.483 0 0 0 77.205 312.419 A 6.783 6.783 0 0 0 78.012 311.309 Q 78.671 310.182 78.959 308.732 Z M 66.951 306.288 A 12.314 12.314 0 0 0 67.068 308.047 Q 67.197 308.94 67.469 309.664 A 5.101 5.101 0 0 0 68.181 310.976 A 3.985 3.985 0 0 0 70.777 312.504 A 6.039 6.039 0 0 0 71.799 312.587 A 5.648 5.648 0 0 0 73.289 312.402 A 3.931 3.931 0 0 0 75.425 310.983 A 5.22 5.22 0 0 0 76.238 309.4 Q 76.477 308.668 76.581 307.775 A 12.809 12.809 0 0 0 76.663 306.288 A 12.133 12.133 0 0 0 76.548 304.559 Q 76.285 302.742 75.425 301.637 A 4 4 0 0 0 72.938 300.154 A 6.133 6.133 0 0 0 71.77 300.048 A 5.787 5.787 0 0 0 70.329 300.217 A 3.873 3.873 0 0 0 68.167 301.615 A 5.028 5.028 0 0 0 67.385 303.126 Q 66.951 304.432 66.951 306.288 Z" id="front_labelLayer" stroke="#777777" fill="#777777" style="stroke:#777777;fill:#777777" vector-effect="non-scaling-stroke"/><path d="M 156 203 L 156 218.625 L 153 218.625 L 153 237.375 L 156 237.375 L 156 256.125 L 153 256.125 L 153 274.875 L 156 274.875 L 156 293.625 L 153 293.625 L 153 312.375 L 156 312.375 L 156 331.125 L 153 331.125 L 153 349.875 L 156 349.875 L 156 368.625 L 153 368.625 L 153 387.375 L 156 387.375 L 156 403 L 174.875 403 L 174.875 400 L 193.625 400 L 193.625 403 L 212.375 403 L 212.375 400 L 231.125 400 L 231.125 403 L 249.875 403 L 250 403 L 250 387.375 L 253 387.375 L 253 368.625 L 250 368.625 L 250 349.875 L 253 349.875 L 253 331.125 L 250 331.125 L 250 312.375 L 253 312.375 L 253 293.625 L 250 293.625 L 250 274.875 L 253 274.875 L 253 256.125 L 250 256.125 L 250 237.375 L 253 237.375 L 253 218.625 L 250 218.625 L 250 203 L 231.125 203 L 231.125 206 L 212.375 206 L 212.375 203 L 193.625 203 L 193.625 206 L 174.875 206 L 174.875 203 L 156.125 203 L 156 203 Z" id="left_outsideCutPath" stroke="#FF0000" stroke-width="0.1" style="stroke:#FF0000;stroke-width:0.1" vector-effect="non-scaling-stroke"/><path d="M 210.114 299.85 L 210.114 301.11 L 207.39 301.11 L 207.39 310.553 L 205.769 310.553 L 205.769 301.11 L 203.854 301.11 L 203.854 300.378 L 205.769 299.792 L 205.769 299.196 Q 205.769 295.79 208.338 295.325 A 4.927 4.927 0 0 1 209.216 295.251 Q 209.876 295.251 210.714 295.457 A 10.494 10.494 0 0 1 211.208 295.593 L 210.788 296.891 A 7.872 7.872 0 0 0 210.176 296.719 Q 209.622 296.589 209.187 296.589 A 2.186 2.186 0 0 0 208.66 296.648 A 1.404 1.404 0 0 0 207.829 297.199 A 1.876 1.876 0 0 0 207.581 297.699 Q 207.417 298.187 207.393 298.913 A 7.654 7.654 0 0 0 207.39 299.157 L 207.39 299.85 L 210.114 299.85 Z M 202.526 304.47 L 202.526 305.495 L 195.153 305.495 A 6.506 6.506 0 0 0 195.267 306.584 Q 195.384 307.178 195.619 307.646 A 3.044 3.044 0 0 0 196.105 308.356 A 2.946 2.946 0 0 0 197.652 309.228 A 4.463 4.463 0 0 0 198.649 309.333 A 8.562 8.562 0 0 0 201.856 308.698 A 9.811 9.811 0 0 0 202.067 308.61 L 202.067 310.055 A 9.732 9.732 0 0 1 201.18 310.39 A 7.442 7.442 0 0 1 200.441 310.588 Q 199.845 310.713 199.058 310.741 A 13.207 13.207 0 0 1 198.591 310.749 A 6.299 6.299 0 0 1 197.014 310.562 A 4.461 4.461 0 0 1 194.846 309.303 Q 193.474 307.858 193.474 305.29 A 8.512 8.512 0 0 1 193.631 303.602 Q 193.839 302.576 194.32 301.778 A 4.8 4.8 0 0 1 194.748 301.178 A 4.154 4.154 0 0 1 197.776 299.668 A 5.731 5.731 0 0 1 198.171 299.655 A 4.939 4.939 0 0 1 199.562 299.841 A 3.758 3.758 0 0 1 201.354 300.978 A 4.533 4.533 0 0 1 202.382 303.05 A 6.598 6.598 0 0 1 202.526 304.47 Z M 216.989 309.216 L 216.989 310.456 A 1.595 1.595 0 0 1 216.8 310.531 Q 216.598 310.598 216.31 310.649 A 6.063 6.063 0 0 1 216.213 310.666 Q 215.734 310.743 215.345 310.748 A 4.156 4.156 0 0 1 215.29 310.749 A 4.234 4.234 0 0 1 214.042 310.581 Q 212.671 310.158 212.312 308.668 A 5.096 5.096 0 0 1 212.185 307.477 L 212.185 301.11 L 210.651 301.11 L 210.651 300.329 L 212.185 299.655 L 212.868 297.37 L 213.806 297.37 L 213.806 299.85 L 216.911 299.85 L 216.911 301.11 L 213.806 301.11 L 213.806 307.409 A 3.264 3.264 0 0 0 213.853 307.982 Q 213.909 308.297 214.032 308.546 A 1.572 1.572 0 0 0 214.265 308.893 A 1.506 1.506 0 0 0 215.19 309.386 A 2.167 2.167 0 0 0 215.524 309.411 A 5.324 5.324 0 0 0 216.304 309.355 A 4.914 4.914 0 0 0 216.354 309.347 A 8.77 8.77 0 0 0 216.589 309.307 Q 216.812 309.266 216.968 309.222 A 2.43 2.43 0 0 0 216.989 309.216 Z M 190.632 295.358 L 190.632 310.553 L 189.011 310.553 L 189.011 295.358 L 190.632 295.358 Z M 195.192 304.177 L 200.788 304.177 A 5.524 5.524 0 0 0 200.721 303.288 Q 200.574 302.389 200.104 301.828 A 2.221 2.221 0 0 0 198.767 301.067 A 3.332 3.332 0 0 0 198.151 301.012 A 3.196 3.196 0 0 0 197.228 301.139 A 2.469 2.469 0 0 0 196.096 301.852 Q 195.402 302.612 195.224 303.9 A 6.124 6.124 0 0 0 195.192 304.177 Z" id="left_labelLayer" stroke="#777777" fill="#777777" style="stroke:#777777;fill:#777777" vector-effect="non-scaling-stroke"/><path d="M 259 306 L 259 324.875 L 256 324.875 L 256 343.625 L 259 343.625 L 259 362.375 L 256 362.375 L 256 381.125 L 259 381.125 L 259 399.875 L 259 400 L 284.125 400 L 284.125 403 L 302.875 403 L 302.875 400 L 321.625 400 L 321.625 403 L 340.375 403 L 340.375 400 L 359.125 400 L 359.125 403 L 377.875 403 L 377.875 400 L 396.625 400 L 403 400 L 403 381.125 L 406 381.125 L 406 362.375 L 403 362.375 L 403 343.625 L 406 343.625 L 406 324.875 L 403 324.875 L 403 306.125 L 403 306 L 377.875 306 L 377.875 303 L 359.125 303 L 359.125 306 L 340.375 306 L 340.375 303 L 321.625 303 L 321.625 306 L 302.875 306 L 302.875 303 L 284.125 303 L 284.125 306 L 265.375 306 L 259 306 Z" id="top_outsideCutPath" stroke="#FF0000" stroke-width="0.1" style="stroke:#FF0000;stroke-width:0.1" vector-effect="non-scaling-stroke"/><path d="M 338.187 355.813 L 338.07 355.813 A 15.342 15.342 0 0 1 338.171 356.946 A 12.855 12.855 0 0 1 338.187 357.59 L 338.187 361.994 L 336.566 361.994 L 336.566 346.486 L 337.885 346.486 L 338.109 347.951 L 338.187 347.951 A 4.364 4.364 0 0 1 338.818 347.234 A 3.374 3.374 0 0 1 339.642 346.682 Q 340.473 346.291 341.547 346.291 A 4.969 4.969 0 0 1 342.951 346.479 A 3.673 3.673 0 0 1 344.833 347.746 Q 345.779 348.935 345.952 350.908 A 10.556 10.556 0 0 1 345.99 351.828 Q 345.99 354.465 344.813 355.925 A 3.838 3.838 0 0 1 342.086 357.359 A 5.498 5.498 0 0 1 341.547 357.385 A 4.917 4.917 0 0 1 340.311 357.234 A 4.278 4.278 0 0 1 339.638 356.999 Q 338.773 356.613 338.187 355.813 Z M 322.348 355.852 L 322.348 357.092 A 1.595 1.595 0 0 1 322.158 357.167 Q 321.957 357.234 321.668 357.285 A 6.063 6.063 0 0 1 321.571 357.302 Q 321.093 357.379 320.703 357.384 A 4.156 4.156 0 0 1 320.648 357.385 A 4.234 4.234 0 0 1 319.401 357.217 Q 318.029 356.794 317.67 355.304 A 5.096 5.096 0 0 1 317.543 354.113 L 317.543 347.746 L 316.01 347.746 L 316.01 346.965 L 317.543 346.291 L 318.226 344.006 L 319.164 344.006 L 319.164 346.486 L 322.269 346.486 L 322.269 347.746 L 319.164 347.746 L 319.164 354.045 A 3.264 3.264 0 0 0 319.211 354.618 Q 319.267 354.933 319.391 355.182 A 1.572 1.572 0 0 0 319.623 355.529 A 1.506 1.506 0 0 0 320.549 356.022 A 2.167 2.167 0 0 0 320.883 356.047 A 5.324 5.324 0 0 0 321.663 355.991 A 4.914 4.914 0 0 0 321.713 355.983 A 8.77 8.77 0 0 0 321.947 355.943 Q 322.171 355.902 322.326 355.858 A 2.43 2.43 0 0 0 322.348 355.852 Z M 333.576 353.457 A 8.374 8.374 0 0 0 333.725 351.828 A 9.514 9.514 0 0 0 333.721 351.571 Q 333.657 349.203 332.401 347.785 A 4.244 4.244 0 0 0 330.431 346.514 A 5.447 5.447 0 0 0 328.832 346.291 A 6.296 6.296 0 0 0 327.701 346.388 A 4.288 4.288 0 0 0 325.199 347.751 Q 324.33 348.72 324.038 350.2 A 8.417 8.417 0 0 0 323.891 351.828 A 8.11 8.11 0 0 0 323.992 353.142 A 5.997 5.997 0 0 0 324.496 354.777 A 5.328 5.328 0 0 0 324.614 355.008 A 4.389 4.389 0 0 0 326.215 356.711 A 4.514 4.514 0 0 0 327.251 357.172 A 5.206 5.206 0 0 0 328.764 357.385 A 6.295 6.295 0 0 0 329.863 357.293 A 4.322 4.322 0 0 0 332.406 355.915 Q 333.282 354.939 333.576 353.457 Z M 325.57 351.828 Q 325.57 353.879 326.391 354.953 A 2.657 2.657 0 0 0 328.121 355.972 A 4.026 4.026 0 0 0 328.803 356.027 A 3.765 3.765 0 0 0 329.796 355.904 A 2.62 2.62 0 0 0 331.22 354.958 Q 332.045 353.889 332.045 351.828 Q 332.045 350.519 331.705 349.613 A 3.338 3.338 0 0 0 331.22 348.728 A 2.667 2.667 0 0 0 329.562 347.738 A 4.089 4.089 0 0 0 328.783 347.668 A 3.858 3.858 0 0 0 327.823 347.78 A 2.582 2.582 0 0 0 326.381 348.713 Q 325.797 349.465 325.634 350.749 A 8.566 8.566 0 0 0 325.57 351.828 Z M 338.187 351.467 L 338.187 351.828 A 10.719 10.719 0 0 0 338.24 352.936 Q 338.357 354.054 338.73 354.734 A 2.445 2.445 0 0 0 338.939 355.056 A 2.352 2.352 0 0 0 340.132 355.861 Q 340.664 356.027 341.351 356.027 Q 342.685 356.027 343.463 354.989 A 3.23 3.23 0 0 0 343.524 354.904 A 3.919 3.919 0 0 0 344.062 353.759 Q 344.217 353.234 344.275 352.603 A 8.636 8.636 0 0 0 344.31 351.809 A 8.181 8.181 0 0 0 344.234 350.648 Q 344.065 349.472 343.524 348.737 A 2.522 2.522 0 0 0 341.68 347.687 A 3.488 3.488 0 0 0 341.312 347.668 A 4.671 4.671 0 0 0 340.44 347.744 Q 339.46 347.93 338.939 348.576 A 2.777 2.777 0 0 0 338.505 349.368 Q 338.23 350.114 338.193 351.218 A 10.316 10.316 0 0 0 338.187 351.467 Z" id="top_labelLayer" stroke="#777777" fill="#777777" style="stroke:#777777;fill:#777777" vector-effect="non-scaling-stroke"/><path d="M 0 0 L 0 15.625 L 3 15.625 L 3 34.375 L 0 34.375 L 0 53.125 L 3 53.125 L 3 71.875 L 0 71.875 L 0 90.625 L 3 90.625 L 3 109.375 L 0 109.375 L 0 128.125 L 3 128.125 L 3 146.875 L 0 146.875 L 0 165.625 L 3 165.625 L 3 184.375 L 0 184.375 L 0 200 L 28.125 200 L 28.125 197 L 46.875 197 L 46.875 200 L 65.625 200 L 65.625 197 L 84.375 197 L 84.375 200 L 103.125 200 L 103.125 197 L 121.875 197 L 121.875 200 L 140.625 200 L 150 200 L 150 184.375 L 147 184.375 L 147 165.625 L 150 165.625 L 150 146.875 L 147 146.875 L 147 128.125 L 150 128.125 L 150 109.375 L 147 109.375 L 147 90.625 L 150 90.625 L 150 71.875 L 147 71.875 L 147 53.125 L 150 53.125 L 150 34.375 L 147 34.375 L 147 15.625 L 150 15.625 L 150 0 L 121.875 0 L 121.875 3 L 103.125 3 L 103.125 0 L 84.375 0 L 84.375 3 L 65.625 3 L 65.625 0 L 46.875 0 L 46.875 3 L 28.125 3 L 28.125 0 L 9.375 0 L 0 0 Z" id="back_outsideCutPath" stroke="#FF0000" stroke-width="0.1" style="stroke:#FF0000;stroke-width:0.1" vector-effect="non-scaling-stroke"/><path d="M 95.537 103.032 L 95.654 103.032 Q 96.284 102.139 97.573 100.688 L 102.759 95.195 L 105.645 95.195 L 99.141 102.036 L 106.099 111.25 L 103.154 111.25 L 97.485 103.662 L 95.654 105.244 L 95.654 111.25 L 93.252 111.25 L 93.252 88.457 L 95.654 88.457 L 95.654 100.542 A 16.204 16.204 0 0 1 95.647 101 Q 95.626 101.75 95.541 102.971 A 101.139 101.139 0 0 1 95.537 103.032 Z M 46.333 109.184 L 46.157 109.184 L 45.645 111.25 L 43.901 111.25 L 43.901 88.457 L 46.333 88.457 L 46.333 93.994 Q 46.333 95.854 46.216 97.334 L 46.333 97.334 Q 48.032 94.931 51.372 94.931 A 7.432 7.432 0 0 1 53.464 95.211 A 5.563 5.563 0 0 1 56.287 97.092 Q 58.037 99.253 58.037 103.208 A 14.257 14.257 0 0 1 57.848 105.607 Q 57.46 107.879 56.272 109.353 A 5.757 5.757 0 0 1 52.181 111.504 A 8.247 8.247 0 0 1 51.372 111.543 A 7.376 7.376 0 0 1 49.519 111.317 A 6.418 6.418 0 0 1 48.508 110.964 A 5.386 5.386 0 0 1 46.333 109.184 Z M 73.96 111.25 L 72.158 111.25 L 71.675 108.965 L 71.558 108.965 A 10.08 10.08 0 0 1 70.742 109.878 Q 69.951 110.655 69.163 111.008 A 5.608 5.608 0 0 1 68.004 111.374 Q 67.442 111.49 66.792 111.526 A 10.943 10.943 0 0 1 66.182 111.543 A 7.462 7.462 0 0 1 64.663 111.398 Q 63.735 111.205 63.022 110.755 A 4.187 4.187 0 0 1 62.439 110.312 A 3.997 3.997 0 0 1 61.233 108.204 A 6.118 6.118 0 0 1 61.084 106.811 A 4.208 4.208 0 0 1 63.477 102.84 Q 65.399 101.818 68.862 101.714 L 71.587 101.626 L 71.587 100.63 Q 71.587 99.475 71.283 98.689 A 2.714 2.714 0 0 0 70.774 97.839 Q 69.961 96.938 68.174 96.938 A 7.917 7.917 0 0 0 66.352 97.165 Q 65.516 97.363 64.606 97.734 A 16.285 16.285 0 0 0 63.633 98.169 L 62.886 96.308 Q 64.072 95.664 65.486 95.298 A 11.261 11.261 0 0 1 68.32 94.931 A 10.27 10.27 0 0 1 69.884 95.042 Q 70.688 95.167 71.33 95.43 A 4.139 4.139 0 0 1 72.576 96.206 Q 73.96 97.48 73.96 100.293 L 73.96 111.25 Z M 89.678 95.737 L 88.931 97.803 A 10.817 10.817 0 0 0 87.757 97.412 A 12.92 12.92 0 0 0 87.173 97.268 Q 86.358 97.086 85.705 97.06 A 5.39 5.39 0 0 0 85.488 97.055 Q 81.143 97.055 80.657 101.979 A 13.436 13.436 0 0 0 80.596 103.296 A 11.776 11.776 0 0 0 80.712 105.011 Q 80.969 106.749 81.79 107.837 A 3.862 3.862 0 0 0 84.292 109.332 A 5.883 5.883 0 0 0 85.327 109.419 A 10.179 10.179 0 0 0 88.135 109.01 A 12.568 12.568 0 0 0 89.443 108.555 L 89.443 110.708 Q 88.06 111.425 86.06 111.526 A 13.335 13.335 0 0 1 85.386 111.543 A 9.088 9.088 0 0 1 83.175 111.289 A 6.163 6.163 0 0 1 79.988 109.397 Q 78.337 107.543 78.112 104.362 A 14.703 14.703 0 0 1 78.076 103.325 A 13.417 13.417 0 0 1 78.284 100.885 Q 78.711 98.578 80.017 97.099 A 6.296 6.296 0 0 1 83.465 95.117 A 9.545 9.545 0 0 1 85.547 94.902 A 10.973 10.973 0 0 1 87.861 95.151 A 12.137 12.137 0 0 1 88.536 95.315 Q 89.225 95.506 89.678 95.737 Z M 51.021 96.968 Q 48.53 96.968 47.432 98.396 Q 46.466 99.651 46.349 102.415 A 18.735 18.735 0 0 0 46.333 103.208 A 16.078 16.078 0 0 0 46.413 104.87 Q 46.587 106.546 47.147 107.566 A 3.668 3.668 0 0 0 47.461 108.049 A 3.528 3.528 0 0 0 49.25 109.257 Q 49.849 109.444 50.578 109.491 A 7.819 7.819 0 0 0 51.079 109.507 A 4.847 4.847 0 0 0 52.456 109.322 A 3.497 3.497 0 0 0 54.419 107.873 Q 55.204 106.707 55.428 104.811 A 13.933 13.933 0 0 0 55.518 103.179 A 14.366 14.366 0 0 0 55.431 101.542 Q 55.209 99.611 54.419 98.506 A 3.546 3.546 0 0 0 52.161 97.077 A 5.624 5.624 0 0 0 51.021 96.968 Z M 71.528 104.805 L 71.528 103.354 L 69.097 103.457 A 17.854 17.854 0 0 0 67.67 103.56 Q 66.263 103.724 65.381 104.113 A 3.735 3.735 0 0 0 64.915 104.358 A 2.595 2.595 0 0 0 63.678 106.24 A 3.841 3.841 0 0 0 63.633 106.841 A 3.475 3.475 0 0 0 63.719 107.638 Q 63.863 108.251 64.25 108.672 A 2.166 2.166 0 0 0 64.431 108.847 Q 65.121 109.442 66.285 109.523 A 5.469 5.469 0 0 0 66.665 109.536 Q 68.936 109.536 70.232 108.291 Q 71.521 107.053 71.528 104.829 A 7.705 7.705 0 0 0 71.528 104.805 Z" id="back_labelLayer" stroke="#777777" fill="#777777" style="stroke:#777777;fill:#777777" vector-effect="non-scaling-stroke"/><path d="M 156 0 L 156 15.625 L 153 15.625 L 153 34.375 L 156 34.375 L 156 53.125 L 153 53.125 L 153 71.875 L 156 71.875 L 156 90.625 L 153 90.625 L 153 109.375 L 156 109.375 L 156 128.125 L 153 128.125 L 153 146.875 L 156 146.875 L 156 165.625 L 153 165.625 L 153 184.375 L 156 184.375 L 156 200 L 174.875 200 L 174.875 197 L 193.625 197 L 193.625 200 L 212.375 200 L 212.375 197 L 231.125 197 L 231.125 200 L 249.875 200 L 250 200 L 250 184.375 L 253 184.375 L 253 165.625 L 250 165.625 L 250 146.875 L 253 146.875 L 253 128.125 L 250 128.125 L 250 109.375 L 253 109.375 L 253 90.625 L 250 90.625 L 250 71.875 L 253 71.875 L 253 53.125 L 250 53.125 L 250 34.375 L 253 34.375 L 253 15.625 L 250 15.625 L 250 0 L 231.125 0 L 231.125 3 L 212.375 3 L 212.375 0 L 193.625 0 L 193.625 3 L 174.875 3 L 174.875 0 L 156.125 0 L 156 0 Z" id="right_outsideCutPath" stroke="#FF0000" stroke-width="0.1" style="stroke:#FF0000;stroke-width:0.1" vector-effect="non-scaling-stroke"/><path d="M 215.437 105.195 L 213.815 105.195 L 213.815 98.271 Q 213.815 97.437 213.573 96.873 A 1.928 1.928 0 0 0 213.22 96.318 A 1.828 1.828 0 0 0 212.47 95.84 Q 212.176 95.736 211.814 95.697 A 4.298 4.298 0 0 0 211.354 95.674 A 4.906 4.906 0 0 0 210.437 95.754 Q 209.929 95.851 209.537 96.065 A 2.27 2.27 0 0 0 208.889 96.592 Q 208.112 97.51 208.112 99.6 L 208.112 105.195 L 206.491 105.195 L 206.491 90 L 208.112 90 L 208.112 94.6 A 14.583 14.583 0 0 1 208.102 95.16 Q 208.092 95.422 208.072 95.648 A 6.341 6.341 0 0 1 208.034 95.977 L 208.132 95.977 A 3.239 3.239 0 0 1 209.267 94.884 A 3.957 3.957 0 0 1 209.494 94.761 A 4.162 4.162 0 0 1 210.86 94.356 A 5.261 5.261 0 0 1 211.511 94.316 Q 212.802 94.316 213.668 94.72 A 2.922 2.922 0 0 1 214.455 95.249 A 2.823 2.823 0 0 1 215.151 96.342 Q 215.318 96.797 215.388 97.361 A 7.01 7.01 0 0 1 215.437 98.213 L 215.437 105.195 Z M 200.593 94.492 L 204.294 94.492 L 204.294 95.518 L 202.312 95.752 Q 202.585 96.094 202.8 96.645 A 3.119 3.119 0 0 1 202.984 97.39 A 4.005 4.005 0 0 1 203.015 97.891 A 3.716 3.716 0 0 1 202.844 99.043 A 3.006 3.006 0 0 1 201.94 100.4 Q 200.973 101.245 199.355 101.329 A 7.041 7.041 0 0 1 198.991 101.338 Q 198.513 101.338 198.093 101.26 Q 197.502 101.572 197.248 101.976 A 1.22 1.22 0 0 0 197.058 102.637 A 0.84 0.84 0 0 0 197.1 102.912 Q 197.178 103.137 197.397 103.273 A 0.9 0.9 0 0 0 197.419 103.286 A 1.137 1.137 0 0 0 197.671 103.39 Q 198.034 103.496 198.659 103.496 L 200.554 103.496 A 6.636 6.636 0 0 1 201.561 103.568 Q 202.088 103.649 202.514 103.822 A 2.93 2.93 0 0 1 203.225 104.228 A 2.372 2.372 0 0 1 204.106 105.739 A 3.562 3.562 0 0 1 204.157 106.357 A 3.51 3.51 0 0 1 203.957 107.572 Q 203.633 108.456 202.787 109.031 A 3.856 3.856 0 0 1 202.731 109.067 Q 201.306 110 198.571 110 A 9.083 9.083 0 0 1 197.353 109.924 Q 196.116 109.756 195.334 109.219 A 2.584 2.584 0 0 1 194.501 108.315 Q 194.234 107.82 194.201 107.193 A 3.423 3.423 0 0 1 194.196 107.012 Q 194.196 106.035 194.821 105.322 A 2.831 2.831 0 0 1 195.794 104.614 A 4.012 4.012 0 0 1 196.579 104.355 A 1.682 1.682 0 0 1 195.926 103.827 A 1.998 1.998 0 0 1 195.891 103.779 A 1.503 1.503 0 0 1 195.615 102.967 A 1.862 1.862 0 0 1 195.612 102.871 A 1.854 1.854 0 0 1 195.706 102.274 A 1.643 1.643 0 0 1 195.925 101.846 A 2.32 2.32 0 0 1 196.231 101.5 Q 196.506 101.243 196.911 100.996 A 2.842 2.842 0 0 1 195.677 100.008 A 3.522 3.522 0 0 1 195.559 99.834 Q 195.036 99.014 195.036 97.959 A 4.684 4.684 0 0 1 195.159 96.851 A 3.081 3.081 0 0 1 196.091 95.249 A 3.443 3.443 0 0 1 197.412 94.52 Q 197.937 94.36 198.569 94.314 A 7.16 7.16 0 0 1 199.079 94.297 A 6.214 6.214 0 0 1 199.901 94.349 A 4.733 4.733 0 0 1 200.593 94.492 Z M 223.688 103.857 L 223.688 105.098 A 1.595 1.595 0 0 1 223.499 105.173 Q 223.298 105.24 223.009 105.291 A 6.063 6.063 0 0 1 222.912 105.308 Q 222.433 105.385 222.044 105.39 A 4.156 4.156 0 0 1 221.989 105.391 A 4.234 4.234 0 0 1 220.741 105.223 Q 219.37 104.799 219.011 103.309 A 5.096 5.096 0 0 1 218.884 102.119 L 218.884 95.752 L 217.351 95.752 L 217.351 94.971 L 218.884 94.297 L 219.567 92.012 L 220.505 92.012 L 220.505 94.492 L 223.61 94.492 L 223.61 95.752 L 220.505 95.752 L 220.505 102.051 A 3.264 3.264 0 0 0 220.552 102.624 Q 220.608 102.939 220.731 103.188 A 1.572 1.572 0 0 0 220.964 103.535 A 1.506 1.506 0 0 0 221.89 104.028 A 2.167 2.167 0 0 0 222.224 104.053 A 5.324 5.324 0 0 0 223.004 103.997 A 4.914 4.914 0 0 0 223.054 103.989 A 8.77 8.77 0 0 0 223.288 103.949 Q 223.511 103.907 223.667 103.864 A 2.43 2.43 0 0 0 223.688 103.857 Z M 188.474 94.414 L 188.249 95.918 A 7.145 7.145 0 0 0 187.735 95.823 Q 187.479 95.786 187.251 95.776 A 3.802 3.802 0 0 0 187.077 95.771 A 2.809 2.809 0 0 0 185.002 96.668 A 3.843 3.843 0 0 0 184.855 96.826 A 3.702 3.702 0 0 0 183.962 98.905 A 4.921 4.921 0 0 0 183.933 99.453 L 183.933 105.195 L 182.312 105.195 L 182.312 94.492 L 183.649 94.492 L 183.835 96.475 L 183.913 96.475 A 5.474 5.474 0 0 1 184.525 95.6 A 4.182 4.182 0 0 1 185.349 94.863 Q 186.188 94.297 187.194 94.297 A 7.442 7.442 0 0 1 187.861 94.325 A 5.432 5.432 0 0 1 188.474 94.414 Z M 192.097 94.492 L 192.097 105.195 L 190.476 105.195 L 190.476 94.492 L 192.097 94.492 Z M 200.036 104.951 L 198.093 104.951 Q 196.989 104.951 196.374 105.478 A 1.708 1.708 0 0 0 195.813 106.447 A 2.594 2.594 0 0 0 195.759 106.992 A 1.628 1.628 0 0 0 195.866 107.596 Q 196.02 107.985 196.396 108.248 A 1.902 1.902 0 0 0 196.491 108.31 A 2.596 2.596 0 0 0 197.13 108.584 Q 197.732 108.758 198.577 108.76 A 8.225 8.225 0 0 0 198.591 108.76 Q 200.414 108.76 201.392 108.273 A 2.692 2.692 0 0 0 201.613 108.149 A 2.365 2.365 0 0 0 202.162 107.69 A 1.772 1.772 0 0 0 202.595 106.494 A 2.193 2.193 0 0 0 202.555 106.059 Q 202.448 105.533 202.058 105.288 A 1.538 1.538 0 0 0 201.693 105.129 Q 201.304 105.009 200.69 104.97 A 10.315 10.315 0 0 0 200.036 104.951 Z M 196.999 99.303 A 1.734 1.734 0 0 0 197.272 99.619 A 2.095 2.095 0 0 0 198.116 100.077 Q 198.437 100.169 198.82 100.19 A 4.174 4.174 0 0 0 199.04 100.195 A 3.532 3.532 0 0 0 199.965 100.085 Q 201.023 99.797 201.308 98.759 A 3.283 3.283 0 0 0 201.413 97.891 A 3.486 3.486 0 0 0 201.294 96.936 Q 200.878 95.478 199.011 95.478 Q 198.135 95.478 197.569 95.84 A 1.866 1.866 0 0 0 197.253 96.094 Q 196.638 96.709 196.638 97.92 Q 196.638 98.767 196.999 99.303 Z M 190.362 91.295 A 1.796 1.796 0 0 0 190.339 91.592 Q 190.339 92.139 190.612 92.407 A 0.91 0.91 0 0 0 190.941 92.617 A 1.03 1.03 0 0 0 191.296 92.676 A 0.946 0.946 0 0 0 191.97 92.407 A 0.791 0.791 0 0 0 192.124 92.203 Q 192.253 91.96 192.253 91.592 A 1.854 1.854 0 0 0 192.245 91.416 Q 192.23 91.256 192.185 91.125 A 0.819 0.819 0 0 0 191.97 90.781 A 0.955 0.955 0 0 0 191.296 90.518 A 1.238 1.238 0 0 0 191.214 90.52 A 0.937 0.937 0 0 0 190.612 90.776 Q 190.418 90.96 190.362 91.295 Z" id="right_labelLayer" stroke="#777777" fill="#777777" style="stroke:#777777;fill:#777777" vector-effect="non-scaling-stroke"/><path d="M 259 203 L 259 221.875 L 256 221.875 L 256 240.625 L 259 240.625 L 259 259.375 L 256 259.375 L 256 278.125 L 259 278.125 L 259 296.875 L 259 297 L 284.125 297 L 284.125 300 L 302.875 300 L 302.875 297 L 321.625 297 L 321.625 300 L 340.375 300 L 340.375 297 L 359.125 297 L 359.125 300 L 377.875 300 L 377.875 297 L 396.625 297 L 403 297 L 403 278.125 L 406 278.125 L 406 259.375 L 403 259.375 L 403 240.625 L 406 240.625 L 406 221.875 L 403 221.875 L 403 203.125 L 403 203 L 377.875 203 L 377.875 200 L 359.125 200 L 359.125 203 L 340.375 203 L 340.375 200 L 321.625 200 L 321.625 203 L 302.875 203 L 302.875 200 L 284.125 200 L 284.125 203 L 265.375 203 L 259 203 Z" id="bottom_outsideCutPath" stroke="#FF0000" stroke-width="0.1" style="stroke:#FF0000;stroke-width:0.1" vector-effect="non-scaling-stroke"/><path d="M 363.9 257.5 L 362.279 257.5 L 362.279 250.537 A 4.782 4.782 0 0 0 362.231 249.834 Q 362.178 249.475 362.065 249.185 A 1.959 1.959 0 0 0 361.732 248.618 Q 361.185 247.978 360.033 247.978 Q 358.519 247.978 357.797 248.847 A 2.679 2.679 0 0 0 357.343 249.669 Q 357.074 250.422 357.074 251.523 L 357.074 257.5 L 355.453 257.5 L 355.453 250.537 A 4.782 4.782 0 0 0 355.405 249.834 Q 355.351 249.475 355.238 249.185 A 1.959 1.959 0 0 0 354.906 248.618 A 1.7 1.7 0 0 0 354.124 248.11 Q 353.843 248.017 353.499 247.99 A 3.796 3.796 0 0 0 353.197 247.978 A 4.026 4.026 0 0 0 352.365 248.059 Q 351.464 248.249 350.966 248.891 Q 350.324 249.719 350.264 251.505 A 11.287 11.287 0 0 0 350.258 251.885 L 350.258 257.5 L 348.637 257.5 L 348.637 246.797 L 349.955 246.797 L 350.219 248.261 L 350.297 248.261 Q 350.756 247.48 351.591 247.041 A 3.849 3.849 0 0 1 353.111 246.614 A 4.649 4.649 0 0 1 353.461 246.601 Q 355.015 246.601 355.903 247.298 A 2.768 2.768 0 0 1 356.742 248.418 L 356.82 248.418 A 3.385 3.385 0 0 1 358.095 247.152 A 4.067 4.067 0 0 1 358.207 247.09 A 4.103 4.103 0 0 1 359.712 246.632 A 5.116 5.116 0 0 1 360.277 246.601 Q 361.502 246.601 362.311 247.025 A 2.672 2.672 0 0 1 362.997 247.534 A 2.792 2.792 0 0 1 363.596 248.514 Q 363.9 249.328 363.9 250.517 L 363.9 257.5 Z M 299.721 256.123 L 299.603 256.123 L 299.262 257.5 L 298.1 257.5 L 298.1 242.304 L 299.721 242.304 L 299.721 245.996 Q 299.721 247.196 299.647 248.159 A 20.218 20.218 0 0 1 299.643 248.222 L 299.721 248.222 A 3.686 3.686 0 0 1 302.411 246.66 A 5.537 5.537 0 0 1 303.08 246.621 A 4.955 4.955 0 0 1 304.474 246.807 A 3.709 3.709 0 0 1 306.356 248.061 A 4.777 4.777 0 0 1 307.194 249.675 Q 307.4 250.339 307.477 251.135 A 10.405 10.405 0 0 1 307.523 252.138 Q 307.523 254.775 306.347 256.235 A 3.838 3.838 0 0 1 303.619 257.669 A 5.498 5.498 0 0 1 303.08 257.695 A 4.917 4.917 0 0 1 301.844 257.544 A 4.278 4.278 0 0 1 301.171 257.309 Q 300.307 256.924 299.721 256.123 Z M 327.357 256.162 L 327.357 257.402 A 1.595 1.595 0 0 1 327.168 257.477 Q 326.967 257.544 326.678 257.596 A 6.063 6.063 0 0 1 326.581 257.612 Q 326.102 257.69 325.713 257.695 A 4.156 4.156 0 0 1 325.658 257.695 A 4.234 4.234 0 0 1 324.41 257.527 Q 323.039 257.104 322.68 255.614 A 5.096 5.096 0 0 1 322.553 254.424 L 322.553 248.056 L 321.019 248.056 L 321.019 247.275 L 322.553 246.601 L 323.236 244.316 L 324.174 244.316 L 324.174 246.797 L 327.279 246.797 L 327.279 248.056 L 324.174 248.056 L 324.174 254.355 A 3.264 3.264 0 0 0 324.221 254.928 Q 324.277 255.243 324.4 255.492 A 1.572 1.572 0 0 0 324.633 255.84 A 1.506 1.506 0 0 0 325.559 256.332 A 2.167 2.167 0 0 0 325.893 256.357 A 5.324 5.324 0 0 0 326.672 256.301 A 4.914 4.914 0 0 0 326.723 256.294 A 8.77 8.77 0 0 0 326.957 256.254 Q 327.18 256.212 327.336 256.168 A 2.43 2.43 0 0 0 327.357 256.162 Z M 334.418 256.162 L 334.418 257.402 A 1.595 1.595 0 0 1 334.229 257.477 Q 334.027 257.544 333.738 257.596 A 6.063 6.063 0 0 1 333.642 257.612 Q 333.163 257.69 332.774 257.695 A 4.156 4.156 0 0 1 332.719 257.695 A 4.234 4.234 0 0 1 331.471 257.527 Q 330.099 257.104 329.74 255.614 A 5.096 5.096 0 0 1 329.613 254.424 L 329.613 248.056 L 328.08 248.056 L 328.08 247.275 L 329.613 246.601 L 330.297 244.316 L 331.234 244.316 L 331.234 246.797 L 334.34 246.797 L 334.34 248.056 L 331.234 248.056 L 331.234 254.355 A 3.264 3.264 0 0 0 331.281 254.928 Q 331.338 255.243 331.461 255.492 A 1.572 1.572 0 0 0 331.693 255.84 A 1.506 1.506 0 0 0 332.619 256.332 A 2.167 2.167 0 0 0 332.953 256.357 A 5.324 5.324 0 0 0 333.733 256.301 A 4.914 4.914 0 0 0 333.783 256.294 A 8.77 8.77 0 0 0 334.017 256.254 Q 334.241 256.212 334.396 256.168 A 2.43 2.43 0 0 0 334.418 256.162 Z M 319.445 253.767 A 8.374 8.374 0 0 0 319.594 252.138 A 9.514 9.514 0 0 0 319.59 251.881 Q 319.526 249.513 318.27 248.095 A 4.244 4.244 0 0 0 316.3 246.825 A 5.447 5.447 0 0 0 314.701 246.601 A 6.296 6.296 0 0 0 313.57 246.698 A 4.288 4.288 0 0 0 311.068 248.061 Q 310.199 249.031 309.907 250.511 A 8.417 8.417 0 0 0 309.76 252.138 A 8.11 8.11 0 0 0 309.862 253.452 A 5.997 5.997 0 0 0 310.365 255.088 A 5.328 5.328 0 0 0 310.483 255.319 A 4.389 4.389 0 0 0 312.084 257.021 A 4.514 4.514 0 0 0 313.12 257.482 A 5.206 5.206 0 0 0 314.633 257.695 A 6.295 6.295 0 0 0 315.732 257.603 A 4.322 4.322 0 0 0 318.275 256.225 Q 319.151 255.249 319.445 253.767 Z M 345.646 253.767 A 8.374 8.374 0 0 0 345.795 252.138 A 9.514 9.514 0 0 0 345.791 251.881 Q 345.727 249.513 344.472 248.095 A 4.244 4.244 0 0 0 342.501 246.825 A 5.447 5.447 0 0 0 340.902 246.601 A 6.296 6.296 0 0 0 339.771 246.698 A 4.288 4.288 0 0 0 337.269 248.061 Q 336.4 249.031 336.109 250.511 A 8.417 8.417 0 0 0 335.961 252.138 A 8.11 8.11 0 0 0 336.063 253.452 A 5.997 5.997 0 0 0 336.566 255.088 A 5.328 5.328 0 0 0 336.684 255.319 A 4.389 4.389 0 0 0 338.285 257.021 A 4.514 4.514 0 0 0 339.321 257.482 A 5.206 5.206 0 0 0 340.834 257.695 A 6.295 6.295 0 0 0 341.933 257.603 A 4.322 4.322 0 0 0 344.477 256.225 Q 345.352 255.249 345.646 253.767 Z M 311.439 252.138 Q 311.439 254.189 312.26 255.263 A 2.657 2.657 0 0 0 313.99 256.282 A 4.026 4.026 0 0 0 314.672 256.338 A 3.765 3.765 0 0 0 315.665 256.214 A 2.62 2.62 0 0 0 317.089 255.268 Q 317.914 254.199 317.914 252.138 Q 317.914 250.829 317.574 249.924 A 3.338 3.338 0 0 0 317.089 249.038 A 2.667 2.667 0 0 0 315.431 248.049 A 4.089 4.089 0 0 0 314.652 247.978 A 3.858 3.858 0 0 0 313.692 248.091 A 2.582 2.582 0 0 0 312.25 249.023 Q 311.666 249.775 311.503 251.059 A 8.566 8.566 0 0 0 311.439 252.138 Z M 337.641 252.138 Q 337.641 254.189 338.461 255.263 A 2.657 2.657 0 0 0 340.191 256.282 A 4.026 4.026 0 0 0 340.873 256.338 A 3.765 3.765 0 0 0 341.866 256.214 A 2.62 2.62 0 0 0 343.29 255.268 Q 344.115 254.199 344.115 252.138 Q 344.115 250.829 343.776 249.924 A 3.338 3.338 0 0 0 343.29 249.038 A 2.667 2.667 0 0 0 341.632 248.049 A 4.089 4.089 0 0 0 340.853 247.978 A 3.858 3.858 0 0 0 339.893 248.091 A 2.582 2.582 0 0 0 338.451 249.023 Q 337.868 249.775 337.704 251.059 A 8.566 8.566 0 0 0 337.641 252.138 Z M 302.846 247.978 A 4.555 4.555 0 0 0 301.963 248.058 Q 300.974 248.253 300.453 248.93 A 2.775 2.775 0 0 0 300.051 249.696 Q 299.78 250.455 299.731 251.61 A 12.49 12.49 0 0 0 299.721 252.138 A 10.719 10.719 0 0 0 299.774 253.246 Q 299.89 254.364 300.263 255.044 A 2.445 2.445 0 0 0 300.473 255.366 A 2.352 2.352 0 0 0 301.666 256.171 Q 302.197 256.338 302.885 256.338 Q 304.379 256.338 305.111 255.249 A 3.721 3.721 0 0 0 305.572 254.253 Q 305.716 253.78 305.784 253.207 A 9.289 9.289 0 0 0 305.844 252.119 A 9.578 9.578 0 0 0 305.786 251.028 Q 305.648 249.834 305.186 249.113 A 2.689 2.689 0 0 0 305.111 249.004 Q 304.379 247.978 302.846 247.978 Z" id="bottom_labelLayer" stroke="#777777" fill="#777777" style="stroke:#777777;fill:#777777" vector-effect="non-scaling-stroke"/></g></svg>